<svg width="303" height="229" viewBox="0 0 303 229" fill="none" xmlns="http://www.w3.org/2000/svg">
<path d="M193.331 176.797L295.509 117.276C296.82 116.512 296.836 114.623 295.538 113.837L260.665 92.7304C260.039 92.351 259.255 92.3447 258.622 92.7138L101.565 184.33C100.905 184.715 100.083 184.691 99.4477 184.267L66.4395 162.262C65.2048 161.438 65.265 159.605 66.551 158.864L195.398 84.6796C196.739 83.9073 196.733 81.9694 195.386 81.2063L168.808 66.1451C168.197 65.7993 167.451 65.7984 166.84 66.1427L40.3544 137.416C39.6907 137.79 38.872 137.755 38.2432 137.324L3.13879 113.306C1.91953 112.471 1.99445 110.649 3.27806 109.917L88.2432 61.5068" stroke="#F51842" stroke-width="0.5" stroke-dasharray="4 4"/>
<path d="M174.966 195.162L203.534 178.838L174.966 161.493L145.378 178.838L174.966 195.162Z" fill="#FF728C"/>
<path d="M203.534 212.001V178.838L174.966 195.162V228.831L203.534 212.001Z" fill="#CA324F"/>
<path d="M145.378 210.466V178.838L174.966 195.162V228.831L145.378 210.466Z" fill="#D6193D"/>
<path d="M109.056 34.6074L137.624 18.2831L109.056 0.938477L79.4684 18.2831L109.056 34.6074Z" fill="#FF728D"/>
<path d="M137.624 51.446V18.2832L109.056 34.6075V68.2765L137.624 51.446Z" fill="#CA324F"/>
<path d="M79.4684 49.9116V18.2832L109.056 34.6075V68.2765L79.4684 49.9116Z" fill="#D6193D"/>
<ellipse cx="291.277" cy="117.622" rx="11.223" ry="7.14189" fill="#F51842" fill-opacity="0.35"/>
<path d="M295.878 117.622C295.878 118.222 295.47 118.852 294.627 119.357C293.794 119.857 292.611 120.183 291.277 120.183C289.943 120.183 288.76 119.857 287.927 119.357C287.084 118.852 286.676 118.222 286.676 117.622C286.676 117.021 287.084 116.392 287.927 115.886C288.76 115.386 289.943 115.061 291.277 115.061C292.611 115.061 293.794 115.386 294.627 115.886C295.47 116.392 295.878 117.021 295.878 117.622Z" fill="#F51842" stroke="#F51842"/>
<ellipse cx="103.547" cy="180.878" rx="11.223" ry="7.14189" fill="#621423"/>
<ellipse cx="103.547" cy="180.878" rx="5.10135" ry="3.06081" fill="#F51842"/>
<ellipse cx="164.764" cy="66.6082" rx="11.223" ry="7.14189" fill="#621423"/>
<ellipse cx="164.763" cy="66.6082" rx="5.10135" ry="3.06081" fill="#F51842"/>
<ellipse cx="50.4932" cy="84.9729" rx="11.223" ry="7.14189" fill="#621423"/>
<ellipse cx="50.4932" cy="84.9729" rx="5.10135" ry="3.06081" fill="#F51842"/>
</svg>
