<svg width="343" height="201" viewBox="0 0 343 201" fill="none" xmlns="http://www.w3.org/2000/svg">
<path d="M115.61 36.1374C132.67 26.3291 150.803 15.9035 171.871 3.79004L285.125 69.2863M115.61 36.1374L285.158 134.277M115.61 36.1374C96.4398 47.1593 78.6252 57.4018 59.5238 68.3841M285.158 134.277L341.232 101.733L285.125 69.2863M285.158 134.277L228.498 167.161M59.5238 68.3841C42.0282 78.4432 23.453 89.123 1.76782 101.591L58.2809 134.307M59.5238 68.3841L228.498 167.161M228.498 167.161L171.838 200.045L115.059 167.176M58.2809 134.307L227.118 36.7672M58.2809 134.307L115.059 167.176M285.125 69.2863L115.059 167.176" stroke="#F51842" stroke-dasharray="1 1"/>
<path d="M226.111 28.2423L249.94 15.0121L226.111 0.955078L201.43 15.0121L226.111 28.2423Z" fill="#FF728C"/>
<path d="M249.94 41.8882V15.0112L226.111 28.2414V55.5286L249.94 41.8882Z" fill="#CA324F"/>
<path d="M201.43 40.6446V15.0112L226.111 28.2414V55.5286L201.43 40.6446Z" fill="#D6193D"/>
<path d="M63.1159 57.9893L86.9457 44.7592L63.1159 30.7021L38.4351 44.7592L63.1159 57.9893Z" fill="#E7E5E3"/>
<path d="M86.9457 71.6353V44.7583L63.116 57.9884V85.2756L86.9457 71.6353Z" fill="#C1BDB9"/>
<path d="M38.4351 70.3917V44.7583L63.1159 57.9884V85.2756L38.4351 70.3917Z" fill="#D6D2CD"/>
<path d="M111.626 159.132L135.456 145.902L111.626 131.845L86.9456 145.902L111.626 159.132Z" fill="#84D6D7"/>
<path d="M135.456 172.778V145.901L111.626 159.132V186.419L135.456 172.778Z" fill="#35999A"/>
<path d="M86.9456 171.535V145.901L111.626 159.132V186.419L86.9456 171.535Z" fill="#56ADAE"/>
<path d="M228.459 161.112L252.289 147.882L228.459 133.825L203.778 147.882L228.459 161.112Z" fill="#FF728C"/>
<path d="M252.289 174.758V147.881L228.459 161.111V188.399L252.289 174.758Z" fill="#CA324F"/>
<path d="M203.778 173.515V147.881L228.459 161.111V188.399L203.778 173.515Z" fill="#D6193D"/>
</svg>
