<svg width="191" height="240" viewBox="0 0 191 240" fill="none" xmlns="http://www.w3.org/2000/svg">
<path d="M121.777 61.3829L124.809 66.4361M124.809 66.4361L117.734 65.4255M124.809 66.4361L95.5 48.2446" stroke="#F51842" stroke-width="1.01064"/>
<path d="M58.2907 49.7145L64.1644 49.2381M64.1644 49.2381L60.1211 55.1306M64.1644 49.2381L34.8617 67.439" stroke="#F51842" stroke-width="1.01064"/>
<path d="M61.476 94.9288L64.0611 100.225M64.0611 100.225L57.1001 98.6079M64.0611 100.225L35.8723 81.5957" stroke="#F51842" stroke-width="1.01064"/>
<path d="M138.664 200.035L141.249 205.331M141.249 205.331L134.288 203.714M141.249 205.331L113.061 186.702" stroke="#F51842" stroke-width="1.01064"/>
<path d="M74.3642 157.288L76.7306 162.685M76.7306 162.685L69.8415 160.785M76.7306 162.685L46.9894 144.255L77.3085 127.074" stroke="#F51842" stroke-width="1.01064"/>
<path d="M166.67 211.968L190.5 198.738L166.67 184.681L141.989 198.738L166.67 211.968Z" fill="#FF728C"/>
<path d="M190.5 225.614V198.737L166.67 211.967V239.254L190.5 225.614Z" fill="#CA324F"/>
<path d="M141.989 224.37V198.737L166.67 211.967V239.254L141.989 224.37Z" fill="#D6193D"/>
<path d="M99.9681 167.5L123.798 154.27L99.9681 140.213L75.2872 154.27L99.9681 167.5Z" fill="#84D6D7"/>
<path d="M123.798 181.146V154.269L99.9681 167.499V194.786L123.798 181.146Z" fill="#35999A"/>
<path d="M75.2872 179.902V154.269L99.9681 167.499V194.786L75.2872 179.902Z" fill="#56ADAE"/>
<path d="M89.8617 108.883L113.692 95.6527L89.8617 81.5957L65.1809 95.6527L89.8617 108.883Z" fill="#FF728C"/>
<path d="M113.692 122.529V95.6519L89.8618 108.882V136.169L113.692 122.529Z" fill="#CA324F"/>
<path d="M65.1809 121.285V95.6519L89.8617 108.882V136.169L65.1809 121.285Z" fill="#D6193D"/>
<path d="M148.479 74.5211L172.308 61.2909L148.479 47.2339L123.798 61.2909L148.479 74.5211Z" fill="#E7E5E3"/>
<path d="M172.309 88.167V61.29L148.479 74.5202V101.807L172.309 88.167Z" fill="#C1BDB9"/>
<path d="M123.798 86.9235V61.29L148.479 74.5202V101.807L123.798 86.9235Z" fill="#D6D2CD"/>
<path d="M83.7979 28.0318L107.628 14.8017L83.7979 0.744629L59.1171 14.8017L83.7979 28.0318Z" fill="#FF728C"/>
<path d="M107.628 41.6777V14.8008L83.798 28.0309V55.3181L107.628 41.6777Z" fill="#CA324F"/>
<path d="M59.1171 40.4342V14.8008L83.7979 28.0309V55.3181L59.1171 40.4342Z" fill="#D6193D"/>
<path d="M25.1808 62.3936L49.0106 49.1635L25.1808 35.1064L0.5 49.1635L25.1808 62.3936Z" fill="#E7E5E3"/>
<path d="M49.0107 76.0396V49.1626L25.1809 62.3927V89.6799L49.0107 76.0396Z" fill="#C1BDB9"/>
<path d="M0.5 74.796V49.1626L25.1808 62.3927V89.6799L0.5 74.796Z" fill="#D6D2CD"/>
</svg>
