<svg width="59" height="59" viewBox="0 0 59 59" fill="none" xmlns="http://www.w3.org/2000/svg">
<g clip-path="url(#clip0_181_817)">
<g clip-path="url(#clip1_181_817)">
<path d="M36.8365 18.092H21.6093C19.5192 18.092 17.8248 19.7864 17.8248 21.8766V36.5338C17.8248 38.6239 19.5192 40.3183 21.6093 40.3183H36.8365C38.9266 40.3183 40.621 38.6239 40.621 36.5338V21.8766C40.621 19.7864 38.9266 18.092 36.8365 18.092Z" fill="#330000"/>
<path d="M28.8715 31.4306H25.339L24.6202 33.6633C24.6104 33.704 24.5867 33.74 24.5532 33.7651C24.5197 33.7903 24.4785 33.8029 24.4367 33.8009H22.6474C22.5455 33.8009 22.5098 33.7448 22.5404 33.6326L25.5989 24.8242C25.6295 24.7325 25.6601 24.6281 25.6906 24.5108C25.7307 24.3067 25.7512 24.0994 25.7518 23.8915C25.7497 23.8769 25.7511 23.8621 25.7557 23.8481C25.7603 23.8342 25.7682 23.8215 25.7785 23.8111C25.7889 23.8007 25.8016 23.7929 25.8155 23.7883C25.8295 23.7836 25.8443 23.7823 25.8588 23.7843H28.2904C28.3616 23.7843 28.4024 23.8099 28.4127 23.8609L31.8841 33.6479C31.9147 33.75 31.8841 33.801 31.7923 33.8009H29.8043C29.7701 33.8047 29.7358 33.7959 29.7076 33.7762C29.6795 33.7565 29.6595 33.7273 29.6514 33.6939L28.8715 31.4306V31.4306ZM25.8895 29.5038H28.3057L28.2712 29.39L28.2159 29.21L28.1765 29.0835L28.1135 28.8844L27.9797 28.4653L27.862 28.0937L27.5563 27.1257C27.4802 26.8851 27.4072 26.6436 27.3372 26.4011L27.2813 26.2043L27.2159 25.9716L27.1162 25.611L27.0975 25.543H27.0823C27.0057 25.9101 26.9126 26.2735 26.803 26.6321L26.5761 27.3619L26.4513 27.7651L26.3253 28.1733C26.3025 28.247 26.2799 28.32 26.2571 28.392L26.1895 28.6055L26.1222 28.8141L26.0552 29.0175L25.9886 29.2158C25.9665 29.2811 25.9444 29.3454 25.9224 29.409L25.8895 29.5038V29.5038ZM33.9484 25.4053C33.7924 25.4116 33.6369 25.3849 33.4919 25.3269C33.347 25.2689 33.2159 25.181 33.1073 25.0689C32.999 24.952 32.9148 24.8147 32.8597 24.6651C32.8046 24.5155 32.7796 24.3565 32.7861 24.1972C32.7806 24.0395 32.8083 23.8825 32.8676 23.7362C32.9269 23.59 33.0164 23.4579 33.1302 23.3486C33.3497 23.1379 33.642 23.02 33.9463 23.0194L33.9789 23.0198C34.346 23.0198 34.634 23.1293 34.843 23.3485C34.9485 23.4624 35.0305 23.596 35.0843 23.7417C35.1381 23.8873 35.1626 24.0421 35.1565 24.1972C35.1629 24.3572 35.1371 24.5168 35.0806 24.6665C35.0241 24.8163 34.9381 24.9531 34.8277 25.069C34.7162 25.1789 34.5839 25.2654 34.4385 25.3233C34.2931 25.3813 34.1375 25.4096 33.981 25.4065L33.9484 25.4053V25.4053ZM32.8931 33.6479V26.3382C32.8931 26.2465 32.9338 26.2005 33.0155 26.2005H34.8965C34.978 26.2005 35.0188 26.2464 35.0189 26.3382V33.6479C35.0189 33.75 34.9781 33.801 34.8965 33.8009H33.0308C32.9439 33.8009 32.8981 33.7552 32.8936 33.6636L32.8931 33.6479Z" fill="#FF9A00"/>
</g>
<g style="mix-blend-mode:color-dodge">
<path d="M49.2085 9.23984C60.243 20.2743 60.243 38.1647 49.2085 49.1991C38.1741 60.2336 20.2837 60.2336 9.24924 49.1991C-1.78522 38.1647 -1.78522 20.2743 9.24923 9.23984C20.2837 -1.79461 38.1741 -1.79461 49.2085 9.23984Z" stroke="url(#paint0_radial_181_817)" stroke-width="1.91563" style="mix-blend-mode:screen"/>
</g>
<g style="mix-blend-mode:color-dodge">
<path d="M49.2085 9.23984C60.243 20.2743 60.243 38.1647 49.2085 49.1991C38.1741 60.2336 20.2837 60.2336 9.24924 49.1991C-1.78522 38.1647 -1.78522 20.2743 9.24923 9.23984C20.2837 -1.79461 38.1741 -1.79461 49.2085 9.23984Z" stroke="url(#paint1_radial_181_817)" stroke-width="1.91563" style="mix-blend-mode:screen"/>
</g>
<g style="mix-blend-mode:color-dodge">
<path d="M57.4878 29.2325C57.4878 44.8375 44.8374 57.4879 29.2323 57.4879C13.6273 57.4879 0.976856 44.8375 0.976856 29.2325C0.976856 13.6274 13.6273 0.976978 29.2323 0.976978C44.8374 0.976978 57.4878 13.6274 57.4878 29.2325Z" stroke="url(#paint2_radial_181_817)" stroke-width="1.91563" style="mix-blend-mode:screen"/>
</g>
<g style="mix-blend-mode:color-dodge">
<path d="M49.8858 49.8764C61.2943 38.4679 61.2943 19.9711 49.8858 8.56257C38.4773 -2.84594 19.9805 -2.84594 8.57196 8.56256C-2.83654 19.9711 -2.83654 38.4679 8.57196 49.8764C19.9805 61.2849 38.4773 61.2849 49.8858 49.8764Z" fill="url(#paint3_radial_181_817)" style="mix-blend-mode:screen"/>
</g>
<g style="mix-blend-mode:color-dodge">
<path d="M3.5344 40.9232L3.53414 40.9227C0.429773 34.1162 0.153397 26.3559 2.76569 19.3458C5.37798 12.3357 10.6654 6.64871 17.467 3.53362L17.0682 2.66279L17.4676 3.53335C22.5501 1.20157 28.2102 0.430301 33.7313 1.31718C39.2524 2.20406 44.3862 4.7092 48.4828 8.51546C52.5793 12.3217 55.4543 17.2579 56.7439 22.6991C58.0334 28.1402 57.6795 33.8416 55.7268 39.0815C53.7742 44.3214 50.3107 48.8641 45.7749 52.1345C41.239 55.4048 35.8348 57.2557 30.2464 57.4529C24.658 57.6501 19.1367 56.1847 14.3817 53.2422C9.62657 50.2997 5.8515 46.0125 3.5344 40.9232Z" stroke="url(#paint4_radial_181_817)" stroke-width="1.91563" style="mix-blend-mode:screen"/>
</g>
<g style="mix-blend-mode:overlay" opacity="0.52">
<path d="M49.2085 9.23984C60.243 20.2743 60.243 38.1647 49.2085 49.1991C38.1741 60.2336 20.2837 60.2336 9.24924 49.1991C-1.78522 38.1647 -1.78522 20.2743 9.24923 9.23984C20.2837 -1.79461 38.1741 -1.79461 49.2085 9.23984Z" fill="url(#paint5_linear_181_817)" style="mix-blend-mode:multiply"/>
<path d="M49.2085 9.23984C60.243 20.2743 60.243 38.1647 49.2085 49.1991C38.1741 60.2336 20.2837 60.2336 9.24924 49.1991C-1.78522 38.1647 -1.78522 20.2743 9.24923 9.23984C20.2837 -1.79461 38.1741 -1.79461 49.2085 9.23984Z" stroke="url(#paint6_linear_181_817)" stroke-width="1.91563" style="mix-blend-mode:multiply"/>
</g>
<g style="mix-blend-mode:color-dodge" opacity="0.2">
<path d="M6.28326 30.7843L18.5241 31.9528C18.8927 34.7331 20.0423 37.3517 21.8394 39.5048C23.6365 41.658 26.0074 43.2573 28.6769 44.1171C27.4968 46.9035 26.9034 49.9031 26.9337 52.9289C26.9337 52.9289 9.61645 51.4922 6.28326 30.7843Z" fill="url(#paint7_radial_181_817)" style="mix-blend-mode:screen"/>
</g>
<g style="mix-blend-mode:color-dodge" opacity="0.2">
<path d="M31.8516 1.97913L33.3566 14.1832C36.146 14.4751 38.7953 15.5522 40.997 17.2894C43.1988 19.0265 44.8628 21.3525 45.7957 23.9973C48.5486 22.741 51.5307 22.0652 54.5563 22.0122C54.5563 22.0122 52.6434 4.74108 31.8516 1.97913Z" fill="url(#paint8_radial_181_817)" style="mix-blend-mode:screen"/>
</g>
<path style="mix-blend-mode:screen" d="M23.1984 14.808C23.0879 16.2554 22.5504 17.6376 21.654 18.7794C20.7577 19.9213 19.5427 20.7717 18.1629 21.2228C16.7831 21.6739 15.3005 21.7056 13.9027 21.3138C12.5049 20.922 11.2547 20.1243 10.3104 19.0217C9.36611 17.9192 8.77012 16.5612 8.59786 15.1198C8.4256 13.6784 8.68482 12.2183 9.34271 10.9242C10.0006 9.63016 11.0276 8.56036 12.2937 7.8502C13.5598 7.14005 15.0082 6.82145 16.4554 6.93473C18.3929 7.08639 20.1911 8.0006 21.4553 9.47669C22.7195 10.9528 23.3464 12.8701 23.1984 14.808V14.808Z" fill="url(#paint9_radial_181_817)"/>
<path style="mix-blend-mode:screen" d="M46.4155 45.343C46.3447 46.2416 46.0091 47.099 45.4511 47.8069C44.8932 48.5148 44.1379 49.0415 43.2808 49.3203C42.4236 49.5991 41.503 49.6176 40.6354 49.3735C39.7677 49.1293 38.9919 48.6334 38.406 47.9485C37.82 47.2635 37.4502 46.4203 37.3434 45.5253C37.2365 44.6303 37.3973 43.7237 37.8055 42.92C38.2137 42.1164 38.851 41.4518 39.6368 41.0102C40.4225 40.5686 41.3216 40.3698 42.2203 40.439C42.818 40.485 43.4007 40.6484 43.9351 40.9198C44.4695 41.1913 44.9452 41.5655 45.3349 42.021C45.7245 42.4765 46.0206 43.0044 46.206 43.5744C46.3914 44.1444 46.4626 44.7454 46.4155 45.343Z" fill="url(#paint10_radial_181_817)"/>
</g>
<defs>
<radialGradient id="paint0_radial_181_817" cx="0" cy="0" r="1" gradientUnits="userSpaceOnUse" gradientTransform="translate(12.9201 6.1379) scale(37.7187)">
<stop offset="0.3" stop-color="#FFE496"/>
<stop offset="0.34" stop-color="#EBD28A"/>
<stop offset="0.48" stop-color="#A49361"/>
<stop offset="0.62" stop-color="#6A5F3E"/>
<stop offset="0.74" stop-color="#3C3623"/>
<stop offset="0.85" stop-color="#1B1810"/>
<stop offset="0.94" stop-color="#070604"/>
<stop offset="1"/>
</radialGradient>
<radialGradient id="paint1_radial_181_817" cx="0" cy="0" r="1" gradientUnits="userSpaceOnUse" gradientTransform="translate(45.5229 52.2949) rotate(-180) scale(14.8269)">
<stop stop-color="white"/>
<stop offset="0.06" stop-color="#EBEBEB"/>
<stop offset="0.26" stop-color="#A4A4A4"/>
<stop offset="0.45" stop-color="#6A6A6A"/>
<stop offset="0.63" stop-color="#3C3C3C"/>
<stop offset="0.78" stop-color="#1B1B1B"/>
<stop offset="0.91" stop-color="#070707"/>
<stop offset="1"/>
</radialGradient>
<radialGradient id="paint2_radial_181_817" cx="0" cy="0" r="1" gradientUnits="userSpaceOnUse" gradientTransform="translate(39.6798 12.6268) rotate(72.48) scale(18.6199)">
<stop stop-color="white"/>
<stop offset="0.02" stop-color="#FFF7D3"/>
<stop offset="0.04" stop-color="#FFEFA9"/>
<stop offset="0.06" stop-color="#FFEA8B"/>
<stop offset="0.08" stop-color="#FFE679"/>
<stop offset="0.09" stop-color="#FFE572"/>
<stop offset="0.13" stop-color="#E3CC65"/>
<stop offset="0.22" stop-color="#A7964B"/>
<stop offset="0.32" stop-color="#746834"/>
<stop offset="0.41" stop-color="#4B4321"/>
<stop offset="0.49" stop-color="#2A2613"/>
<stop offset="0.58" stop-color="#131108"/>
<stop offset="0.66" stop-color="#050402"/>
<stop offset="0.73"/>
</radialGradient>
<radialGradient id="paint3_radial_181_817" cx="0" cy="0" r="1" gradientUnits="userSpaceOnUse" gradientTransform="translate(9.58695 7.44052) scale(18.6199)">
<stop stop-color="white"/>
<stop offset="0.02" stop-color="#F6F6F6"/>
<stop offset="0.15" stop-color="#ACACAC"/>
<stop offset="0.27" stop-color="#6F6F6F"/>
<stop offset="0.39" stop-color="#3F3F3F"/>
<stop offset="0.49" stop-color="#1D1D1D"/>
<stop offset="0.57" stop-color="#080808"/>
<stop offset="0.62"/>
</radialGradient>
<radialGradient id="paint4_radial_181_817" cx="0" cy="0" r="1" gradientUnits="userSpaceOnUse" gradientTransform="translate(15.9594 45.4322) rotate(65.2249) scale(16.0122)">
<stop stop-color="white"/>
<stop offset="0.03" stop-color="#FFF7FF"/>
<stop offset="0.07" stop-color="#FFF3FF"/>
<stop offset="0.1" stop-color="#EFE4EF"/>
<stop offset="0.2" stop-color="#B8AFB8"/>
<stop offset="0.31" stop-color="#878087"/>
<stop offset="0.42" stop-color="#5D595D"/>
<stop offset="0.53" stop-color="#3C393C"/>
<stop offset="0.64" stop-color="#212021"/>
<stop offset="0.75" stop-color="#0F0E0F"/>
<stop offset="0.87" stop-color="#040304"/>
<stop offset="1"/>
</radialGradient>
<linearGradient id="paint5_linear_181_817" x1="14.6059" y1="54.5266" x2="43.8192" y2="3.89663" gradientUnits="userSpaceOnUse">
<stop stop-color="#E8ABFF"/>
<stop offset="0.03" stop-color="#EBB4FF"/>
<stop offset="0.16" stop-color="#F3D5FF"/>
<stop offset="0.28" stop-color="#FAECFF"/>
<stop offset="0.4" stop-color="#FEFAFF"/>
<stop offset="0.5" stop-color="white"/>
<stop offset="1" stop-color="white"/>
</linearGradient>
<linearGradient id="paint6_linear_181_817" x1="14.6059" y1="54.5266" x2="43.8192" y2="3.89663" gradientUnits="userSpaceOnUse">
<stop stop-color="#E8ABFF"/>
<stop offset="0.03" stop-color="#EBB4FF"/>
<stop offset="0.16" stop-color="#F3D5FF"/>
<stop offset="0.28" stop-color="#FAECFF"/>
<stop offset="0.4" stop-color="#FEFAFF"/>
<stop offset="0.5" stop-color="white"/>
<stop offset="1" stop-color="white"/>
</linearGradient>
<radialGradient id="paint7_radial_181_817" cx="0" cy="0" r="1" gradientUnits="userSpaceOnUse" gradientTransform="translate(11.0236 45.2416) rotate(176.21) scale(15.1335 15.1334)">
<stop stop-color="white"/>
<stop offset="0.09" stop-color="#EEEEEE"/>
<stop offset="0.26" stop-color="#C0C0C0"/>
<stop offset="0.5" stop-color="#767676"/>
<stop offset="0.8" stop-color="#121212"/>
<stop offset="0.85"/>
</radialGradient>
<radialGradient id="paint8_radial_181_817" cx="0" cy="0" r="1" gradientUnits="userSpaceOnUse" gradientTransform="translate(46.4339 6.31971) rotate(-87.7872) scale(15.1334 15.1334)">
<stop stop-color="white"/>
<stop offset="0.09" stop-color="#EEEEEE"/>
<stop offset="0.26" stop-color="#C0C0C0"/>
<stop offset="0.5" stop-color="#767676"/>
<stop offset="0.8" stop-color="#121212"/>
<stop offset="0.85"/>
</radialGradient>
<radialGradient id="paint9_radial_181_817" cx="0" cy="0" r="1" gradientUnits="userSpaceOnUse" gradientTransform="translate(15.9087 14.226) rotate(4.45) scale(7.31769 7.31769)">
<stop offset="0.25" stop-color="white"/>
<stop offset="0.26" stop-color="#FAFAFA"/>
<stop offset="0.3" stop-color="#C6C6C6"/>
<stop offset="0.35" stop-color="#979797"/>
<stop offset="0.41" stop-color="#6F6F6F"/>
<stop offset="0.46" stop-color="#4C4C4C"/>
<stop offset="0.52" stop-color="#303030"/>
<stop offset="0.58" stop-color="#1B1B1B"/>
<stop offset="0.65" stop-color="#0C0C0C"/>
<stop offset="0.73" stop-color="#030303"/>
<stop offset="0.85"/>
</radialGradient>
<radialGradient id="paint10_radial_181_817" cx="0" cy="0" r="1" gradientUnits="userSpaceOnUse" gradientTransform="translate(41.8758 44.972) rotate(4.45) scale(4.55919 4.55919)">
<stop offset="0.14" stop-color="white"/>
<stop offset="0.16" stop-color="#E8E8E8"/>
<stop offset="0.21" stop-color="#B8B8B8"/>
<stop offset="0.26" stop-color="#8C8C8C"/>
<stop offset="0.31" stop-color="#666666"/>
<stop offset="0.37" stop-color="#464646"/>
<stop offset="0.44" stop-color="#2D2D2D"/>
<stop offset="0.5" stop-color="#191919"/>
<stop offset="0.58" stop-color="#0B0B0B"/>
<stop offset="0.68" stop-color="#020202"/>
<stop offset="0.85"/>
</radialGradient>
<clipPath id="clip0_181_817">
<rect width="58.4458" height="58.4458" fill="white"/>
</clipPath>
<clipPath id="clip1_181_817">
<rect width="22.7962" height="22.2619" fill="white" transform="translate(17.8248 18.092)"/>
</clipPath>
</defs>
</svg>
