<svg width="24" height="25" viewBox="0 0 24 25" fill="none" xmlns="http://www.w3.org/2000/svg">
<path d="M15.78 16.3466C15.78 16.3466 18.64 13.5066 19.61 12.5066C22.68 9.50656 21.15 3.32657 21.15 3.32657C21.15 3.32657 15 1.79657 12 4.86657C9.66 7.14657 8.14 8.72657 8.14 8.72657C8.14 8.72657 4.3 7.92657 2 10.2266L14.25 22.5066C16.55 20.1766 15.78 16.3466 15.78 16.3466ZM14.28 7.34657C14.4657 7.16061 14.6863 7.01309 14.9291 6.91245C15.1719 6.8118 15.4322 6.75999 15.695 6.75999C15.9578 6.75999 16.2181 6.8118 16.4609 6.91245C16.7037 7.01309 16.9243 7.16061 17.11 7.34657C17.3895 7.62636 17.5797 7.98273 17.6567 8.37063C17.7337 8.75853 17.694 9.16055 17.5425 9.52587C17.3911 9.89119 17.1348 10.2034 16.8059 10.4231C16.4771 10.6427 16.0905 10.76 15.695 10.76C15.2995 10.76 14.9129 10.6427 14.5841 10.4231C14.2552 10.2034 13.9989 9.89119 13.8475 9.52587C13.696 9.16055 13.6563 8.75853 13.7333 8.37063C13.8103 7.98273 14.0005 7.62636 14.28 7.34657ZM3 21.5066C4.85107 21.4538 6.62315 20.7449 8 19.5066L5 16.5066C3 17.5066 3 21.5066 3 21.5066Z" fill="white"/>
</svg>
