<svg width="122" height="122" viewBox="0 0 122 122" fill="none" xmlns="http://www.w3.org/2000/svg">
<path d="M47.6563 22.875V41.9375C47.6563 42.4431 47.8571 42.928 48.2146 43.2854C48.5721 43.6429 49.0569 43.8438 49.5625 43.8438H72.4375C72.9431 43.8438 73.4279 43.6429 73.7854 43.2854C74.1429 42.928 74.3438 42.4431 74.3438 41.9375V22.875C74.3438 21.3583 73.7413 19.9037 72.6688 18.8312C71.5963 17.7588 70.1417 17.1563 68.625 17.1563H66.3261C67.7223 16.0504 68.7396 14.5374 69.2369 12.8271C69.7343 11.1169 69.6869 9.29427 69.1015 7.61216C68.516 5.93005 67.4215 4.47189 65.9697 3.44003C64.518 2.40816 62.7811 1.85376 61 1.85376C59.2189 1.85376 57.482 2.40816 56.0303 3.44003C54.5786 4.47189 53.484 5.93005 52.8986 7.61216C52.3131 9.29427 52.2658 11.1169 52.7631 12.8271C53.2604 14.5374 54.2778 16.0504 55.674 17.1563H53.375C51.8583 17.1563 50.4037 17.7588 49.3312 18.8312C48.2588 19.9037 47.6563 21.3583 47.6563 22.875ZM61 5.71876C61.9426 5.71876 62.864 5.99826 63.6477 6.52192C64.4314 7.04557 65.0422 7.78986 65.4029 8.66066C65.7636 9.53147 65.858 10.4897 65.6741 11.4141C65.4902 12.3386 65.0363 13.1877 64.3698 13.8542C63.7033 14.5207 62.8542 14.9746 61.9297 15.1584C61.0053 15.3423 60.0471 15.248 59.1763 14.8873C58.3055 14.5266 57.5612 13.9157 57.0375 13.132C56.5139 12.3483 56.2344 11.4269 56.2344 10.4844C56.2344 9.22047 56.7365 8.00831 57.6302 7.11458C58.5239 6.22086 59.7361 5.71876 61 5.71876ZM68.625 20.9688C69.1306 20.9688 69.6154 21.1696 69.9729 21.5271C70.3304 21.8846 70.5313 22.3694 70.5313 22.875V40.0313H51.4688V22.875C51.4688 22.3694 51.6696 21.8846 52.0271 21.5271C52.3846 21.1696 52.8694 20.9688 53.375 20.9688H68.625ZM78.0419 76.4406C77.9246 76.0011 77.7189 75.5902 77.4374 75.2329C77.1558 74.8756 76.8044 74.5796 76.4044 74.3628L75.7773 74.014C75.8993 72.9678 75.8993 71.911 75.7773 70.8649L76.4025 70.5179C76.8028 70.3009 77.1546 70.0045 77.4365 69.647C77.7183 69.2894 77.9243 68.8781 78.0419 68.4382C78.1593 68.0063 78.1874 67.555 78.1244 67.1119C78.0615 66.6687 77.9089 66.2431 77.6759 65.861L75.2206 61.7968C74.7493 61.0374 74.0049 60.4874 73.1405 60.2598C72.2762 60.0322 71.3575 60.1442 70.5732 60.573L69.8565 60.9695C68.9349 60.3086 67.9418 59.7536 66.896 59.3149V58.6534C66.886 57.7506 66.5183 56.8886 65.8737 56.2565C65.229 55.6243 64.36 55.2736 63.4572 55.2813H58.5429C57.6413 55.2757 56.7743 55.6273 56.1313 56.2592C55.4883 56.8911 55.1217 57.7519 55.1116 58.6534V59.3149C54.066 59.7539 53.073 60.3089 52.1512 60.9695L51.4364 60.5768C50.6532 60.1464 49.7348 60.0326 48.8703 60.2589C48.0058 60.4851 47.2609 61.0342 46.7889 61.793L44.3299 65.8629C44.0975 66.2446 43.9454 66.6696 43.8828 67.1121C43.8202 67.5545 43.8484 68.0051 43.9658 68.4363C44.083 68.8758 44.2887 69.2868 44.5703 69.644C44.8518 70.0013 45.2033 70.2974 45.6032 70.5141L46.2304 70.863C46.1084 71.9091 46.1084 72.9659 46.2304 74.0121L45.6051 74.359C45.2049 74.576 44.853 74.8724 44.5712 75.23C44.2893 75.5875 44.0833 75.9988 43.9658 76.4387C43.8484 76.8706 43.8203 77.3219 43.8832 77.7651C43.9461 78.2082 44.0988 78.6338 44.3318 79.016L46.787 83.0782C47.2587 83.8373 48.0031 84.387 48.8673 84.6146C49.7315 84.8422 50.6501 84.7303 51.4345 84.302L52.1512 83.9055C53.0728 84.5664 54.0658 85.1215 55.1116 85.5601V86.2216C55.1217 87.1231 55.4883 87.9839 56.1313 88.6158C56.7743 89.2478 57.6413 89.5994 58.5429 89.5938H63.4572C64.3587 89.5994 65.2257 89.2478 65.8687 88.6158C66.5117 87.9839 66.8784 87.1231 66.8884 86.2216V85.5601C67.934 85.1211 68.9271 84.5661 69.8488 83.9055L70.5637 84.2982C71.3467 84.7291 72.2653 84.8431 73.1299 84.6168C73.9946 84.3906 74.7395 83.8412 75.2111 83.082L77.6702 79.0122C77.9036 78.6313 78.0569 78.2068 78.1208 77.7647C78.1847 77.3226 78.1579 76.872 78.0419 76.4406ZM72.0563 72.4375C72.0566 72.9083 72.0222 73.3786 71.9533 73.8443C71.8673 74.5124 71.9851 75.1909 72.2912 75.7909C72.5973 76.3909 73.0775 76.8845 73.669 77.207L74.1474 77.4738L72.1325 80.8098L71.5092 80.4647C70.9155 80.1483 70.2444 80.0064 69.5735 80.0553C68.9026 80.1042 68.2591 80.342 67.7176 80.7411C66.9633 81.2961 66.1415 81.7528 65.2719 82.1003C64.6333 82.3435 64.0826 82.7731 63.6913 83.3333C63.3 83.8935 63.0863 84.5585 63.0778 85.2418V85.7813H58.9165V85.2418C58.9082 84.5587 58.6945 83.8939 58.3032 83.334C57.9118 82.774 57.361 82.3448 56.7224 82.1022C55.8519 81.7526 55.0289 81.2947 54.2729 80.7392C53.7306 80.3407 53.0867 80.1037 52.4155 80.0555C51.7443 80.0072 51.0731 80.1498 50.4794 80.4666L49.8618 80.8098L47.8469 77.4738L48.3235 77.2089C48.916 76.8857 49.397 76.3909 49.7032 75.7894C50.0094 75.1879 50.1265 74.5079 50.0391 73.8386C49.9735 73.3745 49.9416 72.9062 49.9438 72.4375C49.9434 71.9667 49.9778 71.4965 50.0467 71.0307C50.1327 70.3626 50.015 69.6841 49.7088 69.0841C49.4027 68.4841 48.9225 67.9905 48.3311 67.6681L47.8526 67.4012L49.8675 64.0653L50.4909 64.4103C51.0847 64.7262 51.7557 64.8679 52.4265 64.819C53.0973 64.7701 53.7407 64.5326 54.2824 64.1339C55.0367 63.5789 55.8585 63.1222 56.7281 62.7747C57.3667 62.5316 57.9175 62.102 58.3088 61.5417C58.7 60.9815 58.9138 60.3165 58.9222 59.6332V59.0938H63.0893V59.6332C63.0976 60.3163 63.3113 60.9811 63.7026 61.5411C64.0939 62.101 64.6447 62.5302 65.2834 62.7728C66.1539 63.1224 66.9769 63.5804 67.7329 64.1358C68.2746 64.5356 68.9186 64.7734 69.5901 64.8216C70.2616 64.8699 70.933 64.7266 71.5263 64.4084L72.144 64.0653L74.1589 67.4012L73.6823 67.6662C73.0897 67.9893 72.6088 68.4841 72.3026 69.0856C71.9964 69.6871 71.8793 70.3672 71.9667 71.0364C72.0303 71.5007 72.0603 71.9689 72.0563 72.4375Z" fill="#35FF7A"/>
<path d="M61 65.7657C59.6804 65.7657 58.3905 66.157 57.2933 66.8901C56.1961 67.6232 55.341 68.6652 54.836 69.8844C54.331 71.1035 54.1989 72.445 54.4563 73.7392C54.7138 75.0334 55.3492 76.2222 56.2823 77.1553C57.2153 78.0884 58.4042 78.7238 59.6984 78.9813C60.9926 79.2387 62.3341 79.1066 63.5532 78.6016C64.7723 78.0966 65.8144 77.2415 66.5475 76.1443C67.2806 75.0471 67.6719 73.7572 67.6719 72.4376C67.6719 70.6681 66.9689 68.9711 65.7177 67.7199C64.4665 66.4686 62.7695 65.7657 61 65.7657ZM61 75.297C60.4345 75.297 59.8816 75.1293 59.4114 74.8151C58.9412 74.5009 58.5747 74.0543 58.3583 73.5318C58.1419 73.0093 58.0852 72.4344 58.1956 71.8797C58.3059 71.3251 58.5782 70.8156 58.9781 70.4157C59.378 70.0158 59.8875 69.7435 60.4422 69.6332C60.9968 69.5228 61.5718 69.5795 62.0942 69.7959C62.6167 70.0123 63.0633 70.3788 63.3775 70.849C63.6917 71.3192 63.8594 71.8721 63.8594 72.4376C63.8594 73.1959 63.5581 73.9232 63.0219 74.4595C62.4856 74.9957 61.7584 75.297 61 75.297ZM23.4755 54.6447L19.9051 53.3103C19.4457 54.5379 19.0396 55.7884 18.6984 57.058L22.3756 58.0587C22.6844 56.915 23.0656 55.7655 23.4755 54.6447ZM79.849 33.3004C80.9108 33.8722 81.9459 34.4861 82.9333 35.1342L85.0302 31.9469C83.9335 31.227 82.8052 30.5566 81.6485 29.9377L79.849 33.3004ZM104.67 72.5501C104.787 71.2557 104.844 69.9347 104.844 68.6251V68.4478L101.031 68.6251C101.031 69.8222 100.978 71.0308 100.873 72.2146L104.67 72.5501ZM95.2934 47.9613C95.9072 48.9755 96.4829 50.0372 97.0091 51.1124L100.44 49.4425C99.8684 48.2625 99.2356 47.1035 98.5646 45.9922L95.2934 47.9613ZM76.7628 105.435L78.2668 108.937C79.4722 108.42 80.6529 107.848 81.8048 107.221L79.9958 103.866C78.955 104.434 77.8665 104.96 76.7628 105.435ZM26.575 48.1767L23.3001 46.2305C22.6272 47.359 22.0038 48.518 21.4434 49.6922L24.8747 51.343C25.3912 50.2736 25.9631 49.208 26.575 48.1767ZM98.433 54.4045C98.8543 55.5196 99.2337 56.6672 99.5558 57.8167L103.225 56.7854C102.873 55.5229 102.463 54.2775 101.996 53.0529L98.433 54.4045ZM62.8395 108.614L63.0149 112.427C64.3226 112.365 65.627 112.248 66.9246 112.074L66.4195 108.296C65.2312 108.452 64.0368 108.559 62.8395 108.614ZM30.784 42.3665L27.9075 39.8636C27.0484 40.8535 26.2324 41.88 25.4618 42.9403L28.5499 45.1782C29.2552 44.2041 30.0063 43.2586 30.784 42.3665ZM100.364 61.3108C100.581 62.487 100.745 63.6841 100.856 64.8679L104.653 64.5152C104.531 63.2103 104.351 61.9115 104.114 60.6227L100.364 61.3108ZM40.1113 30.0674C38.9676 30.6888 37.8391 31.3693 36.7449 32.0956L38.857 35.2657C39.8538 34.6026 40.8798 33.9844 41.9318 33.4128L40.1113 30.0674ZM40.2657 107.265C41.4095 107.879 42.599 108.454 43.8171 108.98L45.3116 105.473C44.2084 105.004 43.1271 104.485 42.0709 103.917L40.2657 107.265ZM30.6201 37.0156L33.2603 39.7626C34.1276 38.9314 35.035 38.1346 35.9576 37.395L33.5748 34.4212C32.5645 35.2276 31.5713 36.1026 30.6201 37.0156ZM17.8368 60.8933C17.6075 62.1839 17.4358 63.4839 17.3221 64.7897L21.1193 65.1214C21.225 63.9282 21.3821 62.7402 21.5902 61.5605L17.8368 60.8933ZM17.1562 68.7166C17.1562 70.0128 17.2192 71.332 17.3469 72.6396L21.1441 72.2984C21.027 71.1055 20.9685 69.9076 20.9688 68.709L17.1562 68.7166ZM55.1631 112.088C56.4479 112.261 57.7689 112.375 59.0823 112.433L59.2463 108.62C58.0501 108.57 56.8568 108.465 55.6701 108.306L55.1631 112.088ZM91.052 42.1778C91.8431 43.0775 92.5999 44.0173 93.2995 44.9723L96.3762 42.7192C95.6137 41.6707 94.7787 40.6413 93.9114 39.6577L91.052 42.1778ZM85.8442 37.2349C86.782 37.9802 87.6951 38.7713 88.5548 39.591L91.1836 36.8269C90.2304 35.931 89.2411 35.0636 88.2155 34.2497L85.8442 37.2349ZM69.9479 107.654L70.7981 111.369C72.0758 111.077 73.3397 110.728 74.5858 110.322L73.4097 106.701C72.2736 107.065 71.1031 107.387 69.9479 107.654ZM47.4999 110.351C48.7352 110.751 50.0124 111.102 51.2972 111.392L52.1359 107.671C50.9655 107.408 49.8027 107.099 48.6761 106.718L47.4999 110.351ZM28.5938 93.4063H26.2948C27.691 92.3005 28.7083 90.7875 29.2057 89.0772C29.703 87.367 29.6557 85.5443 29.0702 83.8622C28.4847 82.1801 27.3902 80.722 25.9385 79.6901C24.4867 78.6582 22.7498 78.1038 20.9688 78.1038C19.1877 78.1038 17.4508 78.6582 15.999 79.6901C14.5473 80.722 13.4528 82.1801 12.8673 83.8622C12.2818 85.5443 12.2345 87.367 12.7318 89.0772C13.2292 90.7875 14.2465 92.3005 15.6427 93.4063H13.3438C11.827 93.4063 10.3725 94.0089 9.29998 95.0813C8.22751 96.1538 7.625 97.6084 7.625 99.1251V118.188C7.625 118.693 7.82584 119.178 8.18333 119.536C8.54082 119.893 9.02568 120.094 9.53125 120.094H32.4062C32.9118 120.094 33.3967 119.893 33.7542 119.536C34.1117 119.178 34.3125 118.693 34.3125 118.188V99.1251C34.3125 97.6084 33.71 96.1538 32.6375 95.0813C31.565 94.0089 30.1105 93.4063 28.5938 93.4063ZM20.9688 81.9688C21.9113 81.9688 22.8327 82.2483 23.6164 82.772C24.4001 83.2956 25.0109 84.0399 25.3716 84.9107C25.7323 85.7815 25.8267 86.7397 25.6428 87.6642C25.4589 88.5886 25.005 89.4378 24.3386 90.1043C23.6721 90.7708 22.8229 91.2246 21.8985 91.4085C20.974 91.5924 20.0158 91.498 19.145 91.1373C18.2742 90.7766 17.5299 90.1658 17.0063 89.3821C16.4826 88.5984 16.2031 87.677 16.2031 86.7345C16.2031 85.4705 16.7052 84.2584 17.5989 83.3647C18.4927 82.4709 19.7048 81.9688 20.9688 81.9688ZM30.5 116.281H11.4375V99.1251C11.4375 98.6195 11.6383 98.1347 11.9958 97.7772C12.3533 97.4197 12.8382 97.2188 13.3438 97.2188H28.5938C29.0993 97.2188 29.5842 97.4197 29.9417 97.7772C30.2992 98.1347 30.5 98.6195 30.5 99.1251V116.281ZM108.656 93.4063H106.357C107.753 92.3005 108.771 90.7875 109.268 89.0772C109.766 87.367 109.718 85.5443 109.133 83.8622C108.547 82.1801 107.453 80.722 106.001 79.6901C104.549 78.6582 102.812 78.1038 101.031 78.1038C99.2502 78.1038 97.5133 78.6582 96.0615 79.6901C94.6098 80.722 93.5153 82.1801 92.9298 83.8622C92.3443 85.5443 92.297 87.367 92.7943 89.0772C93.2917 90.7875 94.309 92.3005 95.7052 93.4063H93.4062C91.8895 93.4063 90.435 94.0089 89.3625 95.0813C88.29 96.1538 87.6875 97.6084 87.6875 99.1251V118.188C87.6875 118.693 87.8883 119.178 88.2458 119.536C88.6033 119.893 89.0882 120.094 89.5938 120.094H112.469C112.974 120.094 113.459 119.893 113.817 119.536C114.174 119.178 114.375 118.693 114.375 118.188V99.1251C114.375 97.6084 113.772 96.1538 112.7 95.0813C111.628 94.0089 110.173 93.4063 108.656 93.4063ZM101.031 81.9688C101.974 81.9688 102.895 82.2483 103.679 82.772C104.463 83.2956 105.073 84.0399 105.434 84.9107C105.795 85.7815 105.889 86.7397 105.705 87.6642C105.521 88.5886 105.068 89.4378 104.401 90.1043C103.735 90.7708 102.885 91.2246 101.961 91.4085C101.037 91.5924 100.078 91.498 99.2075 91.1373C98.3367 90.7766 97.5924 90.1658 97.0688 89.3821C96.5451 88.5984 96.2656 87.677 96.2656 86.7345C96.2656 85.4705 96.7677 84.2584 97.6614 83.3647C98.5552 82.4709 99.7673 81.9688 101.031 81.9688ZM110.562 116.281H91.5V99.1251C91.5 98.6195 91.7008 98.1347 92.0583 97.7772C92.4158 97.4197 92.9007 97.2188 93.4062 97.2188H108.656C109.162 97.2188 109.647 97.4197 110.004 97.7772C110.362 98.1347 110.562 98.6195 110.562 99.1251V116.281Z" fill="#35FF7A"/>
</svg>
