<svg width="60" height="68" viewBox="0 0 60 68" fill="none" xmlns="http://www.w3.org/2000/svg">
<path fill-rule="evenodd" clip-rule="evenodd" d="M59.8331 48.9124C59.8336 48.9043 59.8336 48.8962 59.8336 48.8877V19.0631C59.8336 19.0549 59.8336 19.0468 59.8331 19.0383L59.8271 18.8451C59.8263 18.8276 59.8254 18.8101 59.8237 18.7926L59.8045 18.6003C59.8028 18.5832 59.8007 18.5666 59.7981 18.5495L59.7665 18.3589C59.7635 18.3418 59.7605 18.3252 59.7562 18.3081L59.7126 18.1201C59.7088 18.1034 59.7041 18.0867 59.699 18.0705L59.643 17.8855C59.6379 17.8693 59.6327 17.853 59.6263 17.8368L59.5584 17.6561C59.5524 17.6398 59.546 17.624 59.5387 17.6086L59.4593 17.4326C59.452 17.4168 59.4443 17.4014 59.4362 17.386L59.3448 17.2155C59.3371 17.2006 59.3285 17.1856 59.3191 17.1711L59.2174 17.007C59.2085 16.9925 59.1986 16.9784 59.1888 16.9643L59.0764 16.8075C59.0666 16.7934 59.0559 16.7797 59.0448 16.7661L58.9222 16.6169C58.9115 16.6037 58.9 16.5905 58.888 16.5781L58.756 16.4371C58.7445 16.4247 58.7325 16.4127 58.7201 16.4012L58.5791 16.2692C58.5663 16.2572 58.5535 16.2456 58.5398 16.2345L58.3902 16.1119C58.377 16.1012 58.3638 16.091 58.3501 16.0812L58.1933 15.9684C58.1787 15.9581 58.1642 15.9487 58.1497 15.9393L57.9856 15.8372C57.9782 15.8329 57.971 15.8286 57.9638 15.8244L56.8282 15.1689L55.4088 14.3494L54.8414 14.0217L53.422 13.2022L52.8541 12.8745L50.2995 11.3996L47.7449 9.92422L47.177 9.59651L46.8933 9.43287L46.6092 9.26879L43.7708 7.6298L42.3514 6.81072L40.3642 5.66308L40.0805 5.49943L39.7968 5.33579L36.958 3.69679L35.8228 3.04136L35.2549 2.71322L34.9708 2.54958L32.135 0.912286C32.1273 0.907586 32.1201 0.903741 32.1124 0.899896L31.9419 0.808462C31.927 0.800344 31.9112 0.792653 31.8958 0.785389L31.7197 0.705918C31.7039 0.698655 31.6881 0.692244 31.6719 0.686262L31.4911 0.618328C31.4753 0.612346 31.4591 0.606791 31.4424 0.601664L31.2579 0.545693C31.2412 0.540566 31.2245 0.536291 31.2079 0.532018L31.0199 0.488438C31.0032 0.484593 30.9861 0.481173 30.969 0.478183L30.7785 0.446566C30.7618 0.444002 30.7447 0.441866 30.728 0.440157L30.5358 0.420931C30.5183 0.419222 30.5012 0.418366 30.4837 0.417511L30.2905 0.41153C30.2734 0.410675 30.2563 0.410675 30.2388 0.41153L30.0461 0.417511C30.0286 0.418366 30.0115 0.419222 29.994 0.420931L29.8017 0.440157C29.7851 0.441866 29.768 0.444002 29.7513 0.446566L29.5608 0.478183C29.5437 0.481173 29.5266 0.484593 29.5099 0.488438L29.3219 0.532018C29.3052 0.536291 29.2886 0.540566 29.2719 0.545693L29.0873 0.601664C29.0707 0.606791 29.0544 0.612346 29.0386 0.618328L28.8579 0.686262C28.8417 0.692244 28.8258 0.698655 28.81 0.705918L28.634 0.785389C28.6186 0.792653 28.6028 0.800344 28.5879 0.808462L28.4174 0.899896C28.4097 0.903741 28.4024 0.907586 28.3947 0.912286L28.111 1.07593L26.1242 2.22314L25.2723 2.71493L24.9886 2.879L24.7048 3.04264L23.0018 4.02579L22.4339 4.35393L21.8661 4.68164L21.5824 4.84529L21.2982 5.00936L20.163 5.66479L19.8793 5.82886L19.0277 6.32064L16.4727 7.79558L16.189 7.95922L14.2017 9.10643L11.6471 10.5814L10.2277 11.4009L8.52463 12.384L7.10525 13.2035L6.82154 13.3676L6.53783 13.5312L4.2669 14.8425L3.41536 15.3343L2.84752 15.662L2.56596 15.8244C2.55869 15.8286 2.55142 15.8329 2.54416 15.8372L2.38009 15.9393C2.36556 15.9487 2.35104 15.9581 2.33651 15.9684L2.1797 16.0812C2.16603 16.091 2.15279 16.1012 2.13954 16.1119L1.99 16.2345C1.97632 16.2456 1.96351 16.2572 1.95069 16.2692L1.80969 16.4012C1.7973 16.4127 1.78534 16.4247 1.7738 16.4371L1.64177 16.5781C1.62981 16.5905 1.61827 16.6037 1.60759 16.6169L1.48496 16.7661C1.47385 16.7797 1.46318 16.7934 1.45335 16.8075L1.34098 16.9643C1.33115 16.9784 1.32132 16.9925 1.31235 17.007L1.21066 17.1711C1.20126 17.1856 1.19271 17.2006 1.18502 17.2155L1.09358 17.386C1.08547 17.4014 1.07778 17.4168 1.07052 17.4326L0.991044 17.6086C0.98378 17.624 0.977369 17.6398 0.971387 17.6561L0.903453 17.8368C0.897044 17.853 0.891916 17.8693 0.886789 17.8855L0.830818 18.0705C0.825691 18.0867 0.820992 18.1034 0.817147 18.1201L0.773563 18.3081C0.769291 18.3252 0.766299 18.3418 0.763308 18.3589L0.731688 18.5495C0.729124 18.5666 0.726988 18.5832 0.725279 18.6003L0.706053 18.7926C0.704344 18.8101 0.703491 18.8276 0.702637 18.8451L0.696658 19.0383C0.696231 19.0468 0.696228 19.0549 0.696228 19.0631V48.8877C0.696228 48.8962 0.696231 48.9043 0.696658 48.9124L0.702637 49.1056C0.703491 49.1235 0.704344 49.141 0.706053 49.1586L0.725279 49.3508C0.726988 49.3679 0.729124 49.3846 0.731688 49.4012L0.763308 49.5922C0.766299 49.6089 0.769291 49.626 0.773563 49.6426L0.817147 49.8311C0.820992 49.8477 0.825691 49.8644 0.830818 49.8806L0.886789 50.0656C0.891916 50.0819 0.897044 50.0981 0.903453 50.1139L0.971387 50.2951C0.977369 50.3109 0.98378 50.3267 0.991044 50.3425L1.07052 50.5185C1.07778 50.5344 1.08547 50.5497 1.09358 50.5651L1.18502 50.7356C1.19271 50.7506 1.20126 50.7655 1.21066 50.78L1.31235 50.9441C1.32132 50.9586 1.33115 50.9727 1.34098 50.9864L1.45335 51.1436C1.46318 51.1577 1.47385 51.1714 1.48496 51.1847L1.60759 51.3342C1.61827 51.3474 1.62981 51.3607 1.64177 51.3731L1.7738 51.5141C1.78534 51.5265 1.7973 51.5384 1.80969 51.55L1.95069 51.682C1.96351 51.694 1.97632 51.7055 1.99 51.7166L2.13954 51.8392C2.15279 51.8499 2.16603 51.8602 2.1797 51.87L2.33651 51.9824C2.35104 51.9926 2.36556 52.0024 2.38009 52.0118L2.54416 52.1135C2.55142 52.1182 2.55869 52.1225 2.56596 52.1268L3.70163 52.7822L5.68843 53.9294L8.2435 55.4044L8.8109 55.7321L9.09504 55.8961L9.66245 56.2239L9.94658 56.3879L10.2303 56.5516L10.5144 56.7156L11.0818 57.0434L12.2175 57.6988L12.5012 57.8629L12.7849 58.0265L15.6237 59.6655L15.9074 59.8296L16.1915 59.9932L16.4752 60.1573L17.8946 60.9763L18.1783 61.1404L21.0171 62.7794L21.3008 62.9431L24.1396 64.5821L24.4233 64.7461L27.2621 66.3847L27.5458 66.5488L27.8295 66.7129L28.1136 66.8765L28.3947 67.0389C28.4022 67.0431 28.4097 67.0473 28.4174 67.0513L28.5879 67.1423C28.6028 67.1508 28.6186 67.1585 28.634 67.1653L28.81 67.2452C28.8259 67.2525 28.8417 67.2589 28.8579 67.2649L29.0386 67.3328C29.0544 67.3388 29.0707 67.3444 29.0874 67.3495L29.2719 67.4055C29.2886 67.4106 29.3053 67.4148 29.3219 67.4187L29.5099 67.4627C29.5266 67.4665 29.5437 67.47 29.5608 67.473L29.7513 67.5046C29.768 67.5071 29.7851 67.5093 29.8017 67.511L29.994 67.5302C30.0115 67.5315 30.0286 67.5328 30.0461 67.5332L30.2393 67.5396C30.2563 67.5405 30.2734 67.5405 30.291 67.5396L30.4837 67.5332C30.5012 67.5328 30.5183 67.5315 30.5358 67.5302L30.7281 67.511C30.7447 67.5093 30.7618 67.5071 30.7785 67.5046L30.969 67.473C30.9861 67.47 31.0032 67.4665 31.0199 67.4627L31.2079 67.4187C31.2245 67.4148 31.2412 67.4106 31.2579 67.4055L31.4424 67.3495C31.4591 67.3444 31.4753 67.3388 31.4911 67.3328L31.6719 67.2649C31.6881 67.2589 31.7039 67.2525 31.7197 67.2452L31.8958 67.1653C31.9112 67.1585 31.927 67.1508 31.9419 67.1423L32.1124 67.0513C32.1201 67.0474 32.1274 67.0431 32.1351 67.0389L33.8381 66.0557L36.3928 64.5804L36.6765 64.4167L38.38 63.4336L40.3668 62.2864L40.6505 62.1223L40.9346 61.9586L41.7862 61.4669L42.6377 60.9751L43.2056 60.6474L43.773 60.3196L44.0571 60.1556L45.1924 59.5001L47.747 58.0252L48.3148 57.6975L48.8827 57.3698L49.1664 57.2057L49.4505 57.0421L52.0052 55.5667L52.2889 55.4031L52.573 55.239L53.4245 54.7476L55.1276 53.7641L56.2629 53.1086L56.8307 52.7809L57.6823 52.2891L57.9638 52.1268C57.9711 52.1225 57.9784 52.1182 57.9856 52.1135L58.1497 52.0118C58.1642 52.0024 58.1788 51.9926 58.1933 51.9824L58.3501 51.87C58.3638 51.8602 58.377 51.8499 58.3903 51.8392L58.5398 51.7166C58.5535 51.7055 58.5663 51.694 58.5791 51.682L58.7201 51.55C58.7324 51.5383 58.7443 51.5263 58.756 51.5141L58.888 51.3731C58.9 51.3607 58.9115 51.3474 58.9222 51.3342L59.0448 51.1847C59.0559 51.1714 59.0666 51.1577 59.0764 51.1436L59.1888 50.9864C59.1991 50.9727 59.2085 50.9586 59.2174 50.9441L59.3191 50.78C59.3285 50.7655 59.3371 50.7506 59.3448 50.7352L59.4362 50.5651C59.4443 50.5497 59.452 50.5344 59.4593 50.5185L59.5387 50.3425C59.546 50.3267 59.5524 50.3109 59.5584 50.2951L59.6263 50.1139C59.6327 50.0981 59.6379 50.0819 59.643 50.0656L59.699 49.8806C59.7041 49.864 59.7088 49.8477 59.7126 49.8311L59.7562 49.6426C59.7605 49.626 59.7635 49.6089 59.7665 49.5922L59.7981 49.4012C59.8007 49.3846 59.8028 49.3679 59.8045 49.3508L59.8237 49.1586C59.8254 49.141 59.8263 49.1235 59.8271 49.1056L59.8331 48.9124ZM58.2539 18.9212L58.2586 19.0759V48.8753L58.2539 49.0295L58.2403 49.1701L58.2168 49.3102L58.1847 49.4478L58.1437 49.5837L58.0937 49.7166L58.0352 49.8452L57.9685 49.9699L57.8938 50.0904L57.8113 50.2058L57.7216 50.3147L57.6241 50.4186L57.5212 50.5156L57.4114 50.6053L57.2964 50.6877L57.1653 50.7693L56.8948 50.9253L56.0433 51.4171L55.4754 51.7448L54.3402 52.4002L52.6371 53.3838L52.0692 53.7115L51.7855 53.8752L51.5014 54.0392L51.2177 54.2033L48.6631 55.6782L48.3789 55.8419L48.0952 56.006L47.5274 56.3337L46.96 56.6614L44.4049 58.1363L43.2697 58.7922L42.9859 58.9558L42.4181 59.2835L41.8503 59.6112L40.9987 60.103L40.1472 60.5948L39.8635 60.7589L39.5793 60.9225L37.5925 62.0697L35.8895 63.0529L35.6053 63.2169L33.0507 64.6919L31.3587 65.6686L31.2224 65.7417L31.0934 65.7998L30.9609 65.8498L30.825 65.8912L30.687 65.9233L30.5473 65.9463L30.4063 65.9604L30.2649 65.9651L30.1235 65.9604L29.9825 65.9463L29.8428 65.9233L29.7047 65.8912L29.5689 65.8498L29.4364 65.7998L29.3074 65.7417L29.1711 65.6686L28.9011 65.5127L28.3332 65.1849L28.0495 65.0213L25.2107 63.3823L24.927 63.2182L22.0883 61.5797L21.8046 61.4156L18.9658 59.7766L18.6821 59.6129L17.2627 58.7934L16.979 58.6294L16.6949 58.4657L16.4111 58.3017L13.5724 56.6631L13.2887 56.499L13.0045 56.3349L11.8693 55.6795L11.3014 55.3518L11.0177 55.1877L10.4499 54.86L10.1662 54.6964L9.88249 54.5323L9.59836 54.3687L9.03051 54.0405L6.47588 52.5656L4.48908 51.4184L3.36451 50.7693L3.23334 50.6877L3.11841 50.6053L3.0086 50.5156L2.90563 50.4186L2.80821 50.3147L2.71891 50.2058L2.63602 50.0904L2.56125 49.9704L2.49459 49.8452L2.43606 49.7166L2.38607 49.5837L2.34505 49.4478L2.31301 49.3102L2.28994 49.1701L2.27583 49.0295L2.27113 48.8753V19.0759L2.27583 18.9212L2.28994 18.7811L2.31301 18.6409L2.34505 18.5029L2.38607 18.3675L2.43606 18.2346L2.49459 18.106L2.56125 17.9808L2.63602 17.8603L2.71891 17.7454L2.80821 17.636L2.90563 17.5326L3.0086 17.4356L3.11841 17.3459L3.23334 17.2634L3.36451 17.1818L3.63497 17.0258L4.20239 16.6977L5.05436 16.2063L7.32528 14.8951L7.60899 14.7314L7.8927 14.5673L9.31208 13.7478L11.0152 12.7647L12.4346 11.9452L14.9892 10.4703L16.9764 9.32306L17.2601 9.15899L19.8148 7.68406L20.6663 7.19227L20.9504 7.02863L22.0857 6.37277L22.3698 6.20912L22.6535 6.04548L23.2214 5.71735L23.7888 5.38963L25.4919 4.40648L25.776 4.24241L26.0597 4.07877L26.9113 3.58698L28.8985 2.43977L29.1711 2.28211L29.3074 2.20947L29.4364 2.15094L29.5689 2.10095L29.7047 2.05993L29.8427 2.02788L29.9825 2.00481L30.1235 1.99071L30.2649 1.98601L30.4063 1.99071L30.5473 2.00481L30.687 2.02788L30.825 2.05993L30.9609 2.10095L31.0934 2.15094L31.2224 2.20947L31.3587 2.28211L34.1838 3.91299L34.7512 4.24113L35.0353 4.40478L36.1706 5.06063L39.0094 6.6992L39.2931 6.86327L39.5768 7.02692L41.564 8.17456L42.9834 8.99364L45.8217 10.6326L46.1059 10.7967L46.6733 11.1244L46.9574 11.2881L49.512 12.763L52.0667 14.2379L52.6345 14.5661L54.0539 15.3851L54.6217 15.7133L56.0407 16.5323L57.1653 17.1818L57.2964 17.2634L57.4114 17.3459L57.5212 17.4356L57.6241 17.5326L57.7216 17.636L57.8113 17.7454L57.8938 17.8603L57.9685 17.9808L58.0352 18.106L58.0937 18.2346L58.1437 18.3675L58.1847 18.5029L58.2168 18.6409L58.2403 18.7811L58.2539 18.9212Z" fill="white"/>
<path fill-rule="evenodd" clip-rule="evenodd" d="M4.4361 48.8878L30.2649 63.8003L56.0937 48.8878V19.0632L30.2649 4.15112L4.4361 19.0632V48.8878ZM29.6377 17.7002C29.6377 15.7609 30.3918 14.0911 31.6309 12.7982C32.8695 11.5591 34.5935 10.805 36.4791 10.805V49.7522C36.4791 53.5771 33.4083 56.6474 29.6377 56.6474H27.321C28.6139 56.6474 29.6377 55.6241 29.6377 54.3312V32.5679C29.6377 31.3292 30.661 30.3055 31.9 30.3055C30.661 30.3055 29.6377 29.2822 29.6377 27.9893V17.7002ZM27.321 56.6474H25.0586C21.2337 56.6474 18.1634 53.5771 18.1634 49.7522V37.1469C18.1634 33.3763 21.2337 30.3055 25.0586 30.3055H27.321C26.0824 30.3055 25.0586 31.3292 25.0586 32.5679V54.3312C25.0586 55.6241 26.0824 56.6474 27.321 56.6474V56.6474Z" fill="#F51842"/>
</svg>
