<svg width="60" height="68" viewBox="0 0 60 68" fill="none" xmlns="http://www.w3.org/2000/svg">
<path fill-rule="evenodd" clip-rule="evenodd" d="M59.5683 48.8164C59.5687 48.8083 59.5687 48.8001 59.5687 48.7916V18.967C59.5687 18.9589 59.5687 18.9507 59.5683 18.9422L59.5623 18.7491C59.5615 18.7316 59.5606 18.714 59.5589 18.6965L59.5397 18.5043C59.538 18.4872 59.5358 18.4705 59.5333 18.4534L59.5016 18.2628C59.4987 18.2458 59.4957 18.2291 59.4914 18.212L59.4478 18.024C59.444 18.0073 59.4393 17.9907 59.4341 17.9744L59.3782 17.7894C59.373 17.7732 59.3679 17.757 59.3615 17.7407L59.2936 17.56C59.2876 17.5438 59.2812 17.5279 59.2739 17.5126L59.1944 17.3365C59.1872 17.3207 59.1795 17.3053 59.1714 17.29L59.0799 17.1195C59.0722 17.1045 59.0637 17.0896 59.0543 17.075L58.9526 16.911C58.9436 16.8964 58.9338 16.8823 58.924 16.8682L58.8116 16.7114C58.8018 16.6973 58.7911 16.6837 58.78 16.67L58.6574 16.5209C58.6467 16.5076 58.6351 16.4944 58.6232 16.482L58.4912 16.341C58.4796 16.3286 58.4677 16.3166 58.4553 16.3051L58.3143 16.1731C58.3014 16.1611 58.2886 16.1496 58.275 16.1385L58.1254 16.0158C58.1122 16.0052 58.0989 15.9949 58.0852 15.9851L57.9284 15.8723C57.9139 15.862 57.8994 15.8526 57.8849 15.8432L57.7208 15.7411C57.7134 15.7368 57.7061 15.7326 57.699 15.7283L56.5633 15.0729L55.1439 14.2534L54.5765 13.9257L53.1571 13.1062L52.5893 12.7784L50.0347 11.3035L47.48 9.82815L46.9122 9.50044L46.6285 9.3368L46.3444 9.17273L43.506 7.53373L42.0866 6.71465L40.0994 5.56701L39.8157 5.40337L39.532 5.23972L36.6932 3.60072L35.558 2.94529L34.9901 2.61715L34.706 2.45351L31.8702 0.816217C31.8625 0.811517 31.8552 0.807672 31.8476 0.803826L31.6771 0.712392C31.6621 0.704274 31.6463 0.696583 31.6309 0.68932L31.4549 0.609849C31.4391 0.602586 31.4233 0.596174 31.407 0.590193L31.2263 0.522258C31.2105 0.516277 31.1943 0.510722 31.1776 0.505594L30.993 0.449624C30.9764 0.444496 30.9597 0.440221 30.943 0.435949L30.755 0.392369C30.7384 0.388523 30.7213 0.385104 30.7042 0.382113L30.5136 0.350497C30.497 0.347933 30.4799 0.345797 30.4632 0.344088L30.2709 0.324861C30.2534 0.323152 30.2363 0.322296 30.2188 0.321442L30.0257 0.31546C30.0086 0.314606 29.9915 0.314606 29.974 0.31546L29.7813 0.321442C29.7638 0.322296 29.7467 0.323152 29.7292 0.324861L29.5369 0.344088C29.5202 0.345797 29.5031 0.347933 29.4865 0.350497L29.2959 0.382113C29.2788 0.385104 29.2617 0.388523 29.2451 0.392369L29.0571 0.435949C29.0404 0.440221 29.0237 0.444496 29.0071 0.449624L28.8225 0.505594C28.8058 0.510722 28.7896 0.516277 28.7738 0.522258L28.5931 0.590193C28.5768 0.596174 28.561 0.602586 28.5452 0.609849L28.3692 0.68932C28.3538 0.696583 28.338 0.704274 28.323 0.712392L28.1525 0.803826C28.1448 0.807672 28.1376 0.811517 28.1299 0.816217L27.8462 0.979862L25.8594 2.12708L25.0074 2.61886L24.7237 2.78293L24.44 2.94657L22.7369 3.92972L22.1691 4.25786L21.6013 4.58557L21.3175 4.74922L21.0334 4.91329L19.8982 5.56872L19.6145 5.73279L18.7629 6.22457L16.2078 7.69951L15.9241 7.86315L13.9369 9.01036L11.3823 10.4853L9.96289 11.3048L8.2598 12.2879L6.84042 13.1074L6.55671 13.2715L6.273 13.4351L4.00207 14.7464L3.15053 15.2382L2.58269 15.5659L2.30112 15.7283C2.29386 15.7326 2.28659 15.7368 2.27933 15.7411L2.11526 15.8432C2.10073 15.8526 2.08621 15.862 2.07168 15.8723L1.91487 15.9851C1.9012 15.9949 1.88796 16.0052 1.87471 16.0158L1.72516 16.1385C1.71149 16.1496 1.69868 16.1611 1.68586 16.1731L1.54486 16.3051C1.53247 16.3166 1.5205 16.3286 1.50897 16.341L1.37694 16.482C1.36498 16.4944 1.35344 16.5076 1.34276 16.5209L1.22013 16.67C1.20902 16.6837 1.19834 16.6973 1.18852 16.7114L1.07614 16.8682C1.06632 16.8823 1.05649 16.8964 1.04752 16.911L0.945825 17.075C0.936425 17.0896 0.927881 17.1045 0.92019 17.1195L0.828753 17.29C0.820634 17.3053 0.81295 17.3207 0.805686 17.3365L0.726212 17.5126C0.718949 17.5279 0.712538 17.5438 0.706556 17.56L0.638622 17.7407C0.632213 17.757 0.627085 17.7732 0.621958 17.7894L0.565987 17.9744C0.56086 17.9907 0.556161 18.0073 0.552315 18.024L0.508732 18.212C0.504459 18.2291 0.501467 18.2458 0.498477 18.2628L0.466857 18.4534C0.464293 18.4705 0.462157 18.4872 0.460448 18.5043L0.441222 18.6965C0.439512 18.714 0.43866 18.7316 0.437805 18.7491L0.431827 18.9422C0.4314 18.9507 0.431396 18.9589 0.431396 18.967V48.7916C0.431396 48.8001 0.4314 48.8083 0.431827 48.8164L0.437805 49.0095C0.43866 49.0274 0.439512 49.045 0.441222 49.0625L0.460448 49.2548C0.462157 49.2718 0.464293 49.2885 0.466857 49.3052L0.498477 49.4962C0.501467 49.5128 0.504459 49.5299 0.508732 49.5466L0.552315 49.735C0.556161 49.7517 0.56086 49.7683 0.565987 49.7846L0.621958 49.9696C0.627085 49.9858 0.632213 50.002 0.638622 50.0179L0.706556 50.199C0.712538 50.2148 0.718949 50.2306 0.726212 50.2464L0.805686 50.4225C0.81295 50.4383 0.820634 50.4537 0.828753 50.469L0.92019 50.6395C0.927881 50.6545 0.936425 50.6694 0.945825 50.684L1.04752 50.848C1.05649 50.8626 1.06632 50.8767 1.07614 50.8903L1.18852 51.0476C1.19834 51.0617 1.20902 51.0753 1.22013 51.0886L1.34276 51.2381C1.35344 51.2514 1.36498 51.2646 1.37694 51.277L1.50897 51.418C1.5205 51.4304 1.53247 51.4424 1.54486 51.4539L1.68586 51.5859C1.69868 51.5979 1.71149 51.6094 1.72516 51.6205L1.87471 51.7432C1.88796 51.7538 1.9012 51.7641 1.91487 51.7739L2.07168 51.8863C2.08621 51.8966 2.10073 51.9064 2.11526 51.9158L2.27933 52.0175C2.28659 52.0222 2.29386 52.0264 2.30112 52.0307L3.4368 52.6861L5.4236 53.8334L7.97866 55.3083L8.54607 55.636L8.83021 55.8001L9.39762 56.1278L9.68175 56.2919L9.96546 56.4555L10.2496 56.6196L10.817 56.9473L11.9527 57.6027L12.2364 57.7668L12.5201 57.9304L15.3589 59.5694L15.6426 59.7335L15.9267 59.8971L16.2104 60.0612L17.6298 60.8803L17.9135 61.0444L20.7523 62.6834L21.036 62.847L23.8748 64.486L24.1585 64.6501L26.9972 66.2886L27.2809 66.4527L27.5646 66.6168L27.8488 66.7804L28.1299 66.9428C28.1373 66.9471 28.1449 66.9512 28.1526 66.9552L28.323 67.0462C28.338 67.0547 28.3538 67.0624 28.3692 67.0693L28.5452 67.1492C28.561 67.1564 28.5768 67.1628 28.5931 67.1688L28.7738 67.2368C28.7896 67.2427 28.8059 67.2483 28.8225 67.2534L29.0071 67.3094C29.0238 67.3145 29.0404 67.3188 29.0571 67.3226L29.2451 67.3666C29.2617 67.3705 29.2788 67.3739 29.2959 67.3769L29.4865 67.4085C29.5032 67.4111 29.5202 67.4132 29.5369 67.4149L29.7292 67.4342C29.7467 67.4354 29.7638 67.4367 29.7813 67.4371L29.9744 67.4436C29.9915 67.4444 30.0086 67.4444 30.0261 67.4436L30.2188 67.4371C30.2364 67.4367 30.2534 67.4354 30.271 67.4342L30.4632 67.4149C30.4799 67.4132 30.497 67.4111 30.5136 67.4085L30.7042 67.3769C30.7213 67.3739 30.7384 67.3705 30.755 67.3666L30.943 67.3226C30.9597 67.3188 30.9764 67.3145 30.993 67.3094L31.1776 67.2534C31.1943 67.2483 31.2105 67.2427 31.2263 67.2368L31.4071 67.1688C31.4233 67.1628 31.4391 67.1564 31.4549 67.1492L31.631 67.0693C31.6463 67.0624 31.6621 67.0547 31.6771 67.0462L31.8476 66.9552C31.8553 66.9513 31.8625 66.9471 31.8702 66.9428L33.5733 65.9596L36.1279 64.4843L36.4116 64.3206L38.1152 63.3375L40.102 62.1903L40.3857 62.0262L40.6698 61.8626L41.5214 61.3708L42.3729 60.879L42.9407 60.5513L43.5081 60.2236L43.7923 60.0595L44.9275 59.4041L47.4822 57.9291L48.05 57.6014L48.6178 57.2737L48.9016 57.1096L49.1857 56.946L51.7403 55.4706L52.024 55.307L52.3082 55.1429L53.1597 54.6516L54.8628 53.668L55.9981 53.0126L56.5659 52.6849L57.4174 52.1931L57.699 52.0307C57.7063 52.0264 57.7135 52.0222 57.7208 52.0175L57.8849 51.9158C57.8994 51.9064 57.9139 51.8966 57.9285 51.8863L58.0852 51.7739C58.0989 51.7641 58.1122 51.7538 58.1254 51.7432L58.275 51.6205C58.2886 51.6094 58.3014 51.5979 58.3143 51.5859L58.4553 51.4539C58.4675 51.4422 58.4795 51.4303 58.4912 51.418L58.6232 51.277C58.6351 51.2646 58.6467 51.2514 58.6574 51.2381L58.78 51.0886C58.7911 51.0753 58.8018 51.0617 58.8116 51.0476L58.924 50.8903C58.9342 50.8767 58.9436 50.8626 58.9526 50.848L59.0543 50.684C59.0637 50.6694 59.0722 50.6545 59.0799 50.6391L59.1714 50.469C59.1795 50.4537 59.1872 50.4383 59.1944 50.4225L59.2739 50.2464C59.2812 50.2306 59.2876 50.2148 59.2936 50.199L59.3615 50.0179C59.3679 50.002 59.373 49.9858 59.3782 49.9696L59.4341 49.7846C59.4393 49.7679 59.444 49.7517 59.4478 49.735L59.4914 49.5466C59.4957 49.5299 59.4987 49.5128 59.5016 49.4962L59.5333 49.3052C59.5358 49.2885 59.538 49.2718 59.5397 49.2548L59.5589 49.0625C59.5606 49.045 59.5615 49.0274 59.5623 49.0095L59.5683 48.8164ZM57.9891 18.8251L57.9938 18.9798V48.7792L57.9891 48.9334L57.9754 49.074L57.9519 49.2142L57.9199 49.3517L57.8789 49.4876L57.8289 49.6205L57.7704 49.7491L57.7037 49.8739L57.6289 49.9944L57.5465 50.1097L57.4567 50.2187L57.3593 50.3225L57.2563 50.4195L57.1465 50.5092L57.0316 50.5917L56.9004 50.6733L56.63 50.8292L55.7784 51.321L55.2106 51.6487L54.0753 52.3042L52.3722 53.2877L51.8044 53.6154L51.5207 53.7791L51.2366 53.9432L50.9529 54.1072L48.3982 55.5822L48.1141 55.7458L47.8304 55.9099L47.2625 56.2376L46.6951 56.5653L44.1401 58.0402L43.0048 58.6961L42.7211 58.8597L42.1533 59.1875L41.5854 59.5152L40.7339 60.007L39.8823 60.4987L39.5986 60.6628L39.3145 60.8265L37.3277 61.9737L35.6246 62.9568L35.3405 63.1209L32.7858 64.5958L31.0939 65.5725L30.9576 65.6456L30.8285 65.7037L30.6961 65.7537L30.5602 65.7952L30.4222 65.8272L30.2825 65.8503L30.1415 65.8644L30.0001 65.8691L29.8586 65.8644L29.7176 65.8503L29.5779 65.8272L29.4399 65.7952L29.304 65.7537L29.1716 65.7037L29.0426 65.6456L28.9063 65.5725L28.6362 65.4166L28.0684 65.0889L27.7847 64.9252L24.9459 63.2862L24.6622 63.1222L21.8234 61.4836L21.5397 61.3195L18.7009 59.6805L18.4172 59.5169L16.9979 58.6974L16.7142 58.5333L16.43 58.3697L16.1463 58.2056L13.3075 56.567L13.0238 56.4029L12.7397 56.2389L11.6044 55.5834L11.0366 55.2557L10.7529 55.0917L10.1851 54.7639L9.90136 54.6003L9.61766 54.4362L9.33353 54.2726L8.76568 53.9444L6.21105 52.4695L4.22425 51.3223L3.09968 50.6733L2.96851 50.5917L2.85357 50.5092L2.74376 50.4195L2.64079 50.3225L2.54338 50.2187L2.45408 50.1097L2.37119 49.9944L2.29642 49.8743L2.22976 49.7491L2.17123 49.6205L2.12124 49.4876L2.08022 49.3517L2.04818 49.2142L2.0251 49.074L2.011 48.9334L2.0063 48.7792V18.9798L2.011 18.8251L2.0251 18.685L2.04818 18.5448L2.08022 18.4068L2.12124 18.2714L2.17123 18.1385L2.22976 18.0099L2.29642 17.8847L2.37119 17.7642L2.45408 17.6493L2.54338 17.5399L2.64079 17.4365L2.74376 17.3395L2.85357 17.2498L2.96851 17.1673L3.09968 17.0857L3.37014 16.9298L3.93755 16.6016L4.78953 16.1103L7.06045 14.799L7.34416 14.6353L7.62786 14.4713L9.04725 13.6518L10.7503 12.6686L12.1697 11.8491L14.7244 10.3742L16.7116 9.22699L16.9953 9.06292L19.5499 7.58799L20.4015 7.0962L20.6856 6.93256L21.8209 6.2767L22.105 6.11306L22.3887 5.94941L22.9565 5.62128L23.5239 5.29356L25.227 4.31041L25.5112 4.14634L25.7949 3.9827L26.6464 3.49092L28.6336 2.3437L28.9062 2.18604L29.0425 2.1134L29.1716 2.05487L29.304 2.00488L29.4399 1.96386L29.5779 1.93181L29.7176 1.90874L29.8586 1.89464L30 1.88994L30.1415 1.89464L30.2825 1.90874L30.4222 1.93181L30.5602 1.96386L30.6961 2.00488L30.8285 2.05487L30.9576 2.1134L31.0939 2.18604L33.9189 3.81692L34.4864 4.14506L34.7705 4.30871L35.9058 4.96456L38.7445 6.60313L39.0282 6.76721L39.3119 6.93085L41.2992 8.07849L42.7185 8.89757L45.5569 10.5366L45.841 10.7006L46.4084 11.0284L46.6926 11.192L49.2472 12.6669L51.8018 14.1418L52.3697 14.47L53.7891 15.2891L54.3569 15.6172L55.7759 16.4363L56.9004 17.0857L57.0316 17.1673L57.1465 17.2498L57.2563 17.3395L57.3593 17.4365L57.4567 17.5399L57.5465 17.6493L57.6289 17.7642L57.7037 17.8847L57.7704 18.0099L57.8289 18.1385L57.8789 18.2714L57.9199 18.4068L57.9519 18.5448L57.9754 18.685L57.9891 18.8251Z" fill="white"/>
<path fill-rule="evenodd" clip-rule="evenodd" d="M4.17126 48.7917L30.0001 63.7043L55.8288 48.7917V18.9671L30.0001 4.05505L4.17126 18.9671V48.7917ZM29.3728 17.6042C29.3728 15.6648 30.127 13.995 31.366 12.7021C32.6047 11.463 34.3287 10.7089 36.2142 10.7089V49.6561C36.2142 53.481 33.1435 56.5514 29.3728 56.5514H27.0562C28.3491 56.5514 29.3728 55.5281 29.3728 54.2351V32.4718C29.3728 31.2332 30.3961 30.2094 31.6352 30.2094C30.3961 30.2094 29.3728 29.1861 29.3728 27.8932V17.6042ZM27.0562 56.5514H24.7938C20.9689 56.5514 17.8985 53.481 17.8985 49.6561V37.0508C17.8985 33.2802 20.9689 30.2094 24.7938 30.2094H27.0562C25.8175 30.2094 24.7938 31.2332 24.7938 32.4718V54.2351C24.7938 55.5281 25.8175 56.5514 27.0562 56.5514V56.5514Z" fill="#F51842"/>
</svg>
