<svg width="43" height="42" viewBox="0 0 43 42" fill="none" xmlns="http://www.w3.org/2000/svg">
<g filter="url(#filter0_b_130_55)">
<rect x="0.666626" width="42" height="42" rx="0.494118" fill="url(#paint0_linear_130_55)"/>
<g clip-path="url(#clip0_130_55)">
<path d="M17.7137 32.8588C19.8957 32.8588 21.6666 31.0878 21.6666 28.9058V24.9529H17.7137C15.5317 24.9529 13.7607 26.7238 13.7607 28.9058C13.7607 31.0878 15.5317 32.8588 17.7137 32.8588Z" fill="#0ACF83"/>
<path d="M13.7607 21.0001C13.7607 18.818 15.5317 17.0471 17.7137 17.0471H21.6666V24.953H17.7137C15.5317 24.953 13.7607 23.1821 13.7607 21.0001Z" fill="#A259FF"/>
<path d="M13.7607 13.0941C13.7607 10.912 15.5317 9.14111 17.7137 9.14111H21.6666V17.047H17.7137C15.5317 17.047 13.7607 15.2761 13.7607 13.0941Z" fill="#F24E1E"/>
<path d="M21.6666 9.14111H25.6196C27.8016 9.14111 29.5725 10.912 29.5725 13.0941C29.5725 15.2761 27.8016 17.047 25.6196 17.047H21.6666V9.14111Z" fill="#FF7262"/>
<path d="M29.5725 21.0001C29.5725 23.1821 27.8016 24.953 25.6196 24.953C23.4375 24.953 21.6666 23.1821 21.6666 21.0001C21.6666 18.818 23.4375 17.0471 25.6196 17.0471C27.8016 17.0471 29.5725 18.818 29.5725 21.0001Z" fill="#1ABCFE"/>
</g>
<rect x="0.697508" y="0.0308824" width="41.9382" height="41.9382" rx="0.463235" stroke="url(#paint1_linear_130_55)" stroke-width="0.0617647"/>
</g>
<defs>
<filter id="filter0_b_130_55" x="-1.06279" y="-1.72941" width="45.4588" height="45.4588" filterUnits="userSpaceOnUse" color-interpolation-filters="sRGB">
<feFlood flood-opacity="0" result="BackgroundImageFix"/>
<feGaussianBlur in="BackgroundImage" stdDeviation="0.864706"/>
<feComposite in2="SourceAlpha" operator="in" result="effect1_backgroundBlur_130_55"/>
<feBlend mode="normal" in="SourceGraphic" in2="effect1_backgroundBlur_130_55" result="shape"/>
</filter>
<linearGradient id="paint0_linear_130_55" x1="0.666627" y1="-0.243478" x2="7.64435" y2="47.2509" gradientUnits="userSpaceOnUse">
<stop stop-color="white" stop-opacity="0.09"/>
<stop offset="1" stop-color="white" stop-opacity="0.03"/>
</linearGradient>
<linearGradient id="paint1_linear_130_55" x1="0.666627" y1="-0.243478" x2="7.64435" y2="47.2509" gradientUnits="userSpaceOnUse">
<stop stop-color="white" stop-opacity="0.15"/>
<stop offset="1" stop-color="white" stop-opacity="0.07"/>
</linearGradient>
<clipPath id="clip0_130_55">
<rect width="15.8118" height="23.7176" fill="white" transform="translate(13.7607 9.14111)"/>
</clipPath>
</defs>
</svg>
