<svg width="24" height="24" viewBox="0 0 24 24" fill="none" xmlns="http://www.w3.org/2000/svg">
<g filter="url(#filter0_b_112_2238)">
<rect width="24" height="24" rx="2.95385" fill="url(#paint0_linear_112_2238)"/>
<path d="M7.10767 12.1846L8.15382 11.1385M8.15382 11.1385L11.8154 7.47693L15.4769 11.1385M8.15382 11.1385V16.3692C8.15382 16.6581 8.38801 16.8923 8.6769 16.8923H10.2461M15.4769 11.1385L16.5231 12.1846M15.4769 11.1385V16.3692C15.4769 16.6581 15.2427 16.8923 14.9538 16.8923H13.3846M10.2461 16.8923C10.535 16.8923 10.7692 16.6581 10.7692 16.3692V14.2769C10.7692 13.988 11.0034 13.7539 11.2923 13.7539H12.3384C12.6273 13.7539 12.8615 13.988 12.8615 14.2769V16.3692C12.8615 16.6581 13.0957 16.8923 13.3846 16.8923M10.2461 16.8923H13.3846" stroke="white" stroke-width="0.553846" stroke-linecap="round" stroke-linejoin="round"/>
<rect x="0.184615" y="0.184615" width="23.6308" height="23.6308" rx="2.76923" stroke="url(#paint1_linear_112_2238)" stroke-width="0.369231"/>
</g>
<defs>
<filter id="filter0_b_112_2238" x="-10.3385" y="-10.3385" width="44.6769" height="44.6769" filterUnits="userSpaceOnUse" color-interpolation-filters="sRGB">
<feFlood flood-opacity="0" result="BackgroundImageFix"/>
<feGaussianBlur in="BackgroundImage" stdDeviation="5.16923"/>
<feComposite in2="SourceAlpha" operator="in" result="effect1_backgroundBlur_112_2238"/>
<feBlend mode="normal" in="SourceGraphic" in2="effect1_backgroundBlur_112_2238" result="shape"/>
</filter>
<linearGradient id="paint0_linear_112_2238" x1="7.46109e-07" y1="-0.139131" x2="3.98727" y2="27.0005" gradientUnits="userSpaceOnUse">
<stop stop-color="white" stop-opacity="0.09"/>
<stop offset="1" stop-color="white" stop-opacity="0.03"/>
</linearGradient>
<linearGradient id="paint1_linear_112_2238" x1="7.46109e-07" y1="-0.139131" x2="3.98727" y2="27.0005" gradientUnits="userSpaceOnUse">
<stop stop-color="white" stop-opacity="0.15"/>
<stop offset="1" stop-color="white" stop-opacity="0.07"/>
</linearGradient>
</defs>
</svg>
