<svg width="578" height="603" viewBox="0 0 578 603" fill="none" xmlns="http://www.w3.org/2000/svg">
<path fill-rule="evenodd" clip-rule="evenodd" d="M515.528 253.769C521.761 236.173 525.153 217.232 525.153 197.5C525.153 104.44 449.713 29 356.653 29C334.511 29 313.368 33.2705 294 41.0328C306.468 38.3902 319.398 37 332.653 37C435.102 37 518.153 120.051 518.153 222.5C518.153 233.157 517.254 243.604 515.528 253.769Z" fill="#F51842"/>
<path fill-rule="evenodd" clip-rule="evenodd" d="M567.681 224.769C573.914 207.173 577.306 188.232 577.306 168.5C577.306 75.44 501.866 0 408.806 0C386.664 0 365.52 4.27052 346.153 12.0328C358.62 9.39023 371.551 8 384.806 8C487.254 8 570.306 91.0512 570.306 193.5C570.306 204.157 569.407 214.604 567.681 224.769Z" fill="#F51842"/>
<g clip-path="url(#clip0_16_158)">
<path d="M185.506 537.945C185.31 531.737 185.107 525.526 184.826 519.314C184.261 506.758 183.384 494.198 181.62 481.744C178.668 460.894 170.899 442.342 165.465 422.213C163.319 414.231 161.602 406.14 160.321 397.974C157.912 382.755 156.953 367.452 157.081 352.092C157.212 337.026 158.302 321.816 163.592 307.571C166.467 299.83 169.657 290.123 175.949 284.44C176.945 283.541 178.711 282.567 179.535 281.712C179.535 281.712 179.535 281.712 179.535 281.69C179.848 281.45 180.16 281.206 180.441 280.944C180.656 279.552 180.915 278.163 181.124 276.755C181.143 276.649 181.155 276.54 181.171 276.443C177.919 276.181 174.329 278.531 171.47 279.77C164.657 282.735 157.662 285.267 150.87 288.297C147.749 289.693 144.575 291.153 141.506 292.636C138.526 294.087 136.2 296.525 133.192 297.983C129.846 299.612 126.493 301.226 123.091 302.746C120.519 303.9 117.938 305.04 115.376 306.216C117.21 311.164 119.589 315.892 122.467 320.315C122.377 320.627 122.286 320.939 122.186 321.27C119.661 329.301 114.736 336.236 111.374 343.896C110.55 345.768 109.857 347.694 109.189 349.601C110.728 350.438 110.791 352.317 111.315 353.937C115.653 367.38 108.54 375.145 106.586 387.724C105.026 397.793 108.771 406.901 108.369 416.736C108.097 423.081 104.576 428.515 102.944 434.505C102.23 437.191 101.688 439.921 101.321 442.676C97.6752 468.922 91.7699 495.034 86.6324 521.072C85.3839 527.314 84.332 534.046 82.7246 540.635C84.382 560.773 84.5973 581.373 84.4413 601.727H185.388C185.831 592.632 186.162 583.527 186.19 574.419C186.227 562.156 185.896 550.161 185.506 537.945ZM163.221 502.703C161.763 499.448 163.68 495.1 167.466 494.835C169.207 494.713 170.275 494.775 171.745 495.911C174.866 498.346 173.552 502.329 171.373 504.91C169.195 507.491 164.379 505.275 163.221 502.703ZM174.932 563.501C172.769 566.064 167.928 563.867 166.779 561.295C165.321 558.036 167.238 553.691 171.018 553.426C172.762 553.304 173.842 553.367 175.3 554.503C178.424 556.937 177.104 560.92 174.932 563.501Z" fill="#F51842"/>
<path d="M109.892 142.228C110.114 142.369 110.3 142.56 110.435 142.787C110.569 143.013 110.649 143.268 110.667 143.531C110.685 143.794 110.641 144.057 110.538 144.3C110.435 144.542 110.277 144.757 110.076 144.928C109.074 145.742 107.925 145.864 106.708 145.699C105.029 145.468 103.275 145.358 101.602 145.274C99.6165 145.177 97.6221 145.165 95.6338 145.099C94.1918 145.046 91.6449 145.318 90.487 144.263C89.0138 142.914 90.2716 141.6 91.8228 141.279C93.2367 140.992 94.7069 141.279 96.1083 141.344C97.1289 141.385 98.1714 141.435 99.2045 141.472C101.411 141.547 103.621 141.51 105.828 141.532C107.179 141.55 108.699 141.476 109.892 142.228Z" fill="#F51842"/>
<path d="M96.0929 110.226C97.9656 110.344 97.8345 112.411 96.689 113.347C96.5299 113.971 95.5436 114.149 95.0379 114.527C94.2826 115.092 90.147 118.294 89.504 118.981C88.9266 119.605 88.2368 119.917 87.5501 120.398C86.6512 121.041 83.6642 123.319 82.706 121.55C82.422 121.025 82.6186 120.338 82.8995 119.87C83.5238 118.837 84.6817 118.091 85.7086 117.539C86.6824 117.024 87.778 116.318 88.4709 115.454C89.1638 114.589 93.3306 111.708 94.1328 111.084C94.6946 110.619 95.35 110.173 96.0929 110.226Z" fill="#F51842"/>
<path d="M96.0897 176.293C96.1483 176.55 96.1457 176.817 96.082 177.072C96.0183 177.328 95.8953 177.565 95.723 177.764C95.5507 177.964 95.334 178.12 95.0902 178.22C94.8465 178.32 94.5826 178.361 94.32 178.34C93.0341 178.215 92.1352 177.494 91.3829 176.517C90.3529 175.175 89.1981 173.868 88.0557 172.625C86.7136 171.155 85.3059 169.748 83.9451 168.299C82.9525 167.244 80.9518 165.652 80.8738 164.083C80.7708 162.088 82.5936 162.041 83.9201 162.906C85.128 163.689 85.9645 164.938 86.9196 165.965C87.6188 166.717 88.3242 167.482 89.0295 168.237C90.5465 169.841 92.1508 171.358 93.6926 172.941C94.6446 173.899 95.7683 174.926 96.0897 176.293Z" fill="#F51842"/>
<path d="M75.1683 144.631C75.6271 147.506 72.3155 147.406 70.2212 147.284C70.8194 146.025 71.6631 144.898 72.7026 143.969C73.7326 143.077 74.9155 143.039 75.1683 144.631Z" fill="#FFBC3B"/>
<path d="M69.9683 182.788C69.9683 182.875 69.6718 182.744 69.5095 182.688C69.1974 182.591 68.8853 182.473 68.5731 182.351C67.9457 182.071 67.2964 181.844 66.6318 181.67C63.2265 180.865 59.8369 179.648 56.5065 178.587H56.4129C56.4129 177.65 56.4597 176.667 56.4129 175.728C56.3723 175.125 56.1476 174.442 56.1257 173.796H56.1757C56.1757 174.108 62.3026 176.202 62.8769 176.377C65.1055 177.045 67.3746 177.485 69.4596 178.543C69.7249 178.677 70.0838 179.024 70.3398 178.933H70.4552C70.4645 180.236 70.3653 181.536 70.1587 182.822L69.9683 182.788Z" fill="#DEDEDE"/>
<path d="M69.5096 182.688C69.6719 182.744 69.9685 182.875 69.9685 182.788L70.1526 182.819C70.0996 183.156 70.0309 183.49 69.9528 183.821C69.7063 184.829 69.5533 185.815 69.0415 186.727C68.8968 186.982 68.7385 187.229 68.567 187.466L68.5327 187.445C67.6307 187.083 66.713 186.561 65.7611 186.249C62.7959 185.279 59.7995 183.977 56.928 182.757H56.6159C56.6367 181.89 56.6044 181.023 56.5191 180.16C56.4538 179.637 56.4215 179.11 56.4224 178.583H56.516C59.8464 179.645 63.236 180.862 66.6412 181.667C67.3059 181.841 67.9552 182.068 68.5826 182.348C68.8698 182.473 69.2038 182.591 69.5096 182.688Z" fill="#DEDEDE"/>
<path d="M60.3174 172.216H60.2737C60.0365 168.783 58.9628 165.487 58.4416 162.085C57.7923 157.815 57.3991 153.28 55.9102 149.2C55.669 148.548 55.395 147.909 55.0894 147.284L55.7854 147.243C56.6241 147.15 57.4457 146.94 58.2262 146.619C59.0708 146.272 59.8387 145.762 60.486 145.118C61.1102 144.553 61.8936 144.022 62.3587 143.314L62.5116 143.07C63.6142 144.713 65.2164 145.958 67.0811 146.619C67.8602 146.941 68.6809 147.151 69.5188 147.243L70.2148 147.284C69.9062 147.907 69.6332 148.547 69.397 149.2C67.902 153.28 67.5243 157.815 66.8595 162.085C66.3913 165.162 65.2989 168.308 65.2614 171.433C65.2614 171.72 65.3051 172.013 65.3082 172.301C63.6415 172.313 61.9623 172.263 60.3174 172.216Z" fill="#F51842"/>
<path d="M68.5326 187.432L68.567 187.454C68.1763 188.005 67.7122 188.501 67.1874 188.927C65.9077 189.963 63.8664 190.107 62.3058 189.904C61.3774 189.766 60.4905 189.426 59.7071 188.909C58.9237 188.392 58.2628 187.71 57.7707 186.911C57.2509 186.099 56.8966 185.192 56.7282 184.242C56.6532 183.747 56.6156 183.248 56.6158 182.747H56.928C59.7995 183.967 62.7958 185.269 65.761 186.24C66.713 186.561 67.6213 187.082 68.5326 187.432Z" fill="#DEDEDE"/>
<path d="M63.6571 138.023C63.6946 139.74 63.4105 141.591 62.5179 143.083C61.7146 141.891 61.1692 140.544 60.9167 139.128C60.7076 137.983 60.7076 135.879 61.9217 135.208C63.1359 134.537 63.6477 137.377 63.6571 138.023Z" fill="#FFBC3B"/>
<path d="M63.4575 97.5103C63.8508 98.0222 63.3826 98.9055 63.367 99.536C63.3483 100.472 63.3202 105.71 63.4638 106.64C63.5949 107.476 63.4138 108.2 63.3795 109.053C63.3296 110.157 63.2828 113.909 61.2977 113.578C60.7109 113.482 60.2895 112.901 60.096 112.392C59.6622 111.266 59.7839 109.895 59.9992 108.731C60.1928 107.648 60.3114 106.346 60.0585 105.273C59.8182 104.246 60.1147 99.1365 60.0991 98.1127C60.0991 97.4042 60.1397 96.6145 60.636 96.059C61.8907 94.6544 63.4263 96.0371 63.4575 97.5103Z" fill="#F51842"/>
<path d="M60.3176 172.216C60.3176 172.26 60.3176 172.285 60.2802 172.329C60.2802 172.291 60.2802 172.254 60.2802 172.216H60.3176Z" fill="#8CC295"/>
<path d="M57.0497 172.138L56.6814 172.322L56.5909 172.045C56.15 170.797 55.5667 169.604 54.8524 168.49C53.0483 165.724 50.0332 164.432 47.5768 162.431C41.6621 157.584 37.9884 149.931 37.5889 142.243C36.949 129.811 46.4344 118.06 59.1846 117.773C64.7528 117.645 71.0015 118.84 75.5273 122.171C80.0045 125.394 83.3032 129.995 84.9191 135.27C86.535 140.545 86.3793 146.204 84.4758 151.382C83.5336 154.012 82.189 156.48 80.49 158.698C78.6672 161.083 75.9611 162.531 74.0978 164.8C72.4061 166.854 70.0402 168.926 69.8092 171.751L69.778 172.063L69.6095 172.132C68.1987 172.257 66.7629 172.304 65.3147 172.313C65.3147 172.026 65.2679 171.732 65.2679 171.445C65.2928 168.324 66.3977 165.175 66.8659 162.097C67.5182 157.827 67.9084 153.292 69.4035 149.213C69.6397 148.559 69.9127 147.919 70.2212 147.296C72.3156 147.418 75.6272 147.518 75.1683 144.643C74.9155 143.052 73.7326 143.083 72.7026 143.982C71.6631 144.91 70.8195 146.037 70.2212 147.296L69.5252 147.256C68.6873 147.164 67.8666 146.953 67.0875 146.632C65.2228 145.97 63.6207 144.726 62.5181 143.083C63.4107 141.591 63.6947 139.74 63.6573 138.023C63.6573 137.377 63.1548 134.534 61.9219 135.214C60.689 135.895 60.7078 137.989 60.9169 139.134C61.1694 140.55 61.7148 141.897 62.5181 143.089L62.3651 143.333C61.8938 144.041 61.1166 144.581 60.4924 145.137C59.8451 145.781 59.0772 146.291 58.2326 146.638C57.4521 146.959 56.6305 147.169 55.7918 147.262L55.0958 147.303C54.4927 146.042 53.6438 144.915 52.5988 143.988C51.5688 143.095 50.389 143.052 50.1331 144.65C49.6774 147.524 52.9859 147.424 55.0833 147.303C55.389 147.927 55.663 148.567 55.9042 149.219C57.393 153.299 57.7769 157.834 58.4355 162.104C58.9567 165.506 60.0304 168.814 60.2677 172.235C59.194 172.185 58.1015 172.138 57.0497 172.138Z" fill="#F51842"/>
<path d="M56.1695 173.792H56.1195C56.0897 173.519 56.125 173.242 56.2227 172.985C56.3203 172.728 56.4775 172.498 56.6813 172.313L57.0496 172.129C58.1015 172.147 59.1814 172.182 60.2739 172.213C60.2739 172.25 60.2739 172.288 60.2739 172.325C60.3176 172.282 60.2988 172.257 60.3113 172.213C61.9562 172.26 63.6354 172.31 65.3053 172.297C66.7535 172.297 68.1893 172.241 69.6001 172.116L69.7686 172.048C70.4147 172.463 70.449 173.408 70.449 174.095C70.449 175.031 70.396 175.968 70.4147 176.904C70.4334 177.578 70.4428 178.259 70.4397 178.933H70.3242C70.062 179.024 69.6999 178.677 69.444 178.543C67.359 177.485 65.0743 177.045 62.8614 176.377C62.2964 176.196 56.1695 174.108 56.1695 173.792Z" fill="#DEDEDE"/>
<path d="M52.6051 143.969C53.65 144.897 54.499 146.024 55.1021 147.284C53.0046 147.406 49.6961 147.506 50.1518 144.631C50.3953 143.039 51.5751 143.077 52.6051 143.969Z" fill="#FFBC3B"/>
<path d="M39.3055 162.906C40.6351 162.041 42.4548 162.088 42.3549 164.083C42.2769 165.643 40.2762 167.244 39.2836 168.299C37.9197 169.748 36.5151 171.155 35.1699 172.625C34.0369 173.874 32.8727 175.175 31.8427 176.517C31.0936 177.494 30.1915 178.215 28.9087 178.34C28.646 178.361 28.3821 178.319 28.1383 178.219C27.8945 178.119 27.6776 177.963 27.5051 177.764C27.3326 177.565 27.2093 177.328 27.1452 177.072C27.081 176.817 27.0779 176.55 27.1359 176.293C27.448 174.926 28.5841 173.899 29.5361 172.941C31.0967 171.38 32.6823 169.841 34.1992 168.237C34.9046 167.482 35.6131 166.717 36.3091 165.965C37.2611 164.938 38.1007 163.689 39.3055 162.906Z" fill="#F51842"/>
<path d="M36.5026 121.113C37.5951 122.258 37.876 124.059 35.9034 124.324C34.3428 124.527 32.4107 122.854 31.1966 122.074C29.5236 120.997 27.8818 119.873 26.2026 118.819C24.7731 117.926 23.2749 117.024 21.7674 116.259C20.6718 115.697 19.7979 114.939 19.4358 113.7C19.3693 113.446 19.3627 113.181 19.4166 112.925C19.4705 112.668 19.5834 112.428 19.7464 112.223C19.9094 112.018 20.118 111.853 20.3556 111.743C20.5931 111.633 20.8532 111.579 21.115 111.587C22.5196 111.649 23.7369 112.57 24.8605 113.331C26.6895 114.58 28.4811 115.86 30.3382 117.055C31.2059 117.617 32.0892 118.169 32.9538 118.716C34.1305 119.474 35.5101 120.07 36.5026 121.113Z" fill="#F51842"/>
<path d="M31.4152 141.279C32.9758 141.591 34.2243 142.914 32.7511 144.263C31.5931 145.318 29.0493 145.046 27.6073 145.099C25.6191 145.165 23.6247 145.177 21.6364 145.274C19.9541 145.358 18.2031 145.467 16.5333 145.698C15.316 145.864 14.1642 145.742 13.1592 144.928C12.9594 144.756 12.8024 144.541 12.7008 144.298C12.5991 144.056 12.5557 143.793 12.5739 143.53C12.5921 143.268 12.6714 143.014 12.8056 142.787C12.9397 142.561 13.125 142.369 13.3465 142.228C14.5388 141.475 16.0619 141.544 17.4041 141.532C19.6108 141.51 21.8206 141.547 24.0273 141.472C25.0604 141.435 26.0967 141.385 27.1235 141.344C28.5218 141.285 29.9919 140.992 31.4152 141.279Z" fill="#F51842"/>
<path d="M211.11 262.104V261.901C220.224 261.589 230.867 256.283 238.701 250.203L238.864 250.409C238.533 253.043 238.689 255.94 238.492 258.303C238.105 262.938 237.868 267.729 238.217 272.398C232.802 272.71 227.565 274.115 221.962 273.665C215.525 273.094 209.201 271.614 203.179 269.271C198.029 267.267 193.45 263.943 189.068 260.637C186.084 258.378 183.73 255.687 181.171 252.978C180.715 252.497 180.235 251.861 179.726 251.211C182.7 252.881 185.731 254.467 188.812 256.08C192.588 258.059 196.63 259.37 200.753 260.494C204.131 261.432 207.607 261.972 211.11 262.104Z" fill="#E39476"/>
<path d="M171.745 495.911C174.866 498.346 173.552 502.329 171.373 504.91C169.195 507.491 164.369 505.275 163.221 502.703C161.763 499.448 163.679 495.1 167.465 494.835C169.207 494.713 170.284 494.775 171.745 495.911Z" fill="#37628F"/>
<path d="M330.134 601.711H247.553C247.669 589.058 247.834 576.314 246.707 563.77C245.771 553.22 245.193 542.624 245.477 532.03C245.712 523.328 245.022 514.505 245.315 505.74C245.627 495.933 247.75 486.183 248.152 476.335C248.464 468.991 249.713 461.887 251.274 454.708C253.056 446.471 252.943 437.985 255.194 429.77C257.472 421.474 259.876 413.227 261.53 404.728C263.028 397 263.949 389.206 265.531 381.516C269.124 364.084 269.211 346.446 266.365 328.886C265.534 323.761 265.179 318.661 263.908 313.592C261.411 303.679 256.901 294.016 249.161 287.127C246.298 284.58 242.378 283.347 239.585 280.978C239.322 279.592 239.02 278.216 238.767 276.811C238.744 276.705 238.725 276.601 238.711 276.499C241.951 276.134 245.615 278.372 248.511 279.521C255.415 282.267 262.488 284.574 269.37 287.389C272.538 288.681 275.753 290.042 278.853 291.428C281.877 292.783 284.293 295.149 287.33 296.509C290.726 298.033 294.131 299.537 297.577 300.951C304.909 303.96 312.321 306.862 319.194 310.848C328.315 316.154 336.889 321.429 344.164 329.263C350.947 336.595 356.337 346.271 361.037 355.032C366.237 364.727 370.158 375.567 373.672 385.973C374.521 388.495 375.77 391.035 376.263 393.648C377.199 398.567 377.511 403.698 378.26 408.673C379.103 414.292 379.872 419.926 380.567 425.578C381.987 437.055 383.142 448.566 384.138 460.086C385.408 474.778 385.249 489.56 386.825 504.229C388.364 518.587 393.969 531.49 396.391 545.589C397.952 554.734 396.132 563.907 395.536 573.055C395.224 577.981 397.025 582.731 396.966 587.641C396.91 592.36 395.645 596.973 395.514 601.708L330.134 601.711Z" fill="#F51842"/>
<path d="M62.5148 338.78C62.0217 336.448 61.7189 334.098 61.2663 331.723C60.8044 329.226 60.2394 326.729 59.6745 324.232C57.3211 313.841 55.5482 304.166 58.8255 293.741C61.7688 284.377 66.872 275.819 69.1068 266.23C70.6393 259.657 70.2741 253.053 70.0619 246.351C69.7935 238.139 70.2211 229.899 70.271 221.694C70.3054 215.944 69.6468 207.589 75.3336 204.099C76.9504 203.11 77.9336 203.091 79.6596 203.872C84.588 206.097 85.515 213.385 85.7273 218.051C86.3234 231.12 85.8334 244.145 85.7803 257.226C85.7803 257.934 85.9114 258.371 85.9395 259.017C87.7319 258.939 89.5249 259.159 91.2456 259.666C98.8707 261.964 104.043 268.737 108.724 274.857C109.789 270.388 112.267 264.979 116.939 263.406C118.36 262.928 119.577 262.594 120.997 263.112C123.144 263.902 125.117 265.235 126.141 267.335C128.351 271.852 126.066 277.482 125.07 282.027C124.384 285.164 123.544 288.241 123.563 291.509C123.563 295.07 124.168 298.594 124.256 302.152C124.327 305.043 124.312 307.958 124.096 310.854C123.866 314.383 123.231 317.873 122.205 321.257C119.68 329.288 114.755 336.224 111.393 343.883C110.569 345.756 109.876 347.682 109.208 349.589C107.223 355.11 105.288 360.491 100.241 364.355C93.599 369.455 84.7098 367.788 77.9586 363.818C74.2683 361.65 71.0171 358.81 68.3733 355.444C66.9032 353.571 66.4038 352.248 65.9825 349.988C65.4331 347.032 64.0005 344.208 63.1578 341.327C62.906 340.482 62.6917 339.633 62.5148 338.78Z" fill="#F5B49B"/>
<path d="M229.038 209.428C230.599 213.282 227.203 217.615 224.668 220.23C220.445 224.569 214.927 227.097 208.788 226.292C205.332 225.842 202.583 225.071 199.642 223.139C196.98 221.388 194.468 219.294 192.567 216.722C191.081 214.709 189.904 211.047 191.574 208.788C192.957 206.915 195.61 206.266 197.817 206.497C199.867 206.706 201.971 206.737 204.028 206.887C205.947 206.988 207.871 206.979 209.79 206.859C212.305 206.743 214.84 206.859 217.34 206.547C219.625 206.235 221.859 205.298 224.185 205.807C226.329 206.266 228.17 207.299 229.038 209.428Z" fill="white"/>
<path d="M131.269 179.27C130.916 176.773 130.645 174.276 130.333 171.814C130.021 169.108 129.783 166.33 128.944 163.698C127.258 158.417 123.993 153.82 122.199 148.582C121.356 146.123 120.875 143.885 120.91 141.273C120.953 138.432 121.328 135.614 121.575 132.786C121.98 128.057 122.97 123.397 124.071 118.787C125.529 112.72 127.714 106.446 127.058 100.144C126.98 99.4139 126.887 98.6867 126.793 97.9594C126.191 93.2027 127.798 89.6788 129.974 85.59C133.329 79.2727 138.335 73.4173 144.756 70.0464C151.81 66.3477 160.424 65.0961 167.797 61.8969C170.963 60.5144 174.012 58.8766 176.914 56.9997C178.103 56.2319 179.008 55.2424 180.26 54.5932C182.148 53.6163 184.146 52.8204 186.087 51.987C188.435 50.9736 190.891 50.2292 193.406 49.7678C201.152 48.4338 209.098 48.8605 216.656 51.0163C223.929 53.1013 231.482 57.5709 233.283 65.4676C233.745 67.5026 235.268 67.3091 237.116 67.3091C242.578 66.0606 248.439 67.3091 253.299 69.9746C260.372 73.848 262.76 80.5867 266.564 87.1413C269.945 92.9686 274.68 97.8377 278.812 103.106C284.078 109.814 288.088 117.386 286.784 126.172C286.159 130.264 285.535 134.106 285.672 138.214C285.8 142.393 283.8 147.125 282.767 151.129C282.089 153.723 281.83 156.535 280.825 158.982C278.394 164.828 277.997 170.993 278.275 177.216C278.294 177.669 278.313 178.122 278.341 178.577C278.398 180.243 278.352 181.911 278.203 183.571C278.155 184.753 277.945 185.923 277.579 187.048C277.223 188.028 276.402 189.545 275.21 189.711C271.312 190.288 272.061 178.967 272.002 176.882C271.805 170.016 270.588 162.31 266.627 156.485C264.57 153.464 263.309 149.641 262.466 146.089C261.53 142.153 261.283 138.445 261.286 134.431C261.286 128.188 261.745 121.877 258.399 116.197C255.34 111.006 249.058 108.706 243.324 108.281C241.947 108.178 241.073 108.266 239.728 108.185C230.452 107.626 221.313 108.266 212.689 111.889C209.95 113.004 207.009 113.535 204.053 113.45C196.493 113.313 189.342 110.291 182.02 108.768C178.514 108.036 174.922 107.805 171.352 108.082C167.578 108.341 163.792 108.575 160.655 110.987C157.827 113.172 155.895 116.293 154.8 119.661C154.068 121.996 153.59 124.403 153.373 126.84C153.061 129.889 153.948 132.792 153.686 135.81C153.249 141.073 152.281 146.11 149.734 150.792C149.072 152.01 148.62 153.311 148.064 154.572C147.559 155.714 146.797 156.554 146.117 157.59C144.625 159.859 142.97 162.063 141.934 164.594C139.578 170.372 141.063 176.701 141.148 182.697C141.185 185.157 141.148 187.832 139.546 189.851C137.877 191.936 135.645 191.359 134.053 189.486C132.39 187.538 132.205 185.06 131.787 182.65C131.606 181.502 131.425 180.394 131.269 179.27Z" fill="#1E244A"/>
<path d="M238.711 276.499C238.725 276.605 238.744 276.709 238.767 276.811C238.658 276.746 238.551 276.758 238.517 276.518C238.58 276.512 238.664 276.506 238.711 276.499Z" fill="#8CC295"/>
<path d="M241.591 170.512C242.016 172.697 241.304 175.041 240.096 176.867C238.751 178.896 235.789 179.158 233.585 178.552C228.666 177.204 227.218 171.374 230.658 167.712C232.496 165.758 235.611 164.37 238.183 165.73C239.765 166.567 241.254 168.774 241.591 170.512Z" fill="#2B1A0F"/>
<path d="M175.303 554.503C178.424 556.937 177.107 560.92 174.935 563.501C172.762 566.083 167.931 563.866 166.782 561.295C165.325 558.036 167.241 553.691 171.021 553.426C172.762 553.304 173.842 553.367 175.303 554.503Z" fill="#37628F"/>
<path d="M111.318 353.918C115.657 367.361 108.543 375.127 106.59 387.705C105.029 397.774 108.774 406.882 108.372 416.717C108.1 423.062 104.58 428.496 102.947 434.486C102.233 437.173 101.691 439.902 101.324 442.657C97.6785 468.904 91.7731 495.016 86.6356 521.053C85.3871 527.295 84.3353 534.028 82.7279 540.617C80.6897 548.972 77.7807 557.087 72.5746 563.633C60.2145 579.17 30.4974 585.2 14.8071 570.883C5.44343 562.334 1.83842 548.722 0.561843 536.55C-2.27222 509.548 5.86791 480.627 14.8976 455.498C18.0625 446.705 22.3323 438.359 25.5534 429.592C28.5955 421.457 30.5883 412.968 31.4837 404.329C32.108 398.139 33.5812 392.078 36.5464 386.575C40.0265 380.121 46.0442 375.479 48.1698 368.26C51.06 358.441 49.2029 347.061 59.2095 340.725C60.33 340.016 61.616 339.66 62.493 338.783C62.672 339.632 62.8801 340.478 63.1173 341.321C63.96 344.202 65.3926 347.026 65.942 349.982C66.3633 352.242 66.8627 353.562 68.3328 355.438C70.9766 358.804 74.2278 361.644 77.9181 363.812C84.6693 367.773 93.5585 369.449 100.2 364.349C105.247 360.485 107.183 355.104 109.168 349.583C110.744 350.419 110.806 352.298 111.318 353.918Z" fill="#F51842"/>
<path d="M179.464 277.011C179.464 276.79 179.464 276.574 179.464 276.356C179.699 271.944 179.706 267.522 179.482 263.109C179.351 260.903 179.139 258.702 178.811 256.52C178.671 255.584 178.374 254.673 178.209 253.792C178.059 252.968 178.287 251.698 177.713 251.018L178.122 250.312C178.646 250.624 179.177 250.918 179.71 251.221C180.219 251.87 180.7 252.506 181.155 252.987C183.715 255.687 186.068 258.377 189.058 260.637C193.428 263.943 198.019 267.267 203.169 269.271C209.192 271.614 215.516 273.094 221.953 273.665C227.571 274.115 232.793 272.729 238.208 272.398C238.264 273.206 238.339 274.009 238.439 274.804C238.508 275.376 238.595 275.937 238.695 276.499C238.633 276.499 238.564 276.499 238.501 276.524C238.536 276.765 238.642 276.752 238.751 276.818C239.004 278.222 239.307 279.599 239.569 280.984C239.966 282.889 240.135 284.833 240.071 286.777C239.855 290.454 238.886 294.047 237.225 297.333C233.985 303.841 228.32 309.235 221.522 311.878C220.183 312.399 218.857 312.999 217.499 313.473C214.988 314.315 212.34 314.671 209.696 314.522C207.046 314.351 204.421 313.914 201.858 313.217C197.676 312.103 194.186 310.961 190.622 308.354C185.263 304.422 181.112 298.679 179.439 292.205C178.794 289.936 178.725 287.542 179.236 285.239C179.456 284.077 179.561 282.897 179.548 281.715C179.545 280.132 179.436 278.572 179.464 277.011Z" fill="#F5B49B"/>
<path d="M247.403 145.876C248.449 147.577 247.481 149.406 245.602 149.684C243.848 149.946 242.134 149.181 240.518 148.62C239.781 148.361 238.988 148.055 238.242 147.874C237.306 147.646 236.404 147.936 235.471 147.908C232.78 147.824 230.402 148.86 227.889 149.659C227.221 149.868 226.366 149.946 225.704 149.559C223.404 148.236 225.205 145.985 226.591 144.752C227.472 143.938 228.506 143.308 229.634 142.898C231.195 142.309 232.983 141.65 234.628 141.413C236.063 141.163 237.525 141.105 238.976 141.238C241.904 141.569 245.805 143.267 247.403 145.876Z" fill="#1E244A"/>
<path d="M187.963 145.876C189.011 147.577 188.041 149.407 186.159 149.684C184.405 149.946 182.697 149.182 181.08 148.62C180.344 148.361 179.551 148.055 178.802 147.874C177.866 147.646 176.964 147.936 176.027 147.908C173.337 147.824 170.961 148.86 168.446 149.659C167.784 149.868 166.929 149.946 166.261 149.559C163.961 148.236 165.758 145.986 167.144 144.753C168.026 143.937 169.061 143.307 170.191 142.899C171.751 142.309 173.54 141.65 175.184 141.413C176.615 141.168 178.072 141.113 179.517 141.248C182.448 141.569 186.355 143.267 187.963 145.876Z" fill="#1E244A"/>
<path d="M183.059 170.512C183.484 172.697 182.772 175.041 181.561 176.867C180.216 178.896 177.254 179.158 175.05 178.552C170.134 177.204 168.686 171.374 172.123 167.712C173.964 165.758 177.076 164.37 179.648 165.73C181.233 166.567 182.722 168.774 183.059 170.512Z" fill="#2B1A0F"/>
<path d="M179.726 251.22C179.192 250.908 178.661 250.618 178.137 250.312C175.091 248.564 172.104 246.704 169.173 244.631C163.402 240.546 157.222 235.873 152.961 230.161C150.439 226.784 147.83 223.548 145.193 220.245C142.845 217.305 141.328 213.803 139.056 210.813C136.64 207.629 133.919 207.124 130.56 205.223C127.127 203.282 123.931 200.632 121.634 197.42C120.735 196.171 119.792 195.235 119.162 193.815C118.443 192.305 117.849 190.739 117.386 189.133C116.527 185.871 116.484 182.36 117.791 179.205C118.366 177.901 119.272 176.77 120.418 175.924C121.565 175.077 122.912 174.545 124.327 174.379C128.051 174.008 129.321 176.704 131.269 179.251C131.425 180.375 131.597 181.492 131.793 182.613C132.211 185.022 132.396 187.501 134.059 189.448C135.651 191.321 137.883 191.898 139.553 189.814C141.169 187.794 141.191 185.132 141.154 182.66C141.069 176.648 139.593 170.318 141.94 164.557C142.976 162.025 144.631 159.822 146.123 157.553C146.803 156.516 147.565 155.68 148.07 154.534C148.626 153.286 149.078 151.972 149.74 150.755C152.287 146.073 153.255 141.032 153.692 135.773C153.944 132.755 153.067 129.842 153.38 126.802C153.596 124.365 154.075 121.959 154.806 119.624C155.892 116.268 157.824 113.125 160.652 110.962C163.789 108.55 167.575 108.315 171.348 108.056C174.919 107.78 178.511 108.011 182.017 108.743C189.339 110.279 196.49 113.3 204.049 113.425C207.005 113.51 209.947 112.979 212.686 111.864C221.313 108.241 230.449 107.601 239.725 108.159C241.07 108.241 241.944 108.159 243.321 108.256C249.054 108.687 255.337 110.981 258.396 116.172C261.742 121.852 261.292 128.16 261.283 134.406C261.283 138.42 261.527 142.128 262.463 146.063C263.306 149.615 264.567 153.439 266.623 156.46C270.584 162.284 271.802 169.978 271.998 176.857C272.058 178.942 271.308 190.279 275.207 189.686C276.399 189.508 277.22 188.003 277.576 187.023C277.942 185.898 278.152 184.728 278.2 183.546C278.349 181.886 278.394 180.218 278.337 178.552C278.309 178.096 278.291 177.644 278.272 177.191H278.456C281.758 172.247 288.881 174.804 290.844 179.529C292.196 182.785 292.146 186.396 291.262 189.776C290.781 191.428 290.168 193.039 289.427 194.592C288.778 196.062 287.804 197.027 286.88 198.319C284.505 201.627 281.19 204.368 277.657 206.365C275.054 207.845 272.304 209.034 269.639 210.385L269.448 210.301C266.071 218.014 261.901 226.004 256.726 232.25C252.669 237.141 247.743 241.963 243.158 246.373C241.744 247.724 240.262 249.001 238.717 250.2C230.882 256.295 220.239 261.598 211.125 261.898V262.101C207.623 261.972 204.147 261.434 200.769 260.5C196.646 259.376 192.604 258.065 188.827 256.086C185.731 254.476 182.7 252.89 179.726 251.22ZM245.615 149.684C247.487 149.406 248.461 147.577 247.416 145.876C245.805 143.267 241.903 141.569 238.96 141.247C237.514 141.112 236.056 141.168 234.625 141.413C232.983 141.663 231.191 142.309 229.631 142.899C228.503 143.308 227.468 143.938 226.588 144.753C225.202 145.985 223.401 148.236 225.701 149.559C226.375 149.946 227.231 149.871 227.886 149.659C230.383 148.86 232.777 147.824 235.468 147.908C236.404 147.936 237.312 147.646 238.239 147.874C238.985 148.055 239.778 148.361 240.515 148.62C242.147 149.182 243.86 149.946 245.615 149.684ZM240.096 176.867C241.304 175.041 242.016 172.703 241.591 170.512C241.254 168.773 239.765 166.567 238.183 165.73C235.611 164.369 232.496 165.758 230.658 167.712C227.224 171.364 228.666 177.204 233.585 178.552C235.789 179.158 238.751 178.896 240.096 176.867ZM224.659 220.23C227.203 217.614 230.589 213.282 229.028 209.427C228.161 207.299 226.319 206.265 224.181 205.8C221.856 205.295 219.621 206.244 217.336 206.54C214.839 206.852 212.302 206.743 209.786 206.852C207.868 206.972 205.944 206.982 204.024 206.88C201.967 206.731 199.864 206.699 197.813 206.49C195.591 206.259 192.938 206.908 191.571 208.781C189.901 211.041 191.078 214.711 192.563 216.715C194.464 219.287 196.977 221.382 199.639 223.133C202.579 225.065 205.329 225.835 208.784 226.285C214.917 227.071 220.436 224.575 224.659 220.23ZM186.159 149.69C188.031 149.412 189.011 147.583 187.963 145.882C186.355 143.273 182.447 141.575 179.504 141.254C178.059 141.118 176.602 141.174 175.172 141.419C173.533 141.669 171.739 142.315 170.178 142.905C169.049 143.313 168.013 143.943 167.132 144.759C165.746 145.992 163.948 148.242 166.248 149.565C166.922 149.952 167.778 149.878 168.433 149.665C170.949 148.866 173.324 147.83 176.015 147.914C176.951 147.942 177.865 147.652 178.789 147.88C179.538 148.061 180.331 148.367 181.068 148.626C182.697 149.182 184.404 149.946 186.159 149.684V149.69ZM181.561 176.873C182.772 175.047 183.484 172.709 183.059 170.518C182.722 168.78 181.23 166.573 179.648 165.736C177.076 164.376 173.964 165.765 172.122 167.718C168.689 171.37 170.134 177.21 175.05 178.558C177.254 179.158 180.216 178.896 181.561 176.867V176.873Z" fill="#F5B49B"/>
<path d="M52.9515 129.356C51.3441 130.033 49.6056 131.322 49.2997 132.73C49.1312 133.491 49.3653 134.29 49.1655 135.055C48.8284 136.304 47.4676 136.928 46.4937 137.802C45.6843 138.547 45.1132 139.514 44.8522 140.583C44.5912 141.651 44.6519 142.773 45.0268 143.807C45.651 145.443 47.0618 146.785 47.246 148.526C47.402 150.003 46.6935 151.741 47.6923 152.84C48.5381 153.776 50.0394 153.558 51.2193 153.995C52.7362 154.553 53.6445 156.18 55.1208 156.835C57.2557 157.806 59.6902 156.504 62.0343 156.401C63.4544 156.336 64.8434 156.713 66.2635 156.891C67.6837 157.069 69.2162 156.985 70.3492 156.123C71.5977 155.187 72.0409 153.542 72.9648 152.287C73.8887 151.033 75.2058 150.224 76.3981 149.25C77.5904 148.277 78.6766 147.006 78.7921 145.48C78.9481 143.408 77.2814 141.678 76.6884 139.687C76.2982 138.385 76.3763 136.993 76.2327 135.629C76.0954 134.362 75.6771 132.695 74.36 132.196C73.6421 131.925 72.8555 131.912 72.1158 131.725C69.7655 131.122 68.1956 128.866 65.9576 127.933C64.5188 127.33 62.8864 127.308 61.357 127.62C59.9181 127.904 58.4574 128.841 56.9873 128.869C55.5172 128.897 54.328 128.753 52.9515 129.356Z" fill="white"/>
<path d="M195.903 581.146C194.798 577.828 194.876 574.469 194.289 571.011C192.879 562.696 191.949 554.306 191.206 545.91C190.853 541.9 191.068 537.424 190.173 533.507C189.461 530.385 189.236 527.448 189.065 524.23C188.159 508.74 185.497 493.403 181.13 478.514C181.308 479.584 181.48 480.661 181.633 481.744C183.328 493.705 184.202 505.778 184.754 517.826C184.776 518.322 184.801 518.818 184.823 519.314C185.104 525.526 185.307 531.737 185.503 537.945C185.893 550.161 186.23 562.156 186.187 574.404C186.159 583.512 185.828 592.616 185.385 601.711H198.681C198.475 598.974 198.104 596.234 197.726 593.528C197.177 589.564 197.152 584.941 195.903 581.146Z" fill="#EDEDED"/>
<path d="M266.365 328.886C265.534 323.761 265.179 318.661 263.908 313.592C261.411 303.679 256.901 294.016 249.161 287.127C246.298 284.58 242.378 283.347 239.585 280.978C239.982 282.882 240.151 284.827 240.087 286.771C239.871 290.448 238.902 294.04 237.241 297.327C234.001 303.835 228.336 309.228 221.538 311.872C220.199 312.393 218.872 312.993 217.515 313.467C215.004 314.309 212.355 314.665 209.711 314.516C207.057 314.348 204.426 313.913 201.859 313.217C197.676 312.103 194.187 310.961 190.622 308.354C185.263 304.422 181.112 298.679 179.439 292.205C178.794 289.936 178.725 287.542 179.236 285.239C179.456 284.077 179.561 282.897 179.548 281.715C178.724 282.554 176.957 283.544 175.962 284.443C169.669 290.127 166.48 299.834 163.605 307.574C158.299 321.816 157.225 337.029 157.094 352.095C156.966 367.467 157.924 382.771 160.334 397.977C161.612 406.143 163.326 414.234 165.468 422.216C170.621 441.296 177.863 458.978 181.118 478.514C185.485 493.403 188.147 508.74 189.052 524.23C189.239 527.448 189.449 530.401 190.16 533.507C191.056 537.424 190.841 541.9 191.193 545.91C191.936 554.306 192.866 562.696 194.277 571.011C194.864 574.469 194.786 577.828 195.891 581.146C197.158 584.941 197.177 589.573 197.729 593.528C198.107 596.234 198.478 598.974 198.684 601.711H247.553C247.669 589.058 247.834 576.314 246.707 563.77C245.771 553.22 245.193 542.624 245.477 532.03C245.712 523.328 245.022 514.505 245.315 505.74C245.627 495.933 247.75 486.183 248.152 476.335C248.465 468.991 249.713 461.887 251.274 454.708C253.056 446.471 252.943 437.985 255.194 429.77C257.472 421.474 259.876 413.227 261.53 404.728C263.028 397 263.949 389.206 265.531 381.516C269.124 364.093 269.211 346.446 266.365 328.886Z" fill="#FFFBF2"/>
<path d="M218.423 104.617C218.25 104.617 218.081 104.565 217.938 104.47C217.794 104.374 217.682 104.238 217.615 104.078C217.548 103.919 217.53 103.744 217.563 103.574C217.596 103.404 217.678 103.248 217.799 103.125C224.182 96.6578 227.119 88.1431 229.154 80.6928C229.18 80.5778 229.23 80.4693 229.299 80.3738C229.368 80.2783 229.456 80.1979 229.558 80.1372C229.659 80.0765 229.771 80.0369 229.888 80.0207C230.005 80.0046 230.124 80.0121 230.238 80.043C230.352 80.0739 230.458 80.1275 230.551 80.2005C230.644 80.2736 230.721 80.3646 230.778 80.4681C230.834 80.5716 230.87 80.6855 230.881 80.8029C230.893 80.9204 230.881 81.039 230.845 81.1516C227.1 94.8444 222.79 100.566 219.047 104.358C218.966 104.441 218.869 104.506 218.761 104.551C218.654 104.595 218.539 104.618 218.423 104.617Z" fill="black"/>
<path d="M232.515 104.954C232.308 104.954 232.108 104.88 231.95 104.747C231.792 104.613 231.687 104.428 231.652 104.224C231.617 104.02 231.656 103.811 231.76 103.632C231.865 103.454 232.03 103.319 232.225 103.25C236.796 101.672 241.018 99.2244 244.66 96.0429C244.835 95.8893 245.064 95.8116 245.296 95.8268C245.528 95.842 245.745 95.949 245.899 96.124C246.052 96.2991 246.13 96.528 246.115 96.7604C246.1 96.9928 245.993 97.2096 245.818 97.3632C242.005 100.691 237.587 103.252 232.805 104.907C232.712 104.938 232.614 104.953 232.515 104.954Z" fill="black"/>
<path d="M192.258 96.458C192.058 96.4574 191.864 96.3884 191.708 96.2624C191.553 96.1363 191.445 95.9608 191.403 95.7651C189.43 86.6355 184.311 79.7282 177.357 76.8161C177.251 76.7715 177.155 76.7063 177.073 76.6243C176.992 76.5423 176.928 76.4452 176.884 76.3383C176.841 76.2315 176.819 76.1172 176.819 76.0018C176.82 75.8865 176.843 75.7723 176.888 75.666C176.932 75.5596 176.998 75.4631 177.079 75.3819C177.161 75.3007 177.259 75.2365 177.365 75.1929C177.472 75.1493 177.587 75.1271 177.702 75.1277C177.817 75.1283 177.931 75.1516 178.038 75.1962C185.529 78.3362 191.025 85.6991 193.12 95.3967C193.168 95.6239 193.124 95.8609 192.999 96.0562C192.873 96.2515 192.675 96.3891 192.448 96.4392C192.386 96.4519 192.322 96.4581 192.258 96.458Z" fill="black"/>
<path d="M162.731 96.043C162.582 96.0423 162.436 96.0036 162.307 95.9307C157 92.9874 151.935 91.8294 147.212 92.4973C147.098 92.5133 146.982 92.5067 146.87 92.4778C146.759 92.4488 146.654 92.3982 146.562 92.3288C146.47 92.2594 146.393 92.1725 146.334 92.0732C146.276 91.9738 146.237 91.864 146.221 91.7498C146.205 91.6357 146.212 91.5195 146.241 91.4079C146.27 91.2963 146.32 91.1915 146.39 91.0995C146.459 91.0075 146.546 90.93 146.646 90.8716C146.745 90.8131 146.855 90.7748 146.969 90.7588C152.078 90.0409 157.525 91.2676 163.159 94.4013C163.329 94.4954 163.464 94.6437 163.541 94.8227C163.617 95.0017 163.633 95.2012 163.584 95.3898C163.535 95.5783 163.424 95.7452 163.27 95.8641C163.115 95.9829 162.926 96.047 162.731 96.0462V96.043Z" fill="black"/>
<path d="M211.391 195.013C210.384 194.996 209.391 194.769 208.476 194.349C206.991 193.751 205.628 192.888 204.452 191.802C204.312 191.635 204.239 191.422 204.247 191.204C204.255 190.987 204.344 190.78 204.496 190.624C204.649 190.468 204.853 190.374 205.071 190.361C205.288 190.348 205.503 190.417 205.673 190.553C206.7 191.487 207.887 192.227 209.178 192.738C210.049 193.162 211.025 193.327 211.987 193.213C212.65 193.102 213.295 192.901 213.904 192.616C214.737 192.232 217.259 191.056 215.601 185.619C215.052 183.821 214.406 182.014 213.782 180.269C213.211 178.674 212.621 177.023 212.103 175.372C211.847 174.463 211.693 173.53 211.644 172.588C211.606 172.157 211.572 171.748 211.513 171.339C211.063 168.143 211.344 164.847 211.712 161.76C211.726 161.646 211.762 161.535 211.819 161.435C211.875 161.334 211.951 161.246 212.041 161.175C212.132 161.104 212.236 161.051 212.347 161.02C212.457 160.989 212.573 160.98 212.688 160.994C212.802 161.008 212.913 161.044 213.013 161.1C213.113 161.157 213.202 161.232 213.273 161.323C213.344 161.413 213.397 161.517 213.428 161.628C213.459 161.739 213.468 161.855 213.454 161.969C213.098 164.937 212.83 168.096 213.251 171.096C213.314 171.554 213.354 172.004 213.392 172.438C213.43 173.253 213.559 174.061 213.776 174.847C214.284 176.467 214.868 178.1 215.433 179.679C216.057 181.446 216.719 183.271 217.281 185.11C219.019 190.822 216.803 193.225 214.64 194.211C213.885 194.564 213.084 194.812 212.262 194.948C211.974 194.992 211.682 195.014 211.391 195.013Z" fill="#AB684D"/>
<path d="M133.922 200.373C133.759 200.373 133.599 200.328 133.46 200.242C133.321 200.157 133.209 200.035 133.136 199.889C132.683 198.984 131.822 198.4 130.907 197.782C129.849 197.067 128.647 196.256 128.079 194.833C127.511 193.409 127.898 192.067 128.251 190.925C128.411 190.457 128.535 189.977 128.619 189.489C128.648 189 128.553 188.511 128.341 188.069C128.248 187.813 128.151 187.551 128.07 187.258C127.814 186.321 127.583 185.759 127.04 185.313C125.641 184.168 124.393 183.603 123.525 183.721C123.283 183.761 123.052 183.853 122.849 183.991C122.645 184.128 122.473 184.307 122.345 184.517C122.209 184.701 122.006 184.824 121.78 184.86C121.554 184.896 121.323 184.843 121.136 184.711C120.949 184.579 120.821 184.379 120.779 184.154C120.737 183.928 120.785 183.696 120.913 183.506C121.177 183.097 121.525 182.749 121.935 182.486C122.345 182.224 122.806 182.052 123.288 181.983C124.686 181.795 126.322 182.457 128.151 183.958C129.143 184.77 129.493 185.806 129.762 186.792C129.824 187.017 129.902 187.236 129.989 187.47C130.31 188.183 130.436 188.968 130.355 189.745C130.259 190.322 130.116 190.89 129.927 191.443C129.615 192.476 129.353 193.291 129.708 194.183C130.064 195.076 130.916 195.672 131.893 196.331C132.87 196.989 134.05 197.789 134.702 199.103C134.769 199.236 134.8 199.385 134.793 199.534C134.786 199.683 134.741 199.828 134.663 199.955C134.584 200.082 134.475 200.187 134.345 200.26C134.215 200.333 134.068 200.372 133.919 200.373H133.922Z" fill="#AB684D"/>
<path d="M275.638 201.415C275.502 201.416 275.368 201.384 275.248 201.322C275.145 201.27 275.053 201.199 274.977 201.112C274.901 201.025 274.844 200.924 274.807 200.815C274.771 200.705 274.756 200.59 274.764 200.475C274.772 200.36 274.803 200.248 274.854 200.145C275.532 198.797 276.727 197.998 277.751 197.295C278.775 196.593 279.624 196.025 280.014 195.067C280.404 194.108 280.107 193.247 279.789 192.22C279.596 191.649 279.447 191.064 279.346 190.469C279.265 189.671 279.395 188.866 279.723 188.134C279.811 187.894 279.895 187.666 279.958 187.435C280.235 186.418 280.582 185.357 281.612 184.52C283.485 182.978 285.176 182.292 286.606 182.488C287.099 182.56 287.571 182.736 287.99 183.006C288.41 183.275 288.767 183.63 289.037 184.049C289.165 184.239 289.213 184.471 289.171 184.697C289.129 184.922 289.001 185.122 288.814 185.254C288.627 185.386 288.396 185.439 288.17 185.403C287.944 185.367 287.741 185.244 287.605 185.06C287.469 184.839 287.288 184.65 287.072 184.506C286.856 184.362 286.612 184.267 286.356 184.227C285.451 184.105 284.152 184.689 282.704 185.878C282.136 186.343 281.899 186.923 281.631 187.897C281.549 188.209 281.45 188.472 281.353 188.734C281.153 189.289 280.994 189.726 281.062 190.213C281.151 190.718 281.278 191.214 281.443 191.699C281.808 192.876 282.224 194.196 281.624 195.716C281.025 197.236 279.858 197.976 278.715 198.75C277.779 199.374 276.877 199.998 276.406 200.935C276.333 201.077 276.223 201.196 276.088 201.281C275.953 201.365 275.797 201.412 275.638 201.415Z" fill="#AB684D"/>
<path d="M105.803 303.283C105.637 303.281 105.472 303.251 105.316 303.192C105.284 303.177 105.249 303.168 105.213 303.167C104.987 303.142 104.779 303.03 104.634 302.855C104.488 302.679 104.417 302.454 104.435 302.227C104.453 301.999 104.558 301.788 104.729 301.637C104.9 301.487 105.123 301.409 105.351 301.419C105.516 301.43 105.678 301.463 105.835 301.516C105.919 301.497 106.005 301.491 106.091 301.497C108.419 301.669 110.46 298.766 111.178 296.903C112.395 293.8 112.739 290.211 112.189 286.228C111.727 282.861 111.125 279.362 109.293 277.008L108.257 275.66C108.115 275.475 108.053 275.241 108.084 275.01C108.114 274.779 108.236 274.57 108.421 274.429C108.606 274.287 108.839 274.225 109.07 274.255C109.301 274.286 109.51 274.407 109.652 274.592C109.995 275.046 110.339 275.493 110.682 275.935C112.776 278.644 113.435 282.389 113.928 285.991C114.515 290.273 114.137 294.159 112.811 297.54C112.249 298.966 111.405 300.265 110.329 301.357C109.009 302.668 107.548 303.323 106.1 303.267C106.002 303.28 105.902 303.286 105.803 303.283Z" fill="#AB684D"/>
<path d="M75.4244 263.59C75.2447 263.585 75.0708 263.526 74.926 263.419C74.7813 263.313 74.6728 263.164 74.6153 262.994C74.5577 262.824 74.5539 262.64 74.6043 262.467C74.6546 262.295 74.7568 262.142 74.8969 262.029C77.8495 259.838 81.3526 258.508 85.0159 258.19C85.2477 258.17 85.4779 258.243 85.6558 258.393C85.8338 258.543 85.9449 258.757 85.9648 258.989C85.9847 259.221 85.9116 259.451 85.7618 259.629C85.6119 259.807 85.3975 259.918 85.1658 259.938C81.8306 260.228 78.6412 261.437 75.9519 263.431C75.7978 263.539 75.6128 263.595 75.4244 263.59Z" fill="#AB684D"/>
<path d="M93.2654 316.61C92.0763 316.61 90.962 316.298 90.163 315.436C90.0336 315.349 89.8956 315.274 89.751 315.215C89.2765 314.996 88.4806 314.628 88.4026 313.71C88.3852 313.49 88.4519 313.27 88.5894 313.097C88.7269 312.923 88.925 312.808 89.1439 312.774C89.3628 312.741 89.5863 312.791 89.7696 312.916C89.9528 313.04 90.0822 313.229 90.1317 313.445C90.2471 313.511 90.3659 313.57 90.4876 313.623C90.8452 313.765 91.171 313.978 91.4458 314.247C92.7598 315.655 96.4709 314.375 98.0908 313.311C102.617 310.289 105.894 302.789 103.032 294.843C102.692 293.906 102.024 292.97 101.377 292.034C101.125 291.678 100.866 291.313 100.625 290.944C96.8111 285.139 93.047 281.805 89.4326 281.034C85.5498 280.21 81.2144 280.866 78.9765 281.331C78.8629 281.357 78.7451 281.36 78.6303 281.34C78.5154 281.32 78.4056 281.277 78.3074 281.215C78.2092 281.152 78.1245 281.07 78.0583 280.974C77.9921 280.878 77.9458 280.77 77.9219 280.656C77.898 280.541 77.8972 280.424 77.9193 280.309C77.9415 280.195 77.9863 280.086 78.0511 279.989C78.1159 279.892 78.1993 279.809 78.2966 279.744C78.3939 279.68 78.503 279.636 78.6176 279.614C80.9928 279.121 85.6029 278.428 89.7978 279.321C93.9365 280.201 97.9598 283.69 102.089 289.983C102.314 290.32 102.554 290.66 102.807 291.019C103.522 292.021 104.258 293.06 104.68 294.237C107.036 300.792 105.869 310.215 99.0615 314.759C97.8724 315.543 95.444 316.61 93.2654 316.61Z" fill="#AB684D"/>
<path d="M81.4795 325.924C80.6562 325.914 79.8465 325.712 79.1157 325.332C78.3849 324.953 77.7534 324.407 77.2721 323.739C76.3926 322.607 75.8447 321.253 75.6897 319.828C75.6639 319.281 75.6837 318.733 75.749 318.189C75.8239 317.362 75.8957 316.579 75.6116 315.97C74.9031 314.444 73.5984 313.389 72.2158 312.271L71.7569 311.9C71.5765 311.753 71.4619 311.54 71.4385 311.308C71.4151 311.076 71.4847 310.844 71.6321 310.664C71.7794 310.484 71.9924 310.369 72.2242 310.346C72.456 310.322 72.6876 310.392 72.8681 310.539L73.3175 310.907C74.797 312.1 76.3233 313.336 77.2035 315.233C77.6841 316.27 77.5843 317.372 77.4937 318.355C77.4401 318.804 77.4224 319.257 77.4407 319.709C77.5689 320.793 77.9921 321.821 78.6642 322.681C79.9626 324.376 81.9165 324.66 83.7674 323.427C86.9854 321.282 88.2838 316.791 88.4242 313.305C88.4753 311.36 88.1956 309.421 87.5971 307.571C86.951 305.473 85.2312 303.729 83.5676 302.043L83.1681 301.637C81.3725 299.752 79.1836 298.286 76.7571 297.343C76.5394 297.26 76.3635 297.094 76.2681 296.882C76.1727 296.669 76.1656 296.427 76.2484 296.21C76.3312 295.992 76.497 295.816 76.7095 295.721C76.922 295.625 77.1637 295.618 77.3814 295.701C80.0511 296.734 82.4589 298.346 84.4322 300.42L84.8286 300.823C86.5578 302.574 88.5147 304.568 89.2857 307.065C89.9373 309.102 90.2392 311.235 90.1784 313.373C89.9724 318.448 87.9373 322.737 84.7381 324.884C83.7794 325.547 82.6449 325.909 81.4795 325.924Z" fill="#AB684D"/>
<path d="M92.0138 327.718C91.9271 327.718 91.841 327.705 91.7578 327.681C91.5358 327.613 91.3496 327.46 91.2402 327.255C91.1308 327.05 91.1071 326.811 91.1742 326.588C92.4601 322.353 93.9833 319.191 96.1213 316.335C96.5052 315.826 96.8485 315.355 97.1887 314.893C97.685 314.216 98.1563 313.576 98.715 312.846C98.7827 312.748 98.8693 312.666 98.9698 312.603C99.0703 312.54 99.1824 312.498 99.2995 312.48C99.4166 312.461 99.5362 312.467 99.6511 312.496C99.766 312.525 99.8737 312.578 99.9679 312.65C100.062 312.722 100.141 312.812 100.199 312.915C100.257 313.018 100.294 313.132 100.307 313.25C100.32 313.368 100.309 313.487 100.275 313.6C100.24 313.714 100.183 313.819 100.107 313.91C99.5609 314.628 99.0958 315.261 98.6027 315.929C98.2593 316.398 97.9129 316.866 97.5258 317.387C95.5158 320.071 94.0925 323.065 92.844 327.097C92.7896 327.275 92.6798 327.432 92.5305 327.544C92.3812 327.655 92.2002 327.716 92.0138 327.718Z" fill="#AB684D"/>
<path d="M82.9154 540.832C82.8472 540.832 82.7792 540.825 82.7125 540.81C82.6004 540.783 82.4946 540.735 82.4013 540.667C82.3079 540.599 82.2288 540.514 82.1685 540.416C82.1082 540.317 82.0679 540.208 82.0499 540.094C82.0318 539.98 82.0364 539.864 82.0633 539.752C83.0902 535.439 83.9017 531.053 84.6852 526.811C85.0628 524.758 85.4218 522.819 85.8057 520.881C87.076 514.439 88.415 507.881 89.7135 501.53C93.6587 482.219 97.7412 462.252 100.485 442.539C100.856 439.746 101.406 436.98 102.13 434.258C102.785 432.022 103.571 429.826 104.483 427.682C105.962 424.008 107.358 420.534 107.523 416.682C107.701 412.447 107.074 408.236 106.465 404.166C105.672 398.86 104.851 393.351 105.747 387.574C106.418 383.267 107.67 379.556 108.868 375.963C111.244 368.919 113.291 362.832 110.501 354.193C110.37 353.787 110.27 353.375 110.17 352.978C109.883 351.817 109.633 350.812 108.79 350.354C108.683 350.302 108.586 350.23 108.507 350.14C108.429 350.051 108.369 349.946 108.332 349.833C108.295 349.719 108.282 349.6 108.292 349.481C108.303 349.362 108.338 349.247 108.395 349.142C108.452 349.037 108.53 348.945 108.624 348.871C108.717 348.798 108.825 348.744 108.941 348.713C109.056 348.683 109.176 348.676 109.294 348.693C109.412 348.711 109.525 348.752 109.627 348.815C111.15 349.642 111.534 351.19 111.874 352.56C111.968 352.944 112.058 353.309 112.186 353.656C115.154 362.848 112.917 369.493 110.548 376.528C109.362 380.049 108.135 383.688 107.489 387.846C106.63 393.361 107.433 398.723 108.207 403.91C108.831 408.065 109.455 412.356 109.28 416.761C109.106 420.915 107.586 424.688 106.115 428.34C105.231 430.422 104.469 432.553 103.831 434.723C103.123 437.373 102.587 440.066 102.226 442.785C99.4766 462.567 95.3909 482.562 91.4364 501.901C90.141 508.237 88.802 514.792 87.5317 521.228C87.1509 523.153 86.7951 525.089 86.4143 527.136C85.6278 531.4 84.8131 535.81 83.7769 540.164C83.7292 540.356 83.6183 540.526 83.462 540.647C83.3057 540.769 83.1132 540.834 82.9154 540.832Z" fill="#2E5378"/>
<path d="M81.3204 408.592C81.2043 408.593 81.0894 408.57 80.9823 408.525C80.8751 408.481 80.7779 408.416 80.6961 408.333C73.2302 400.842 66.5788 392.568 58.8819 382.446C58.7412 382.261 58.6799 382.027 58.7115 381.796C58.7431 381.566 58.865 381.357 59.0505 381.216C59.2359 381.075 59.4696 381.014 59.7003 381.046C59.9309 381.077 60.1395 381.199 60.2802 381.385C67.9303 391.451 74.5442 399.675 81.9384 407.094C82.0601 407.218 82.1426 407.374 82.1757 407.544C82.2087 407.715 82.1908 407.891 82.1241 408.051C82.0574 408.211 81.945 408.347 81.8009 408.444C81.6568 408.54 81.4875 408.592 81.3141 408.592H81.3204Z" fill="#2E5378"/>
<path d="M67.1283 428.452C63.0052 428.452 58.6293 427.678 53.7633 426.108C53.6525 426.074 53.5497 426.018 53.4607 425.944C53.3717 425.869 53.2983 425.778 53.2448 425.675C53.1913 425.572 53.1587 425.46 53.149 425.344C53.1392 425.229 53.1525 425.113 53.188 425.002C53.2235 424.892 53.2805 424.79 53.3558 424.701C53.431 424.613 53.523 424.541 53.6264 424.488C53.7299 424.436 53.8427 424.404 53.9583 424.396C54.074 424.387 54.1901 424.402 54.3002 424.438C61.7193 426.832 67.918 427.31 73.8046 425.94C74.0314 425.887 74.27 425.926 74.4679 426.049C74.6657 426.172 74.8066 426.368 74.8596 426.595C74.9126 426.822 74.8733 427.061 74.7504 427.258C74.6274 427.456 74.431 427.597 74.2042 427.65C71.884 428.187 69.5099 428.457 67.1283 428.452Z" fill="#2E5378"/>
<path d="M330.135 602.907C330.02 602.906 329.906 602.882 329.8 602.837C329.693 602.793 329.597 602.727 329.516 602.645C329.435 602.563 329.372 602.466 329.328 602.359C329.285 602.253 329.263 602.138 329.264 602.023C329.32 595.996 328.789 589.776 328.278 583.761C327.831 578.536 327.372 573.149 327.297 567.887C327.16 558.211 326.673 548.395 326.199 538.89C326.03 535.457 325.852 531.927 325.696 528.444C324.76 507.844 323.359 488.233 321.392 468.516C319.32 447.735 317.562 427.407 318.82 407.172C319.729 392.527 322.956 376.896 328.68 359.389C328.755 359.171 328.913 358.992 329.119 358.889C329.325 358.786 329.564 358.769 329.783 358.841C330.002 358.913 330.184 359.068 330.289 359.272C330.395 359.477 330.416 359.716 330.347 359.936C324.669 377.302 321.47 392.786 320.571 407.278C319.323 427.385 321.071 447.635 323.137 468.342C325.106 488.09 326.517 507.722 327.447 528.366C327.606 531.843 327.781 535.382 327.953 538.803C328.424 548.323 328.914 558.155 329.052 567.862C329.127 573.046 329.582 578.418 330.025 583.611C330.54 589.67 331.074 595.931 331.018 602.026C331.018 602.142 330.996 602.257 330.952 602.364C330.907 602.472 330.842 602.569 330.76 602.651C330.678 602.733 330.58 602.797 330.473 602.841C330.366 602.885 330.251 602.907 330.135 602.907Z" fill="#2E5378"/>
<path d="M356.915 569.026C356.732 569.029 356.552 568.975 356.402 568.871C356.251 568.768 356.137 568.619 356.074 568.447C356.012 568.276 356.005 568.088 356.055 567.912C356.104 567.736 356.207 567.58 356.35 567.465C365.642 559.637 372.149 551.822 375.701 544.24C375.749 544.134 375.817 544.038 375.902 543.958C375.986 543.878 376.086 543.816 376.196 543.775C376.305 543.734 376.421 543.715 376.538 543.72C376.654 543.725 376.769 543.752 376.874 543.802C376.98 543.851 377.075 543.921 377.153 544.008C377.231 544.094 377.291 544.195 377.33 544.305C377.369 544.415 377.385 544.532 377.378 544.648C377.371 544.765 377.341 544.879 377.29 544.983C373.635 552.786 366.971 560.814 357.483 568.807C357.326 568.947 357.124 569.024 356.915 569.026Z" fill="#2E5378"/>
<path d="M68.5298 188.431C68.4035 188.431 68.2784 188.407 68.1615 188.359C67.7745 188.203 67.3906 188.025 67.0191 187.85C66.513 187.597 65.9918 187.375 65.4585 187.186C62.715 186.287 59.9683 185.119 57.3121 183.993L56.5443 183.665C56.309 183.559 56.1243 183.366 56.0299 183.126C55.9355 182.886 55.9388 182.618 56.0392 182.381C56.1397 182.143 56.3291 181.955 56.5671 181.855C56.805 181.755 57.0725 181.753 57.3121 181.848L58.0831 182.16C60.7018 183.272 63.4079 184.423 66.0734 185.297C66.6844 185.511 67.2816 185.762 67.8619 186.05C68.2239 186.218 68.5672 186.38 68.9012 186.515C69.1134 186.6 69.2892 186.757 69.3984 186.958C69.5077 187.159 69.5436 187.392 69.5001 187.617C69.4566 187.841 69.3363 188.044 69.1598 188.19C68.9834 188.335 68.7617 188.415 68.5329 188.415L68.5298 188.431Z" fill="#F51842"/>
<path d="M69.9406 183.802C69.7142 183.793 69.4913 183.743 69.2821 183.656L69.2009 183.628C68.817 183.5 68.4955 183.381 68.2084 183.265L67.9868 183.175C67.483 182.949 66.9609 182.766 66.4262 182.629C63.8199 182.004 61.2168 181.159 58.698 180.328C57.8709 180.057 57.0469 179.785 56.2291 179.523C55.9998 179.429 55.8144 179.252 55.7098 179.027C55.6052 178.802 55.589 178.546 55.6646 178.31C55.7402 178.074 55.9019 177.875 56.1175 177.753C56.3332 177.631 56.587 177.594 56.8284 177.65C57.6524 177.913 58.4827 178.187 59.3254 178.462C61.8067 179.277 64.3693 180.122 66.8912 180.715C67.5322 180.869 68.1587 181.078 68.7639 181.34L68.9824 181.43C69.2259 181.53 69.513 181.633 69.8533 181.742L69.9375 181.774C70.1516 181.761 70.3638 181.819 70.5419 181.939C70.72 182.058 70.8541 182.232 70.9238 182.435C70.9901 182.617 71.0024 182.815 70.9592 183.003C70.916 183.192 70.8192 183.364 70.6804 183.5C70.5854 183.599 70.4704 183.678 70.3429 183.73C70.2154 183.782 70.0783 183.807 69.9406 183.802Z" fill="#F51842"/>
<path d="M70.2434 179.941C69.8458 179.913 69.4656 179.768 69.151 179.523C69.101 179.489 69.0542 179.454 69.0105 179.43C67.5748 178.705 66.0422 178.287 64.4192 177.847C63.8199 177.682 63.1988 177.513 62.5839 177.329C62.1532 177.198 58.1643 175.846 56.4695 175.107C56.3481 175.057 56.238 174.983 56.1455 174.89C56.053 174.797 55.9801 174.686 55.9309 174.564C55.8818 174.442 55.8574 174.312 55.8592 174.181C55.8611 174.05 55.8891 173.92 55.9416 173.8C55.9942 173.68 56.0702 173.571 56.1653 173.481C56.2603 173.39 56.3725 173.319 56.4952 173.273C56.6179 173.226 56.7487 173.205 56.8799 173.209C57.011 173.214 57.14 173.244 57.2591 173.299C58.8541 173.995 62.7556 175.319 63.1551 175.441C63.7419 175.619 64.3505 175.784 64.9373 175.943C66.5853 176.389 68.2895 176.855 69.9032 177.672C70.0248 177.735 70.1416 177.807 70.2528 177.888L70.3558 177.953C70.5887 177.955 70.8135 178.039 70.9905 178.19C71.1674 178.342 71.2849 178.551 71.3223 178.781C71.3597 179.011 71.3145 179.247 71.1947 179.447C71.0749 179.646 70.8883 179.797 70.6679 179.873C70.5314 179.92 70.3878 179.943 70.2434 179.941Z" fill="#F51842"/>
<path d="M65.2712 173.424C65.1418 173.423 65.0139 173.397 64.8947 173.347C64.7755 173.296 64.6674 173.223 64.5767 173.131C64.4859 173.038 64.4142 172.929 64.3658 172.809C64.3173 172.689 64.293 172.561 64.2942 172.432C64.2942 170.34 64.7749 168.271 65.2306 166.267C65.4897 165.119 65.7331 164.032 65.9017 162.946C66.0327 162.075 66.1545 161.195 66.2793 160.309C66.76 156.822 67.2594 153.214 68.486 149.871C68.5765 149.625 68.6671 149.385 68.7607 149.15C68.0828 149.011 67.4169 148.817 66.7694 148.573C65.1258 147.995 63.6585 147.004 62.5089 145.695C62.2249 145.973 61.9252 146.223 61.6443 146.457C61.4789 146.594 61.3104 146.735 61.1543 146.875C60.409 147.605 59.5278 148.182 58.5606 148.573C57.912 148.818 57.2451 149.011 56.5661 149.15C56.6597 149.385 56.7534 149.625 56.8439 149.871C58.0674 153.214 58.5668 156.822 59.0506 160.309C59.1723 161.195 59.294 162.075 59.4283 162.946C59.6311 164.273 59.9277 165.624 60.2148 166.932C60.641 168.708 60.9672 170.507 61.1918 172.319C61.2107 172.45 61.203 172.584 61.1691 172.712C61.1352 172.841 61.0758 172.961 60.9944 173.065C60.9131 173.17 60.8114 173.257 60.6956 173.322C60.5797 173.386 60.4521 173.427 60.3202 173.441C60.1883 173.455 60.055 173.442 59.9282 173.404C59.8013 173.365 59.6835 173.301 59.5819 173.216C59.4803 173.131 59.3969 173.026 59.3367 172.908C59.2765 172.79 59.2408 172.661 59.2316 172.528C59.0143 170.789 58.7017 169.062 58.2953 167.356C58.0019 166.017 57.696 164.635 57.4837 163.243C57.3495 162.366 57.2247 161.473 57.1029 160.58C56.6348 157.194 56.1479 153.695 54.9961 150.549C54.8369 150.112 54.684 149.7 54.4967 149.3C52.8831 149.363 50.9105 149.278 49.8368 148.092C49.4216 147.634 48.9691 146.806 49.1813 145.474C49.3936 144.141 50.1614 143.641 50.5952 143.482C51.4067 143.17 52.3806 143.454 53.267 144.216C54.2476 145.078 55.0658 146.108 55.6828 147.259H55.7515C56.4929 147.169 57.2192 146.981 57.9114 146.7C58.6343 146.392 59.2912 145.948 59.8465 145.392C60.0213 145.236 60.2055 145.08 60.3927 144.927C60.7271 144.663 61.0402 144.373 61.3291 144.06C60.6537 142.902 60.1867 141.634 59.9495 140.314C59.6374 138.585 59.834 136.257 61.4508 135.355C61.7006 135.21 61.9844 135.133 62.2732 135.133C62.5621 135.133 62.8458 135.21 63.0957 135.355C64.5065 136.169 64.6563 138.991 64.6563 139.019C64.7256 140.736 64.3944 142.446 63.6887 144.013C64.653 145.251 65.9533 146.185 67.4342 146.703C68.1264 146.984 68.8527 147.172 69.5941 147.262H69.6627C70.28 146.113 71.0982 145.083 72.0786 144.222C72.965 143.457 73.9513 143.189 74.7534 143.485C75.1873 143.645 75.9457 144.11 76.1642 145.477C76.3827 146.844 75.927 147.637 75.5119 148.095C74.4351 149.282 72.4625 149.366 70.8519 149.303C70.6771 149.69 70.5117 150.102 70.3494 150.552C69.1977 153.698 68.7139 157.197 68.2457 160.583C68.1208 161.476 67.9991 162.369 67.8649 163.246C67.687 164.404 67.4217 165.574 67.1657 166.707C66.735 168.608 66.2918 170.571 66.2793 172.45C66.2744 172.713 66.1655 172.963 65.9765 173.146C65.7875 173.328 65.5339 173.428 65.2712 173.424ZM74.0324 145.333C73.7733 145.399 73.5364 145.533 73.3458 145.72C72.7988 146.197 72.3161 146.742 71.91 147.343C72.7964 147.318 73.6579 147.184 74.0262 146.775C74.0949 146.7 74.304 146.463 74.1947 145.795C74.1847 145.63 74.1297 145.47 74.0355 145.333H74.0324ZM51.2476 145.333C51.174 145.473 51.1264 145.626 51.1071 145.783C51.001 146.46 51.207 146.688 51.2756 146.763C51.6471 147.172 52.5054 147.306 53.3918 147.331C52.9857 146.73 52.5031 146.184 51.9561 145.708C51.766 145.516 51.5202 145.389 51.2538 145.346L51.2476 145.333ZM62.2124 137.218C61.7941 137.705 61.6943 138.938 61.8784 139.943C61.9908 140.562 62.1633 141.168 62.3934 141.753C62.6006 140.863 62.6929 139.951 62.6681 139.038C62.6237 138.414 62.4716 137.802 62.2186 137.23L62.2124 137.218Z" fill="#A84216"/>
<path d="M168.983 483.729C168.772 483.73 168.568 483.655 168.409 483.517C168.25 483.379 168.145 483.189 168.115 482.98C166.757 473.76 164.076 464.946 161.635 457.539C160.79 454.974 159.763 452.336 158.78 449.783C156.651 444.284 154.45 438.597 153.62 432.804C153.6 432.688 153.603 432.569 153.629 432.455C153.656 432.34 153.705 432.232 153.774 432.137C153.843 432.042 153.93 431.962 154.03 431.901C154.131 431.84 154.243 431.8 154.359 431.784C154.475 431.767 154.594 431.774 154.707 431.804C154.821 431.834 154.927 431.886 155.02 431.958C155.113 432.03 155.191 432.119 155.249 432.222C155.306 432.324 155.343 432.437 155.356 432.554C156.158 438.147 158.321 443.74 160.415 449.149C161.411 451.721 162.441 454.384 163.302 456.99C165.768 464.481 168.474 473.373 169.857 482.724C169.874 482.838 169.868 482.954 169.84 483.066C169.812 483.178 169.762 483.283 169.693 483.375C169.624 483.468 169.538 483.546 169.439 483.605C169.34 483.664 169.231 483.703 169.117 483.72L168.983 483.729Z" fill="#2E5378"/>
<path d="M333.637 353.556C333.523 353.556 333.411 353.534 333.306 353.49C333.199 353.447 333.102 353.383 333.02 353.301C332.937 353.22 332.872 353.124 332.828 353.017C332.783 352.911 332.76 352.797 332.759 352.681C332.759 352.566 332.781 352.452 332.825 352.345C334.248 348.858 336.258 345.675 338.225 342.6C339.548 340.515 340.918 338.362 342.061 336.171C342.114 336.068 342.187 335.977 342.275 335.903C342.363 335.828 342.465 335.772 342.575 335.737C342.685 335.702 342.801 335.689 342.916 335.699C343.031 335.709 343.143 335.741 343.245 335.795C343.348 335.848 343.439 335.92 343.513 336.009C343.587 336.097 343.644 336.199 343.679 336.309C343.714 336.419 343.726 336.535 343.717 336.65C343.707 336.765 343.674 336.877 343.621 336.979C342.445 339.239 341.056 341.427 339.714 343.534C337.797 346.546 335.818 349.661 334.454 353.003C334.389 353.167 334.276 353.306 334.13 353.405C333.984 353.503 333.812 353.556 333.637 353.556Z" fill="#2E5378"/>
</g>
<defs>
<clipPath id="clip0_16_158">
<rect width="397" height="553.907" fill="white" transform="translate(0 49)"/>
</clipPath>
</defs>
</svg>
