<svg width="37" height="35" viewBox="0 0 37 35" fill="none" xmlns="http://www.w3.org/2000/svg">
<g filter="url(#filter0_b_4_2096)">
<rect width="37" height="34.2927" rx="2.70732" fill="url(#paint0_linear_4_2096)"/>
<path d="M22.5763 8.12207H15.2936C13.8706 8.12374 12.5064 8.68983 11.5002 9.69614C10.4941 10.7024 9.92825 12.0668 9.92682 13.4898L9.92682 20.7725C9.92849 22.1955 10.4946 23.5597 11.5009 24.5658C12.5072 25.572 13.8715 26.1378 15.2945 26.1393H22.5772C24.0002 26.1376 25.3645 25.5715 26.3706 24.5652C27.3767 23.5589 27.9426 22.1946 27.944 20.7716V13.4889C27.9423 12.0659 27.3763 10.7016 26.3699 9.6955C25.3636 8.68936 23.9993 8.1235 22.5763 8.12207V8.12207ZM26.1319 20.7716C26.1319 21.2385 26.0399 21.7008 25.8613 22.1322C25.6826 22.5636 25.4207 22.9556 25.0905 23.2858C24.7603 23.6159 24.3684 23.8778 23.937 24.0565C23.5056 24.2352 23.0432 24.3272 22.5763 24.3272H15.2936C14.3508 24.3269 13.4466 23.9522 12.78 23.2854C12.1134 22.6187 11.7389 21.7144 11.7389 20.7716V13.4889C11.7392 12.546 12.1139 11.6419 12.7806 10.9753C13.4474 10.3087 14.3517 9.93417 15.2945 9.93417H22.5772C23.5201 9.93441 24.4242 10.3091 25.0908 10.9759C25.7574 11.6427 26.1319 12.5469 26.1319 13.4898V20.7725V20.7716Z" fill="white"/>
<path d="M18.9349 12.4709C17.6999 12.4729 16.516 12.9644 15.6428 13.8378C14.7695 14.7112 14.2782 15.8952 14.2766 17.1302C14.278 18.3656 14.7693 19.55 15.6428 20.4236C16.5162 21.2972 17.7005 21.7888 18.9358 21.7904C20.1714 21.789 21.3559 21.2976 22.2295 20.4239C23.1032 19.5503 23.5946 18.3658 23.596 17.1302C23.5941 15.8949 23.1023 14.7107 22.2286 13.8374C21.3548 12.9641 20.1703 12.473 18.9349 12.4719V12.4709ZM18.9349 19.9783C18.1798 19.9783 17.4556 19.6784 16.9217 19.1444C16.3877 18.6105 16.0877 17.8863 16.0877 17.1311C16.0877 16.376 16.3877 15.6518 16.9217 15.1179C17.4556 14.5839 18.1798 14.2839 18.9349 14.2839C19.6901 14.2839 20.4143 14.5839 20.9482 15.1179C21.4822 15.6518 21.7821 16.376 21.7821 17.1311C21.7821 17.8863 21.4822 18.6105 20.9482 19.1444C20.4143 19.6784 19.6901 19.9783 18.9349 19.9783Z" fill="white"/>
<path d="M23.6042 13.6225C24.2208 13.6225 24.7206 13.1227 24.7206 12.5062C24.7206 11.8897 24.2208 11.3899 23.6042 11.3899C22.9877 11.3899 22.4879 11.8897 22.4879 12.5062C22.4879 13.1227 22.9877 13.6225 23.6042 13.6225Z" fill="white"/>
<rect x="0.45122" y="0.45122" width="36.0976" height="33.3902" rx="2.2561" stroke="url(#paint1_linear_4_2096)" stroke-width="0.902439"/>
</g>
<defs>
<filter id="filter0_b_4_2096" x="-28" y="-28" width="93" height="90.2927" filterUnits="userSpaceOnUse" color-interpolation-filters="sRGB">
<feFlood flood-opacity="0" result="BackgroundImageFix"/>
<feGaussianBlur in="BackgroundImage" stdDeviation="14"/>
<feComposite in2="SourceAlpha" operator="in" result="effect1_backgroundBlur_4_2096"/>
<feBlend mode="normal" in="SourceGraphic" in2="effect1_backgroundBlur_4_2096" result="shape"/>
</filter>
<linearGradient id="paint0_linear_4_2096" x1="1.15025e-06" y1="-0.198798" x2="5.29616" y2="38.6959" gradientUnits="userSpaceOnUse">
<stop stop-color="white" stop-opacity="0.09"/>
<stop offset="1" stop-color="white" stop-opacity="0.03"/>
</linearGradient>
<linearGradient id="paint1_linear_4_2096" x1="1.15025e-06" y1="-0.198798" x2="5.29616" y2="38.6959" gradientUnits="userSpaceOnUse">
<stop stop-color="white" stop-opacity="0.15"/>
<stop offset="1" stop-color="white" stop-opacity="0.07"/>
</linearGradient>
</defs>
</svg>
