<svg width="37" height="35" viewBox="0 0 37 35" fill="none" xmlns="http://www.w3.org/2000/svg">
<g filter="url(#filter0_b_4_2097)">
<rect width="37" height="34.2927" rx="2.70732" fill="url(#paint0_linear_4_2097)"/>
<path fill-rule="evenodd" clip-rule="evenodd" d="M16.631 14.4112H19.9826V16.0807C20.4654 15.1205 21.7036 14.2578 23.5635 14.2578C27.129 14.2578 27.9755 16.1691 27.9755 19.676V26.1708H24.3658V20.4747C24.3658 18.4776 23.883 17.3513 22.6539 17.3513C20.9491 17.3513 20.2407 18.5651 20.2407 20.4738V26.1708H16.631V14.4112ZM10.4411 26.0174H14.0509V14.2578H10.4411V26.0174ZM14.568 10.4233C14.5681 10.7259 14.5081 11.0254 14.3915 11.3046C14.2748 11.5838 14.1038 11.837 13.8885 12.0495C13.452 12.4832 12.8613 12.726 12.246 12.7245C11.6318 12.7241 11.0425 12.4819 10.6054 12.0504C10.3908 11.8372 10.2204 11.5837 10.1039 11.3045C9.98749 11.0253 9.92728 10.7258 9.92676 10.4233C9.92676 9.81234 10.1704 9.22756 10.6063 8.79619C11.043 8.36407 11.6326 8.1218 12.2469 8.12207C12.8624 8.12207 13.4526 8.36483 13.8885 8.79619C14.3234 9.22756 14.568 9.81234 14.568 10.4233Z" fill="white"/>
<rect x="0.45122" y="0.45122" width="36.0976" height="33.3902" rx="2.2561" stroke="url(#paint1_linear_4_2097)" stroke-width="0.902439"/>
</g>
<defs>
<filter id="filter0_b_4_2097" x="-28" y="-28" width="93" height="90.2927" filterUnits="userSpaceOnUse" color-interpolation-filters="sRGB">
<feFlood flood-opacity="0" result="BackgroundImageFix"/>
<feGaussianBlur in="BackgroundImage" stdDeviation="14"/>
<feComposite in2="SourceAlpha" operator="in" result="effect1_backgroundBlur_4_2097"/>
<feBlend mode="normal" in="SourceGraphic" in2="effect1_backgroundBlur_4_2097" result="shape"/>
</filter>
<linearGradient id="paint0_linear_4_2097" x1="1.15025e-06" y1="-0.198798" x2="5.29616" y2="38.6959" gradientUnits="userSpaceOnUse">
<stop stop-color="white" stop-opacity="0.09"/>
<stop offset="1" stop-color="white" stop-opacity="0.03"/>
</linearGradient>
<linearGradient id="paint1_linear_4_2097" x1="1.15025e-06" y1="-0.198798" x2="5.29616" y2="38.6959" gradientUnits="userSpaceOnUse">
<stop stop-color="white" stop-opacity="0.15"/>
<stop offset="1" stop-color="white" stop-opacity="0.07"/>
</linearGradient>
</defs>
</svg>
