<svg width="180" height="98" viewBox="0 0 180 98" fill="none" xmlns="http://www.w3.org/2000/svg">
<path d="M16.012 88.6863C16.012 96.9258 10.3543 96.8809 6.62743 96.8809H0.273743V96.5891C1.3963 96.5891 1.86778 96.14 1.86778 94.8603V82.4224C1.86778 81.3672 1.46366 80.761 0.296193 80.761V80.4691H7.8847C11.8361 80.4691 16.012 82.6469 16.012 88.6863H16.012ZM12.0382 88.6638C12.0382 83.7919 10.6237 80.761 6.89685 80.761C5.86409 80.761 5.41507 80.9406 5.41507 82.2652V94.995C5.41507 96.4993 6.06615 96.5666 7.18871 96.5666C8.73785 96.5666 12.0382 95.8033 12.0382 88.6638V88.6638Z" fill="white"/>
<path d="M33.9057 80.761V80.4691H27.2152V80.761C28.0908 80.761 28.7868 80.963 28.7868 82.3775V88.5066H22.478V82.3775C22.478 80.9855 23.1066 80.761 24.0496 80.761V80.4691H17.3591V80.761C18.2347 80.761 18.9307 80.963 18.9307 82.3775V94.9726C18.9307 96.3646 18.2347 96.5891 17.3591 96.5891V96.8809H24.0496V96.5891C23.174 96.5891 22.478 96.3646 22.478 94.9726V88.821H28.7868V94.9726C28.7868 96.3646 28.0908 96.5891 27.2152 96.5891V96.8809H33.9057V96.5891C33.0301 96.5891 32.3341 96.3646 32.3341 94.9726V82.3775C32.3341 80.9855 32.9627 80.761 33.9057 80.761Z" fill="white"/>
<path d="M43.6046 88.9332C45.9395 88.6189 48.7459 87.429 48.7459 84.6675C48.7459 80.5589 44.2557 80.4691 42.3473 80.4691H35.2527V80.761C36.1283 80.761 36.9141 80.9406 36.9141 82.355V94.9951C36.9141 96.387 36.2181 96.5891 35.3425 96.6115V96.8809H42.033V96.5891C41.1574 96.5891 40.4165 96.387 40.4165 94.9951V89.023H41.7187C44.4128 89.023 43.6046 96.8809 46.1416 96.8809H51.238V96.5891C46.9723 96.5891 49.6889 88.821 43.6046 88.9332H43.6046ZM40.4165 88.7312V82.3326C40.4165 80.9406 41.1125 80.7385 42.2126 80.7385C43.6719 80.7385 44.7496 81.8162 44.7496 84.6226C44.7721 88.125 43.0433 88.7312 42.2126 88.7312H40.4165Z" fill="white"/>
<path d="M62.3962 80.4691V80.7834C64.0576 80.7834 65.4047 82.5795 65.4047 85.1614V90.0782C65.4047 92.8846 65.1802 95.7359 60.9144 95.7359C58.4897 95.7359 57.7264 93.4684 57.7264 91.1783V82.5346C57.7264 81.0304 58.1754 80.761 59.2755 80.761V80.4691H52.585V80.761C53.7749 80.761 54.1566 81.2325 54.1566 82.5122V90.9314C54.1566 94.8828 55.369 97.1504 60.3307 97.1504C64.2597 97.1504 65.6965 95.3543 65.6965 90.0782V85.1839C65.6965 82.6693 67.2008 80.7834 68.6376 80.7834V80.4691L62.3962 80.4691Z" fill="white"/>
<path d="M80.4022 80.4691V80.761C81.4574 80.761 83.5004 82.355 82.6922 84.5777L79.549 92.5479L75.3506 82.7816C74.9465 81.9284 74.7445 80.8059 75.9793 80.8059V80.4691H69.9848V80.761C70.591 80.761 71.2196 82.2877 71.2196 82.2877L78.0448 97.5994C78.0448 97.5994 83.231 84.1736 83.3882 83.7919C83.9046 82.5571 85.0496 80.7385 86.3068 80.761V80.4691H80.4022Z" fill="white"/>
<path d="M105.233 89.517C104.133 88.4393 102.606 87.5862 101.259 86.9126C96.32 84.4654 97.712 81.457 98.7223 80.8059C100.743 79.5262 105.794 82.602 105.615 85.7452H105.907L106.49 81.4345C106.49 81.4345 103.28 79.6833 99.0142 80.2446C95.7812 80.6712 94.6811 82.3101 94.4566 83.8817C94.1198 86.1493 95.2648 87.5188 96.8813 88.4617C97.9365 89.0455 99.2162 89.7415 100.384 90.5048C104.649 93.2663 103.953 95.6237 103.168 96.4544C101.484 98.2729 95.3771 94.6358 95.5118 91.9192H95.1974L94.6137 96.2748C94.6137 96.2748 98.3182 97.532 102.09 97.3075C107.837 96.9483 107.546 91.7845 105.233 89.5169L105.233 89.517Z" fill="#F51842"/>
<path d="M125.529 80.4691V80.761C126.607 80.761 128.627 82.355 127.819 84.5777L124.968 92.2335L121.69 82.7816C121.376 82.0407 120.971 80.8283 122.341 80.8283V80.4691H116.324V80.761C116.93 80.761 117.559 82.2877 117.559 82.2877L119.22 86.6432L117.177 92.0764L113.361 82.7816C112.867 81.5243 113.181 80.761 113.944 80.761V80.4691H108.129V80.761C108.848 80.761 109.387 82.2877 109.387 82.2877L115.516 97.5994L119.422 87.1371L123.351 97.5994C123.351 97.5994 128.38 84.1736 128.515 83.7919C129.054 82.5571 130.176 80.7385 131.456 80.761V80.4691H125.529Z" fill="#F51842"/>
<path d="M147.531 95.0623L141.806 80.4465C141.806 80.4465 140.055 82.0181 138.102 82.1304C138.102 82.1304 139.112 82.6916 139.426 83.9489C139.494 84.1734 135.879 93.1764 135.744 93.558C135.206 94.7928 134.083 96.6114 132.803 96.5889V96.8808H138.73V96.5889C137.653 96.5889 135.61 94.9949 136.418 92.7722L137.024 91.1782H142.233L143.557 94.5683C144.051 95.8256 143.58 96.5889 142.816 96.5889V96.8808H148.788V96.5889C148.07 96.5889 147.531 95.0623 147.531 95.0623ZM137.136 90.8414L139.628 84.4653L142.12 90.8414H137.136Z" fill="#F51842"/>
<path d="M171.689 80.761V80.4691H166.839L161.788 92.5703L156.422 80.4691H151.079V80.8508C151.73 80.8508 153.144 81.0753 153.144 82.3101V92.1886C153.144 94.7705 151.797 96.5666 150.136 96.5666V96.8809H156.355V96.5666C154.918 96.5666 153.436 94.7032 153.436 92.1662V82.5122L159.79 96.8809H160.463L166.547 82.1979L166.57 94.9726C166.57 96.3646 165.851 96.5891 164.976 96.5891V96.8809H171.689V96.5891C170.813 96.5891 170.117 96.3646 170.117 94.9726V82.3775C170.117 80.9855 170.746 80.761 171.689 80.761L171.689 80.761Z" fill="#F51842"/>
<path d="M178.155 82.3775C178.155 80.9855 178.783 80.761 179.726 80.761V80.4691H173.036V80.761C173.911 80.761 174.607 80.963 174.607 82.3775V94.9726C174.607 96.3646 173.911 96.5891 173.036 96.5891V96.8809H179.726V96.5891C178.851 96.5891 178.155 96.3646 178.155 94.9726V82.3775Z" fill="#F51842"/>
<path fill-rule="evenodd" clip-rule="evenodd" d="M119.568 48.8164C119.569 48.8083 119.569 48.8001 119.569 48.7916V18.967C119.569 18.9589 119.569 18.9507 119.568 18.9422L119.562 18.7491C119.561 18.7316 119.561 18.714 119.559 18.6965L119.54 18.5043C119.538 18.4872 119.536 18.4705 119.533 18.4534L119.502 18.2628C119.499 18.2458 119.496 18.2291 119.491 18.212L119.448 18.024C119.444 18.0073 119.439 17.9907 119.434 17.9744L119.378 17.7894C119.373 17.7732 119.368 17.757 119.361 17.7407L119.294 17.56C119.288 17.5438 119.281 17.5279 119.274 17.5126L119.194 17.3365C119.187 17.3207 119.179 17.3053 119.171 17.29L119.08 17.1195C119.072 17.1045 119.064 17.0896 119.054 17.075L118.953 16.911C118.944 16.8964 118.934 16.8823 118.924 16.8682L118.812 16.7114C118.802 16.6973 118.791 16.6837 118.78 16.67L118.657 16.5209C118.647 16.5076 118.635 16.4944 118.623 16.482L118.491 16.341C118.48 16.3286 118.468 16.3166 118.455 16.3051L118.314 16.1731C118.301 16.1611 118.289 16.1496 118.275 16.1385L118.125 16.0158C118.112 16.0052 118.099 15.9949 118.085 15.9851L117.928 15.8723C117.914 15.862 117.899 15.8526 117.885 15.8432L117.721 15.7411C117.713 15.7368 117.706 15.7326 117.699 15.7283L116.563 15.0729L115.144 14.2534L114.577 13.9257L113.157 13.1062L112.589 12.7784L110.035 11.3035L107.48 9.82815L106.912 9.50044L106.628 9.3368L106.344 9.17272L103.506 7.53373L102.087 6.71465L100.099 5.56701L99.8157 5.40337L99.532 5.23972L96.6932 3.60072L95.558 2.94529L94.9901 2.61715L94.706 2.45351L91.8702 0.816217C91.8625 0.811517 91.8552 0.807672 91.8476 0.803827L91.6771 0.712393C91.6621 0.704274 91.6463 0.696583 91.6309 0.68932L91.4549 0.609849C91.4391 0.602586 91.4233 0.596174 91.407 0.590193L91.2263 0.522258C91.2105 0.516277 91.1943 0.510722 91.1776 0.505594L90.993 0.449624C90.9764 0.444496 90.9597 0.440221 90.943 0.435949L90.755 0.392369C90.7384 0.388523 90.7213 0.385104 90.7042 0.382113L90.5136 0.350497C90.497 0.347933 90.4799 0.345797 90.4632 0.344088L90.2709 0.324861C90.2534 0.323152 90.2363 0.322296 90.2188 0.321442L90.0257 0.31546C90.0086 0.314606 89.9915 0.314606 89.974 0.31546L89.7813 0.321442C89.7638 0.322296 89.7467 0.323152 89.7292 0.324861L89.5369 0.344088C89.5202 0.345797 89.5031 0.347933 89.4865 0.350497L89.2959 0.382113C89.2788 0.385104 89.2617 0.388523 89.2451 0.392369L89.0571 0.435949C89.0404 0.440221 89.0237 0.444496 89.0071 0.449624L88.8225 0.505594C88.8058 0.510722 88.7896 0.516277 88.7738 0.522258L88.5931 0.590193C88.5768 0.596174 88.561 0.602586 88.5452 0.609849L88.3692 0.68932C88.3538 0.696583 88.338 0.704274 88.323 0.712393L88.1525 0.803827C88.1448 0.807672 88.1376 0.811517 88.1299 0.816217L87.8462 0.979862L85.8594 2.12708L85.0074 2.61886L84.7237 2.78293L84.44 2.94657L82.7369 3.92972L82.1691 4.25786L81.6013 4.58557L81.3175 4.74922L81.0334 4.91329L79.8982 5.56872L79.6145 5.73279L78.7629 6.22457L76.2078 7.69951L75.9241 7.86315L73.9369 9.01036L71.3823 10.4853L69.9629 11.3048L68.2598 12.2879L66.8404 13.1074L66.5567 13.2715L66.273 13.4351L64.0021 14.7464L63.1505 15.2382L62.5827 15.5659L62.3011 15.7283C62.2939 15.7326 62.2866 15.7368 62.2793 15.7411L62.1153 15.8432C62.1007 15.8526 62.0862 15.862 62.0717 15.8723L61.9149 15.9851C61.9012 15.9949 61.888 16.0052 61.8747 16.0158L61.7252 16.1385C61.7115 16.1496 61.6987 16.1611 61.6859 16.1731L61.5449 16.3051C61.5325 16.3166 61.5205 16.3286 61.509 16.341L61.3769 16.482C61.365 16.4944 61.3534 16.5076 61.3428 16.5209L61.2201 16.67C61.209 16.6837 61.1983 16.6973 61.1885 16.7114L61.0761 16.8682C61.0663 16.8823 61.0565 16.8964 61.0475 16.911L60.9458 17.075C60.9364 17.0896 60.9279 17.1045 60.9202 17.1195L60.8288 17.29C60.8206 17.3053 60.8129 17.3207 60.8057 17.3365L60.7262 17.5126C60.7189 17.5279 60.7125 17.5438 60.7066 17.56L60.6386 17.7407C60.6322 17.757 60.6271 17.7732 60.622 17.7894L60.566 17.9744C60.5609 17.9907 60.5562 18.0073 60.5523 18.024L60.5087 18.212C60.5045 18.2291 60.5015 18.2458 60.4985 18.2628L60.4669 18.4534C60.4643 18.4705 60.4622 18.4872 60.4604 18.5043L60.4412 18.6965C60.4395 18.714 60.4387 18.7316 60.4378 18.7491L60.4318 18.9422C60.4314 18.9507 60.4314 18.9589 60.4314 18.967V48.7916C60.4314 48.8001 60.4314 48.8083 60.4318 48.8164L60.4378 49.0095C60.4387 49.0274 60.4395 49.045 60.4412 49.0625L60.4604 49.2548C60.4622 49.2718 60.4643 49.2885 60.4669 49.3052L60.4985 49.4962C60.5015 49.5128 60.5045 49.5299 60.5087 49.5466L60.5523 49.735C60.5562 49.7517 60.5609 49.7683 60.566 49.7846L60.622 49.9696C60.6271 49.9858 60.6322 50.002 60.6386 50.0179L60.7066 50.199C60.7125 50.2148 60.7189 50.2306 60.7262 50.2464L60.8057 50.4225C60.8129 50.4383 60.8206 50.4537 60.8288 50.469L60.9202 50.6395C60.9279 50.6545 60.9364 50.6694 60.9458 50.684L61.0475 50.848C61.0565 50.8626 61.0663 50.8767 61.0761 50.8903L61.1885 51.0476C61.1983 51.0617 61.209 51.0753 61.2201 51.0886L61.3428 51.2381C61.3534 51.2514 61.365 51.2646 61.3769 51.277L61.509 51.418C61.5205 51.4304 61.5325 51.4424 61.5449 51.4539L61.6859 51.5859C61.6987 51.5979 61.7115 51.6094 61.7252 51.6205L61.8747 51.7432C61.888 51.7538 61.9012 51.7641 61.9149 51.7739L62.0717 51.8863C62.0862 51.8965 62.1007 51.9064 62.1153 51.9158L62.2793 52.0175C62.2866 52.0222 62.2939 52.0264 62.3011 52.0307L63.4368 52.6861L65.4236 53.8334L67.9787 55.3083L68.5461 55.636L68.8302 55.8001L69.3976 56.1278L69.6818 56.2919L69.9655 56.4555L70.2496 56.6196L70.817 56.9473L71.9527 57.6027L72.2364 57.7668L72.5201 57.9304L75.3589 59.5694L75.6426 59.7335L75.9267 59.8971L76.2104 60.0612L77.6298 60.8803L77.9135 61.0444L80.7523 62.6833L81.036 62.847L83.8748 64.486L84.1585 64.6501L86.9972 66.2886L87.2809 66.4527L87.5646 66.6168L87.8488 66.7804L88.1299 66.9428C88.1373 66.9471 88.1449 66.9512 88.1526 66.9552L88.323 67.0462C88.338 67.0547 88.3538 67.0624 88.3692 67.0693L88.5452 67.1492C88.561 67.1564 88.5768 67.1628 88.5931 67.1688L88.7738 67.2367C88.7896 67.2427 88.8059 67.2483 88.8225 67.2534L89.0071 67.3094C89.0238 67.3145 89.0404 67.3188 89.0571 67.3226L89.2451 67.3666C89.2617 67.3705 89.2788 67.3739 89.2959 67.3769L89.4865 67.4085C89.5032 67.4111 89.5202 67.4132 89.5369 67.4149L89.7292 67.4342C89.7467 67.4354 89.7638 67.4367 89.7813 67.4371L89.9744 67.4436C89.9915 67.4444 90.0086 67.4444 90.0261 67.4436L90.2188 67.4371C90.2364 67.4367 90.2534 67.4354 90.271 67.4342L90.4632 67.4149C90.4799 67.4132 90.497 67.4111 90.5136 67.4085L90.7042 67.3769C90.7213 67.3739 90.7384 67.3705 90.755 67.3666L90.943 67.3226C90.9597 67.3188 90.9764 67.3145 90.993 67.3094L91.1776 67.2534C91.1943 67.2483 91.2105 67.2427 91.2263 67.2367L91.4071 67.1688C91.4233 67.1628 91.4391 67.1564 91.4549 67.1492L91.631 67.0693C91.6463 67.0624 91.6621 67.0547 91.6771 67.0462L91.8476 66.9552C91.8553 66.9513 91.8625 66.9471 91.8702 66.9428L93.5733 65.9596L96.1279 64.4843L96.4116 64.3206L98.1152 63.3375L100.102 62.1903L100.386 62.0262L100.67 61.8626L101.521 61.3708L102.373 60.879L102.941 60.5513L103.508 60.2236L103.792 60.0595L104.928 59.4041L107.482 57.9291L108.05 57.6014L108.618 57.2737L108.902 57.1096L109.186 56.946L111.74 55.4706L112.024 55.307L112.308 55.1429L113.16 54.6516L114.863 53.668L115.998 53.0126L116.566 52.6849L117.417 52.1931L117.699 52.0307C117.706 52.0264 117.714 52.0222 117.721 52.0175L117.885 51.9158C117.899 51.9064 117.914 51.8965 117.928 51.8863L118.085 51.7739C118.099 51.7641 118.112 51.7538 118.125 51.7432L118.275 51.6205C118.289 51.6094 118.301 51.5979 118.314 51.5859L118.455 51.4539C118.468 51.4422 118.479 51.4303 118.491 51.418L118.623 51.277C118.635 51.2646 118.647 51.2514 118.657 51.2381L118.78 51.0886C118.791 51.0753 118.802 51.0617 118.812 51.0476L118.924 50.8903C118.934 50.8767 118.944 50.8626 118.953 50.848L119.054 50.684C119.064 50.6694 119.072 50.6545 119.08 50.6391L119.171 50.469C119.179 50.4537 119.187 50.4383 119.194 50.4225L119.274 50.2464C119.281 50.2306 119.288 50.2148 119.294 50.199L119.361 50.0179C119.368 50.002 119.373 49.9858 119.378 49.9696L119.434 49.7846C119.439 49.7679 119.444 49.7517 119.448 49.735L119.491 49.5466C119.496 49.5299 119.499 49.5128 119.502 49.4962L119.533 49.3052C119.536 49.2885 119.538 49.2718 119.54 49.2548L119.559 49.0625C119.561 49.045 119.561 49.0274 119.562 49.0095L119.568 48.8164ZM117.989 18.8251L117.994 18.9798V48.7792L117.989 48.9334L117.975 49.074L117.952 49.2142L117.92 49.3517L117.879 49.4876L117.829 49.6205L117.77 49.7491L117.704 49.8739L117.629 49.9944L117.546 50.1097L117.457 50.2187L117.359 50.3225L117.256 50.4195L117.147 50.5092L117.032 50.5917L116.9 50.6733L116.63 50.8292L115.778 51.321L115.211 51.6487L114.075 52.3042L112.372 53.2877L111.804 53.6154L111.521 53.7791L111.237 53.9432L110.953 54.1072L108.398 55.5822L108.114 55.7458L107.83 55.9099L107.263 56.2376L106.695 56.5653L104.14 58.0402L103.005 58.6961L102.721 58.8597L102.153 59.1875L101.585 59.5152L100.734 60.007L99.8823 60.4987L99.5986 60.6628L99.3145 60.8265L97.3277 61.9737L95.6246 62.9568L95.3405 63.1209L92.7858 64.5958L91.0939 65.5725L90.9576 65.6456L90.8285 65.7037L90.6961 65.7537L90.5602 65.7952L90.4222 65.8272L90.2825 65.8503L90.1415 65.8644L90.0001 65.8691L89.8586 65.8644L89.7176 65.8503L89.5779 65.8272L89.4399 65.7952L89.304 65.7537L89.1716 65.7037L89.0426 65.6456L88.9063 65.5725L88.6362 65.4166L88.0684 65.0889L87.7847 64.9252L84.9459 63.2862L84.6622 63.1222L81.8234 61.4836L81.5397 61.3195L78.7009 59.6805L78.4172 59.5169L76.9979 58.6974L76.7142 58.5333L76.43 58.3697L76.1463 58.2056L73.3075 56.567L73.0238 56.4029L72.7397 56.2389L71.6044 55.5834L71.0366 55.2557L70.7529 55.0917L70.1851 54.7639L69.9014 54.6003L69.6177 54.4362L69.3335 54.2726L68.7657 53.9444L66.211 52.4695L64.2242 51.3223L63.0997 50.6733L62.9685 50.5917L62.8536 50.5092L62.7438 50.4195L62.6408 50.3225L62.5434 50.2187L62.4541 50.1097L62.3712 49.9944L62.2964 49.8743L62.2298 49.7491L62.1712 49.6205L62.1212 49.4876L62.0802 49.3517L62.0482 49.2142L62.0251 49.074L62.011 48.9334L62.0063 48.7792V18.9798L62.011 18.8251L62.0251 18.685L62.0482 18.5448L62.0802 18.4068L62.1212 18.2714L62.1712 18.1385L62.2298 18.0099L62.2964 17.8847L62.3712 17.7642L62.4541 17.6493L62.5434 17.5399L62.6408 17.4365L62.7438 17.3395L62.8536 17.2498L62.9685 17.1673L63.0997 17.0857L63.3701 16.9298L63.9376 16.6016L64.7895 16.1103L67.0605 14.799L67.3442 14.6353L67.6279 14.4713L69.0473 13.6518L70.7503 12.6686L72.1697 11.8491L74.7244 10.3742L76.7116 9.22699L76.9953 9.06292L79.5499 7.58799L80.4015 7.0962L80.6856 6.93256L81.8209 6.2767L82.105 6.11306L82.3887 5.94941L82.9565 5.62128L83.5239 5.29356L85.227 4.31041L85.5112 4.14634L85.7949 3.9827L86.6464 3.49092L88.6336 2.3437L88.9062 2.18604L89.0425 2.1134L89.1716 2.05487L89.304 2.00488L89.4399 1.96386L89.5779 1.93181L89.7176 1.90874L89.8586 1.89464L90 1.88994L90.1415 1.89464L90.2825 1.90874L90.4222 1.93181L90.5602 1.96386L90.6961 2.00488L90.8285 2.05487L90.9576 2.1134L91.0939 2.18604L93.9189 3.81692L94.4864 4.14506L94.7705 4.30871L95.9058 4.96456L98.7445 6.60313L99.0282 6.76721L99.3119 6.93085L101.299 8.07849L102.719 8.89757L105.557 10.5366L105.841 10.7006L106.408 11.0284L106.693 11.192L109.247 12.6669L111.802 14.1418L112.37 14.47L113.789 15.2891L114.357 15.6172L115.776 16.4363L116.9 17.0857L117.032 17.1673L117.147 17.2498L117.256 17.3395L117.359 17.4365L117.457 17.5399L117.546 17.6493L117.629 17.7642L117.704 17.8847L117.77 18.0099L117.829 18.1385L117.879 18.2714L117.92 18.4068L117.952 18.5448L117.975 18.685L117.989 18.8251Z" fill="white"/>
<path fill-rule="evenodd" clip-rule="evenodd" d="M64.1713 48.7917L90.0001 63.7043L115.829 48.7917V18.9671L90.0001 4.05505L64.1713 18.9671V48.7917ZM89.3728 17.6042C89.3728 15.6648 90.127 13.995 91.366 12.7021C92.6047 11.463 94.3287 10.7089 96.2142 10.7089V49.6561C96.2142 53.481 93.1435 56.5514 89.3728 56.5514H87.0562C88.3491 56.5514 89.3728 55.5281 89.3728 54.2351V32.4718C89.3728 31.2332 90.3961 30.2094 91.6352 30.2094C90.3961 30.2094 89.3728 29.1861 89.3728 27.8932V17.6042ZM87.0562 56.5514H84.7938C80.9689 56.5514 77.8985 53.481 77.8985 49.6561V37.0508C77.8985 33.2802 80.9689 30.2094 84.7938 30.2094H87.0562C85.8175 30.2094 84.7938 31.2332 84.7938 32.4718V54.2351C84.7938 55.5281 85.8175 56.5514 87.0562 56.5514V56.5514Z" fill="#F51842"/>
</svg>
