<svg width="37" height="35" viewBox="0 0 37 35" fill="none" xmlns="http://www.w3.org/2000/svg">
<g filter="url(#filter0_b_4_2098)">
<rect width="37" height="34.2927" rx="2.70732" fill="url(#paint0_linear_4_2098)"/>
<path d="M27.75 9.70117H10.1524C9.77804 9.70117 9.47559 10.0036 9.47559 10.378V23.9146C9.47559 24.289 9.77804 24.5914 10.1524 24.5914H27.75C28.1243 24.5914 28.4268 24.289 28.4268 23.9146V10.378C28.4268 10.0036 28.1243 9.70117 27.75 9.70117ZM26.041 12.0045L19.3679 17.1971C19.2029 17.3261 18.9723 17.3261 18.8074 17.1971L12.1321 12.0045C12.107 11.9851 12.0885 11.9583 12.0794 11.9278C12.0702 11.8974 12.0708 11.8649 12.081 11.8348C12.0913 11.8047 12.1107 11.7786 12.1366 11.7601C12.1624 11.7416 12.1934 11.7317 12.2252 11.7317H25.9479C25.9797 11.7317 26.0107 11.7416 26.0365 11.7601C26.0624 11.7786 26.0818 11.8047 26.0921 11.8348C26.1023 11.8649 26.1029 11.8974 26.0938 11.9278C26.0846 11.9583 26.0661 11.9851 26.041 12.0045Z" fill="white"/>
<rect x="0.45122" y="0.45122" width="36.0976" height="33.3902" rx="2.2561" stroke="url(#paint1_linear_4_2098)" stroke-width="0.902439"/>
</g>
<defs>
<filter id="filter0_b_4_2098" x="-28" y="-28" width="93" height="90.2927" filterUnits="userSpaceOnUse" color-interpolation-filters="sRGB">
<feFlood flood-opacity="0" result="BackgroundImageFix"/>
<feGaussianBlur in="BackgroundImage" stdDeviation="14"/>
<feComposite in2="SourceAlpha" operator="in" result="effect1_backgroundBlur_4_2098"/>
<feBlend mode="normal" in="SourceGraphic" in2="effect1_backgroundBlur_4_2098" result="shape"/>
</filter>
<linearGradient id="paint0_linear_4_2098" x1="1.15025e-06" y1="-0.198798" x2="5.29616" y2="38.6959" gradientUnits="userSpaceOnUse">
<stop stop-color="white" stop-opacity="0.09"/>
<stop offset="1" stop-color="white" stop-opacity="0.03"/>
</linearGradient>
<linearGradient id="paint1_linear_4_2098" x1="1.15025e-06" y1="-0.198798" x2="5.29616" y2="38.6959" gradientUnits="userSpaceOnUse">
<stop stop-color="white" stop-opacity="0.15"/>
<stop offset="1" stop-color="white" stop-opacity="0.07"/>
</linearGradient>
</defs>
</svg>
