<svg width="512" height="262" viewBox="0 0 512 262" fill="none" xmlns="http://www.w3.org/2000/svg">
<path d="M41.1537 261.759C41.1537 261.759 -21.4055 186.4 9.16075 108.821C29.0894 58.2519 103.838 30.5427 146.033 58.2519C164.001 70.054 217.722 90.7152 248.5 41.8553C312 -38.1445 514.005 -2.92068 476 142.856C457.61 213.402 538.971 191.382 501.08 261.907L41.1537 261.759Z" fill="#F51842" fill-opacity="0.15"/>
<path d="M87.46 137.735C87.46 137.735 81.1507 130.375 87.0712 125.698C87.0712 125.698 91.3958 123.081 94.9206 123.293C94.9206 123.293 89.9245 131.664 91.5409 132.504C93.1573 133.345 96.4366 122.763 96.4366 122.763C96.4366 122.763 106.276 121.809 109.442 123.321C109.442 123.321 101.029 130.204 102.802 130.615C104.574 131.026 113.661 124.268 113.661 124.268C113.661 124.268 122.82 125.827 122.33 131.414C121.841 137.002 118.687 138.726 117.308 138.578C115.93 138.429 107.807 135.332 107.636 136.468C107.465 137.605 112.344 141.319 115.764 141.49C115.764 141.49 109.306 148.613 105.015 146.557C100.724 144.502 100.365 141.245 97.6828 140.023C95.0006 138.801 92.7239 138.803 93.8269 140.049C94.9299 141.295 99.7791 142.506 101.304 145.212C102.83 147.919 104.206 149.743 99.7661 149.076C95.3261 148.408 88.1091 145.158 87.791 141.438L87.46 137.735Z" fill="#A4E0CF"/>
<path d="M117.839 131.579C117.839 131.579 92.9622 130.62 87.4676 137.734C87.4676 137.734 86.253 141.373 82.5143 144.687L81.9321 146.276C81.9321 146.276 86.2419 141.73 87.7839 141.454C87.7764 141.454 85.3658 132.642 117.839 131.579Z" fill="#87C2B2"/>
<path d="M82.508 144.687C82.508 144.687 77.1678 148.636 76.7976 155.691L77.7667 155.778C77.7667 155.778 79.4724 148.481 82.5545 145.63C85.6366 142.778 82.508 144.687 82.508 144.687Z" fill="#87C2B2"/>
<path d="M65.4017 128.477C65.4017 128.477 75.4367 122.858 70.7531 115.23C70.7531 115.23 67.0069 110.546 62.9929 109.343C62.9929 109.343 65.1339 120.717 62.9929 120.985C60.852 121.253 61.5198 108.137 61.5198 108.137C61.5198 108.137 50.9491 103.046 46.8012 103.454C46.8012 103.454 53.3578 114.56 51.2169 114.292C49.076 114.024 41.7158 102.784 41.7158 102.784C41.7158 102.784 30.8754 100.777 29.1362 107.202C27.3971 113.626 30.2076 116.835 31.8128 117.237C33.4181 117.638 43.7172 117.505 43.4549 118.844C43.1926 120.183 36.2286 122.322 32.3485 121.119C32.3485 121.119 36.6267 131.689 42.2496 131.154C47.8725 130.618 49.6098 127.14 53.09 126.876C56.5702 126.611 59.111 127.545 57.3681 128.481C55.6253 129.416 49.7419 128.79 46.9295 131.178C44.1171 133.566 41.846 135.039 47.0634 136.109C52.2809 137.178 61.65 136.511 63.523 132.497L65.4017 128.477Z" fill="#A4E0CF"/>
<path d="M34.0862 109.208C34.0862 109.208 62.1879 118.307 65.4002 128.476C65.4002 128.476 65.2663 133.027 68.075 138.245V140.246C68.075 140.246 65.1324 133.42 63.5253 132.484C63.5234 132.492 69.816 123.66 34.0862 109.208Z" fill="#87C2B2"/>
<path d="M68.0755 138.246C68.0755 138.246 72.4094 144.827 69.9355 152.838L68.8195 152.538C68.8195 152.538 69.902 143.716 67.6346 139.278C65.3672 134.84 68.0755 138.246 68.0755 138.246Z" fill="#87C2B2"/>
<path d="M81.367 120.726C81.367 120.726 68.1365 113.317 74.3119 103.263C74.3119 103.263 79.2522 97.088 84.5422 95.5014C84.5422 95.5014 81.7186 110.495 84.5422 110.849C87.3657 111.202 86.4822 93.9129 86.4822 93.9129C86.4822 93.9129 100.418 87.2167 105.886 87.7394C105.886 87.7394 97.2426 102.38 100.064 102.028C102.886 101.677 112.59 86.8633 112.59 86.8633C112.59 86.8633 126.877 84.2183 129.17 92.6852C131.464 101.152 127.759 105.386 125.636 105.914C123.514 106.442 109.938 106.267 110.291 108.031C110.644 109.794 119.816 112.618 124.931 111.029C124.931 111.029 119.286 124.965 111.878 124.26C104.469 123.555 102.175 118.968 97.5905 118.614C93.0054 118.261 89.6517 119.496 91.9452 120.731C94.2386 121.966 101.989 121.137 105.71 124.286C109.43 127.435 112.406 129.375 105.533 130.787C98.66 132.198 86.3055 131.319 83.8372 126.017L81.367 120.726Z" fill="#BEEEE0"/>
<path d="M122.646 95.3267C122.646 95.3267 85.603 107.326 81.3696 120.728C81.3696 120.728 81.5556 126.726 77.8354 133.605V136.252C77.8354 136.252 81.7155 127.255 83.8341 126.021C83.8397 126.019 75.5476 114.377 122.646 95.3267Z" fill="#A4E0CF"/>
<path d="M77.8464 133.602C77.8464 133.602 72.1341 142.277 75.3911 152.837L76.8606 152.443C76.8606 152.443 75.4339 140.812 78.423 134.958C81.4121 129.105 77.8464 133.602 77.8464 133.602Z" fill="#A4E0CF"/>
<path d="M80.9231 175.739C87.7965 175.739 94.3884 173.008 99.2486 168.148C104.109 163.288 106.839 156.696 106.839 149.823H55.0088C55.0088 156.696 57.739 163.287 62.5988 168.148C67.4586 173.008 74.05 175.738 80.9231 175.739Z" fill="#EEE9FC"/>
<path d="M57.8464 173.861H103.998C104.846 173.861 105.659 174.198 106.259 174.797C106.859 175.397 107.195 176.21 107.195 177.058H54.6489C54.6489 176.638 54.7316 176.223 54.8923 175.835C55.053 175.447 55.2885 175.094 55.5854 174.797C55.8823 174.5 56.2348 174.265 56.6228 174.104C57.0107 173.944 57.4265 173.861 57.8464 173.861Z" fill="#E3DCF6"/>
<path d="M107.427 149.823H54.1553V150.617H107.427V149.823Z" fill="#E3DCF7"/>
<path d="M214.646 261.219H214.774C215.821 261.2 216.634 260.345 216.532 259.359L209.54 189.592L203.445 190.137L213.476 260.276C213.522 260.549 213.666 260.795 213.882 260.969C214.098 261.143 214.369 261.232 214.646 261.219Z" fill="#8CB4F4"/>
<path d="M147.384 261.22H147.255C146.208 261.201 145.395 260.346 145.497 259.36L152.484 189.595L158.579 190.14L148.548 260.277C148.502 260.549 148.358 260.794 148.144 260.968C147.929 261.141 147.659 261.231 147.384 261.22Z" fill="#8CB4F4"/>
<path d="M263.928 261.219H264.057C265.104 261.2 265.917 260.345 265.814 259.359L258.832 189.592L252.736 190.137L262.768 260.276C262.814 260.547 262.957 260.792 263.17 260.966C263.384 261.14 263.653 261.229 263.928 261.219Z" fill="#8CB4F4"/>
<path d="M149.458 179.446L137.059 118.211C135.467 109.921 142.336 102.339 151.257 102.544L175.172 103.089C179.192 103.181 183.077 104.553 186.263 107.006C189.449 109.459 191.77 112.864 192.887 116.727L211.026 179.446H149.458Z" fill="#8CB4F4"/>
<path d="M156.961 179.446L144.562 118.211C142.97 109.928 149.839 102.339 158.758 102.544L182.673 103.089C186.693 103.181 190.578 104.553 193.764 107.006C196.95 109.459 199.271 112.864 200.388 116.727L218.529 179.446H156.961Z" fill="#8CB4F4"/>
<path d="M247.533 190.612H152.92C152.003 190.612 151.124 190.248 150.476 189.6C149.828 188.952 149.464 188.073 149.464 187.156V179.445H247.533C247.987 179.444 248.437 179.534 248.856 179.707C249.276 179.881 249.657 180.135 249.978 180.456C250.299 180.777 250.554 181.158 250.728 181.578C250.902 181.997 250.991 182.447 250.991 182.901V187.156C250.991 187.61 250.902 188.06 250.728 188.479C250.554 188.899 250.299 189.28 249.978 189.601C249.657 189.922 249.276 190.176 248.856 190.35C248.437 190.523 247.987 190.613 247.533 190.612Z" fill="#8CB4F4"/>
<path d="M197.318 190.612H257.631C259.168 190.612 260.415 189.366 260.415 187.828V182.229C260.415 180.691 259.168 179.445 257.631 179.445H197.318C195.78 179.445 194.534 180.691 194.534 182.229V187.828C194.534 189.366 195.78 190.612 197.318 190.612Z" fill="#8CB4F4"/>
<path d="M121.23 178.648V180.737C121.23 181.468 120.992 182.065 120.704 182.065H44.4693C44.1791 182.065 43.9429 181.468 43.9429 180.737V178.648C43.9429 177.917 44.1791 177.32 44.4693 177.32H120.704C120.999 177.32 121.23 177.917 121.23 178.648Z" fill="#725C5C"/>
<path d="M121.232 178.648V180.737C121.232 181.468 121.014 182.065 120.748 182.065H60.2254C59.9613 182.065 59.7437 181.468 59.7437 180.737V178.648C59.7437 177.917 59.9613 177.32 60.2254 177.32H120.748C121.014 177.32 121.232 177.917 121.232 178.648Z" fill="#8D7979"/>
<path d="M101.936 182.065H47.8135V260.952H101.936V182.065Z" fill="#897272"/>
<path d="M117.102 182.065H62.9803V260.952H117.102V182.065Z" fill="#BA9D9D"/>
<path d="M114.194 256.597H65.8887V184.295H114.194V256.597ZM66.4113 256.074H113.673V184.816H66.4113V256.074Z" fill="#897272"/>
<path d="M113.933 208.215H66.1481V208.736H113.933V208.215Z" fill="#897272"/>
<path d="M113.933 232.597H66.1481V233.118H113.933V232.597Z" fill="#897272"/>
<path d="M94.9381 188.958H86.0712C85.8636 188.957 85.6647 188.875 85.518 188.728C85.3712 188.581 85.2886 188.382 85.2881 188.175C85.2886 187.967 85.3712 187.768 85.518 187.622C85.6647 187.475 85.8636 187.392 86.0712 187.392H94.9381C95.1453 187.393 95.3437 187.475 95.49 187.622C95.6364 187.769 95.7188 187.967 95.7193 188.175C95.7188 188.382 95.6364 188.581 95.49 188.727C95.3437 188.874 95.1453 188.957 94.9381 188.958Z" fill="#897272"/>
<path d="M94.9381 212.804H86.0712C85.8638 212.804 85.6649 212.721 85.5181 212.575C85.3713 212.428 85.2886 212.23 85.2881 212.022C85.2886 211.815 85.3712 211.616 85.518 211.469C85.6647 211.322 85.8636 211.24 86.0712 211.239H94.9381C95.1454 211.24 95.3441 211.322 95.4906 211.469C95.637 211.616 95.7193 211.815 95.7193 212.022C95.7188 212.229 95.6363 212.428 95.4899 212.574C95.3435 212.721 95.1451 212.803 94.9381 212.804Z" fill="#897272"/>
<path d="M94.9381 237.662H86.0712C85.8636 237.661 85.6647 237.579 85.518 237.432C85.3712 237.285 85.2886 237.086 85.2881 236.879C85.2886 236.672 85.3713 236.473 85.5181 236.326C85.6649 236.18 85.8638 236.098 86.0712 236.098H94.9381C95.1451 236.098 95.3435 236.181 95.4899 236.327C95.6363 236.473 95.7188 236.672 95.7193 236.879C95.7193 237.086 95.637 237.285 95.4906 237.432C95.3441 237.579 95.1454 237.661 94.9381 237.662Z" fill="#897272"/>
<path d="M333.701 22.356H299.394C297.813 22.356 296.531 23.6376 296.531 25.2186V58.3313C296.531 59.9123 297.813 61.1939 299.394 61.1939H333.701C335.282 61.1939 336.563 59.9123 336.563 58.3313V25.2186C336.563 23.6376 335.282 22.356 333.701 22.356Z" fill="#CDBEF7"/>
<path d="M332.213 24.0376H300.879C299.435 24.0376 298.264 25.2085 298.264 26.6528V56.8955C298.264 58.3398 299.435 59.5107 300.879 59.5107H332.213C333.658 59.5107 334.829 58.3398 334.829 56.8955V26.6528C334.829 25.2085 333.658 24.0376 332.213 24.0376Z" fill="#F7F4FE"/>
<path d="M316.545 28.4116C317.004 28.4116 317.375 28.0402 317.375 27.582C317.375 27.1239 317.004 26.7524 316.545 26.7524C316.087 26.7524 315.716 27.1239 315.716 27.582C315.716 28.0402 316.087 28.4116 316.545 28.4116Z" fill="#CDBEF7"/>
<path d="M322.409 28.7543C322.489 28.6111 322.609 28.4947 322.755 28.4199C322.901 28.3451 323.066 28.3152 323.229 28.3341C323.392 28.353 323.545 28.4198 323.67 28.526C323.795 28.6322 323.886 28.7731 323.931 28.9308C323.976 29.0886 323.973 29.2561 323.923 29.4122C323.873 29.5684 323.777 29.7061 323.649 29.8081C323.52 29.91 323.365 29.9716 323.201 29.985C323.038 29.9984 322.874 29.9631 322.73 29.8834C322.635 29.8305 322.551 29.7592 322.483 29.6738C322.416 29.5884 322.365 29.4904 322.335 29.3856C322.306 29.2807 322.297 29.171 322.309 29.0627C322.322 28.9544 322.356 28.8496 322.409 28.7543Z" fill="#CDBEF7"/>
<path d="M328.143 33.309C328.281 33.22 328.442 33.1738 328.606 33.1764C328.77 33.1789 328.93 33.2301 329.065 33.3235C329.2 33.4168 329.304 33.5481 329.364 33.7007C329.425 33.8534 329.439 34.0205 329.404 34.1809C329.369 34.3414 329.288 34.4879 329.17 34.6021C329.052 34.7162 328.903 34.7928 328.741 34.8221C328.58 34.8514 328.413 34.8322 328.263 34.7668C328.112 34.7014 327.984 34.5929 327.895 34.4548C327.836 34.3634 327.796 34.2612 327.776 34.1541C327.757 34.047 327.758 33.937 327.781 33.8306C327.804 33.7242 327.848 33.6233 327.91 33.5338C327.972 33.4443 328.051 33.3679 328.143 33.309Z" fill="#CDBEF7"/>
<path d="M330.98 40.3579C331.144 40.3579 331.305 40.4066 331.441 40.4979C331.578 40.5891 331.684 40.7188 331.747 40.8705C331.809 41.0222 331.826 41.1891 331.793 41.35C331.761 41.511 331.682 41.6588 331.566 41.7748C331.45 41.8907 331.302 41.9696 331.141 42.0014C330.98 42.0332 330.813 42.0165 330.661 41.9534C330.51 41.8903 330.38 41.7837 330.289 41.647C330.198 41.5104 330.15 41.3498 330.15 41.1856C330.15 41.0768 330.172 40.969 330.214 40.8685C330.255 40.7679 330.316 40.6766 330.394 40.5997C330.471 40.5228 330.562 40.4619 330.663 40.4204C330.763 40.3789 330.871 40.3577 330.98 40.3579Z" fill="#CDBEF7"/>
<path d="M329.53 48.5395C329.645 48.6553 329.724 48.8028 329.756 48.9633C329.788 49.1238 329.771 49.2901 329.708 49.4413C329.646 49.5924 329.54 49.7216 329.404 49.8125C329.268 49.9033 329.108 49.9518 328.944 49.9518C328.78 49.9518 328.62 49.9033 328.484 49.8125C328.348 49.7216 328.242 49.5924 328.179 49.4413C328.117 49.2901 328.1 49.1238 328.132 48.9633C328.164 48.8028 328.242 48.6553 328.358 48.5395C328.435 48.4624 328.526 48.4013 328.627 48.3596C328.727 48.3179 328.835 48.2964 328.944 48.2964C329.053 48.2964 329.161 48.3179 329.261 48.3596C329.362 48.4013 329.453 48.4624 329.53 48.5395Z" fill="#CDBEF7"/>
<path d="M324.325 53.7601C324.441 53.8762 324.52 54.024 324.551 54.1849C324.583 54.3458 324.567 54.5125 324.504 54.6641C324.441 54.8156 324.335 54.9452 324.199 55.0363C324.062 55.1274 323.902 55.1761 323.738 55.1761C323.574 55.1761 323.413 55.1274 323.277 55.0363C323.141 54.9452 323.034 54.8156 322.971 54.6641C322.909 54.5125 322.892 54.3458 322.924 54.1849C322.956 54.024 323.035 53.8762 323.151 53.7601C323.228 53.6828 323.319 53.6214 323.42 53.5795C323.521 53.5377 323.629 53.5161 323.738 53.5161C323.847 53.5161 323.955 53.5377 324.056 53.5795C324.156 53.6214 324.248 53.6828 324.325 53.7601Z" fill="#CDBEF7"/>
<path d="M315.72 56.4502C315.72 56.286 315.768 56.1256 315.86 55.9891C315.951 55.8526 316.081 55.7463 316.232 55.6836C316.384 55.6208 316.551 55.6045 316.712 55.6367C316.873 55.6688 317.021 55.748 317.137 55.8642C317.253 55.9805 317.331 56.1284 317.363 56.2895C317.395 56.4505 317.378 56.6174 317.315 56.7689C317.252 56.9205 317.146 57.0499 317.009 57.1409C316.872 57.2318 316.712 57.2801 316.547 57.2798C316.439 57.2798 316.331 57.2583 316.23 57.2166C316.13 57.1749 316.038 57.1137 315.962 57.0367C315.885 56.9596 315.824 56.8682 315.782 56.7675C315.741 56.6669 315.719 56.559 315.72 56.4502Z" fill="#CDBEF7"/>
<path d="M310.66 28.7543C310.58 28.6111 310.459 28.4947 310.313 28.4199C310.167 28.3451 310.002 28.3152 309.84 28.3341C309.677 28.353 309.523 28.4198 309.398 28.526C309.273 28.6322 309.182 28.7731 309.137 28.9308C309.092 29.0886 309.095 29.2561 309.145 29.4122C309.196 29.5684 309.291 29.7061 309.419 29.8081C309.548 29.91 309.704 29.9716 309.867 29.985C310.031 29.9984 310.195 29.9631 310.338 29.8834C310.53 29.7761 310.672 29.597 310.732 29.3854C310.792 29.1737 310.766 28.9468 310.66 28.7543Z" fill="#CDBEF7"/>
<path d="M304.925 33.309C304.787 33.22 304.626 33.1738 304.462 33.1764C304.298 33.1789 304.138 33.2301 304.003 33.3235C303.868 33.4168 303.764 33.5481 303.704 33.7007C303.643 33.8534 303.63 34.0205 303.664 34.1809C303.699 34.3414 303.78 34.4879 303.898 34.6021C304.016 34.7162 304.165 34.7928 304.327 34.8221C304.488 34.8514 304.655 34.8322 304.805 34.7668C304.956 34.7014 305.084 34.5929 305.173 34.4548C305.292 34.27 305.332 34.0456 305.286 33.8308C305.24 33.616 305.11 33.4283 304.925 33.309Z" fill="#CDBEF7"/>
<path d="M302.087 40.3579C301.923 40.3579 301.763 40.4066 301.626 40.4979C301.49 40.5891 301.384 40.7188 301.321 40.8705C301.258 41.0222 301.242 41.1891 301.274 41.35C301.306 41.511 301.385 41.6588 301.501 41.7748C301.618 41.8907 301.766 41.9696 301.927 42.0014C302.088 42.0332 302.255 42.0165 302.406 41.9534C302.558 41.8903 302.687 41.7837 302.778 41.647C302.869 41.5104 302.917 41.3498 302.917 41.1856C302.916 40.9659 302.829 40.7554 302.673 40.6002C302.518 40.4451 302.307 40.3579 302.087 40.3579Z" fill="#CDBEF7"/>
<path d="M303.536 48.5402C303.42 48.6561 303.342 48.8035 303.31 48.9641C303.278 49.1246 303.294 49.2909 303.357 49.4421C303.42 49.5932 303.526 49.7224 303.662 49.8132C303.798 49.9041 303.958 49.9526 304.122 49.9526C304.285 49.9526 304.445 49.9041 304.581 49.8132C304.717 49.7224 304.824 49.5932 304.886 49.4421C304.949 49.2909 304.965 49.1246 304.934 48.9641C304.902 48.8035 304.823 48.6561 304.708 48.5402C304.631 48.463 304.54 48.4016 304.439 48.3598C304.338 48.3179 304.231 48.2964 304.122 48.2964C304.013 48.2964 303.905 48.3179 303.804 48.3598C303.704 48.4016 303.613 48.463 303.536 48.5402Z" fill="#CDBEF7"/>
<path d="M309.331 55.1753C309.789 55.1753 310.16 54.8039 310.16 54.3457C310.16 53.8875 309.789 53.5161 309.331 53.5161C308.872 53.5161 308.501 53.8875 308.501 54.3457C308.501 54.8039 308.872 55.1753 309.331 55.1753Z" fill="#CDBEF7"/>
<path d="M316.322 41.1865C316.322 41.0224 316.371 40.8621 316.462 40.7256C316.553 40.5892 316.683 40.4829 316.834 40.4201C316.986 40.3573 317.153 40.3409 317.314 40.3729C317.475 40.4049 317.622 40.4839 317.738 40.5999C317.854 40.7159 317.933 40.8637 317.966 41.0247C317.998 41.1856 317.981 41.3524 317.918 41.504C317.856 41.6556 317.749 41.7851 317.613 41.8763C317.476 41.9674 317.316 42.0161 317.152 42.0161C316.932 42.0161 316.721 41.9287 316.565 41.7731C316.41 41.6175 316.322 41.4065 316.322 41.1865Z" fill="#CDBEF7"/>
<path d="M317.265 30.8276H317.038V41.1881H317.265V30.8276Z" fill="#CDBEF7"/>
<path d="M322.338 36.6051L316.846 40.9165L317.265 41.4505L322.758 37.1391L322.338 36.6051Z" fill="#CDBEF7"/>
<path d="M231.883 166.63C226.764 175.54 220.327 178.978 220.327 178.978H193.542C193.542 178.978 235.788 159.836 231.883 166.63Z" fill="#233862"/>
<path d="M264.918 255.136C264.629 257.947 268.537 258.67 273.07 258.947C277.603 259.225 276.232 260.136 282.426 261.328C288.62 262.521 291.139 260.847 291.598 260.011C292.006 259.267 289.128 258.075 286.063 256.725C285.678 256.555 285.291 256.382 284.906 256.208C281.455 254.647 279.543 251.518 276.872 248.607C274.343 245.849 272.006 237.075 272.006 237.075L263.578 235.18C263.578 235.18 265.866 243.072 266.653 246.439C267.116 248.42 266.378 250.62 265.723 252.294C265.375 253.215 265.02 254.147 264.918 255.136Z" fill="#FFB27D"/>
<path d="M273.068 258.946C277.601 259.219 276.23 260.134 282.424 261.327C288.618 262.519 291.137 260.845 291.596 260.01C292.004 259.266 289.126 258.073 286.061 256.723L286.012 256.775C282.932 257.628 279.679 257.632 276.597 256.786C272.505 255.626 268.548 253.126 265.725 252.302C265.373 253.213 265.018 254.145 264.916 255.135C264.627 257.945 268.535 258.671 273.068 258.946Z" fill="#0F2549"/>
<path d="M252.15 157.505C247.615 154.322 217.62 148.645 202.312 147.003L185.385 132.309C185.385 132.309 170.983 153.64 170.877 169.958C170.825 177.566 174.329 178.328 174.329 178.328C174.329 178.328 228.567 178.732 230.944 178.976C234.835 179.377 239.967 189.072 241.25 197.902C242.534 206.731 265.154 242.645 265.154 242.645C265.154 242.645 269.871 244.157 272.051 244.029C274.397 243.891 275.483 243.099 275.483 243.099C275.483 243.099 262.375 164.687 252.15 157.505Z" fill="#1E1A28"/>
<path d="M250.887 255.136C250.599 257.947 254.507 258.67 259.039 258.947C263.572 259.225 262.192 260.136 268.396 261.328C274.599 262.521 277.108 260.847 277.566 260.011C277.975 259.267 275.097 258.075 272.032 256.725C271.647 256.555 271.26 256.382 270.875 256.208C267.425 254.647 265.512 251.518 262.841 248.607C260.312 245.849 257.976 237.075 257.976 237.075L249.548 235.18C249.548 235.18 251.835 243.072 252.622 246.439C253.085 248.42 252.347 250.62 251.692 252.294C251.343 253.215 250.989 254.147 250.887 255.136Z" fill="#FFB27D"/>
<path d="M259.042 258.946C263.575 259.219 262.194 260.134 268.398 261.327C274.601 262.519 277.11 260.845 277.568 260.01C277.977 259.266 275.099 258.073 272.034 256.723L271.986 256.775C268.906 257.628 265.652 257.632 262.57 256.786C258.478 255.626 254.522 253.126 251.698 252.302C251.345 253.213 250.991 254.145 250.889 255.135C250.601 257.945 254.509 258.671 259.042 258.946Z" fill="#233862"/>
<path d="M237.738 157.214C233.798 154.448 221.95 152.303 208.871 150.704C207.105 150.488 205.445 149.741 204.112 148.562C202.779 147.383 201.834 145.827 201.403 144.101L170.982 132.01C170.982 132.01 156.582 153.341 156.474 169.66C156.422 177.267 159.926 178.03 159.926 178.03C159.926 178.03 214.163 178.434 216.54 178.677C220.432 179.079 225.565 188.774 226.847 197.603C228.129 206.433 250.747 242.345 250.747 242.345C250.747 242.345 255.464 243.857 257.644 243.729C259.991 243.591 261.076 242.799 261.076 242.799C261.076 242.799 247.968 164.396 237.738 157.214Z" fill="#15111F"/>
<path d="M197.29 43.695C193.108 41.4983 186.749 41.2026 185.714 41.0631C173.349 39.402 165.907 57.3702 165.468 62.8146C164.662 72.8589 159.354 74.3804 151.889 80.6711C136.907 93.273 141.3 107.917 149.494 113.36C154.408 116.624 163.072 113.36 163.072 113.36C163.195 113.445 186.769 100.181 198.389 93.7826C215.803 91.2994 207.942 49.2901 197.29 43.695Z" fill="#15111F"/>
<path d="M194.713 87.5952C194.769 87.6231 189.218 90.1472 185.214 88.8228C181.445 87.5822 178.127 81.909 178.179 81.8997C179.816 81.6635 181.477 80.049 181.942 70.4883L182.665 70.6743L194.847 73.749C194.847 73.749 194.365 77.6067 194.166 81.2543C193.995 84.3178 194.03 87.2362 194.713 87.5952Z" fill="#FFB27D"/>
<path d="M194.847 73.7482C194.847 73.7482 194.847 74.5425 194.391 78.1305C187.509 76.3932 184.468 74.1109 182.327 71.4976L194.847 73.7482Z" fill="#ED975D"/>
<path d="M197.449 74.234C197.449 74.234 181.344 76.8567 179.868 66.7938C178.391 56.7309 175.314 50.3082 185.533 48.2082C195.752 46.1082 198.319 49.6516 199.629 52.8881C200.938 56.1246 201.589 73.2854 197.449 74.234Z" fill="#FFB27D"/>
<path d="M197.451 47.8034C197.451 47.8034 190.139 59.3469 183.61 62.0811C177.081 64.8154 173.875 63.426 173.875 63.426C175.833 60.2039 177.107 56.6133 177.619 52.8776C177.727 52.0022 178.068 51.1717 178.605 50.4722C179.142 49.7727 179.857 49.2295 180.675 48.8989C185.36 47.0166 194.428 44.0572 197.451 47.8034Z" fill="#15111F"/>
<path d="M191.031 48.9178C191.031 48.9178 195.309 51.1145 197.082 53.1736C198.786 55.162 200.754 60.5543 200.616 62.9761C200.616 62.9761 202.731 51.3712 198.326 47.3813C193.652 43.1516 191.031 48.9178 191.031 48.9178Z" fill="#15111F"/>
<path d="M207.593 112.16C207.105 144.897 207.459 138.052 203.872 141.158C203.009 141.902 200.586 142.352 197.392 142.562C187.348 143.228 169.713 141.577 169.041 139.72C166.725 133.303 168.36 131.309 166.437 121.482C166.234 120.437 165.985 119.306 165.693 118.075C164.082 111.327 162.516 109.029 168.228 98.1889C173.41 88.3679 179.504 80.3882 179.987 80.6765C193.657 88.7919 194.124 81.9897 194.124 81.9897C194.124 81.9897 207.833 96.1894 207.593 112.16Z" fill="#F51842"/>
<path d="M194.128 81.9844C194.128 81.9844 208.119 84.3559 209.771 90.4123C211.422 96.4686 221.141 132.078 221.141 132.078C221.141 132.078 213.991 133.363 210.688 130.059C207.384 126.756 199.193 99.4112 199.193 99.4112L194.128 81.9844Z" fill="#F51842"/>
<path d="M197.4 142.557C187.356 143.223 169.72 141.571 169.049 139.715C166.733 133.298 168.368 131.304 166.445 121.477L171.281 107.847C171.281 107.847 170.481 123.027 174.958 127.018C179.435 131.01 193.287 134.726 195.464 138.061C196.509 139.663 197.199 141.268 197.4 142.557Z" fill="#441BB9"/>
<path d="M185.899 136.173C185.899 136.173 195.8 133.969 197.398 134.847C198.996 135.725 202.902 138.926 203.389 140.04C203.876 141.154 199.833 139.194 198.518 138.84C197.664 138.611 195.421 139.398 194.31 139.77C189.638 141.327 186.773 140.525 186.773 140.525L185.899 136.173Z" fill="#FFB27D"/>
<path d="M179.987 80.6714C179.987 80.6714 165.973 81.4898 161.37 87.9089C154.891 96.9469 142.038 135.459 149.404 140.595C157.7 146.38 187.163 142.107 187.163 142.107C187.163 142.107 188.143 137.526 186.778 135.309C185.413 133.091 163.25 129.513 162.225 128.49C161.2 127.467 175.011 108.541 175.011 105.471C175.011 102.402 179.987 80.6714 179.987 80.6714Z" fill="#F51842"/>
<path d="M197.877 137.604C197.877 137.604 199.951 140.279 200.632 140.599C201.312 140.919 201.748 140.839 201.748 140.839L200.349 138.322L197.877 137.604Z" fill="#FFB27D"/>
<path d="M197.396 134.854L203.428 137.783C203.428 137.783 203.171 138.203 202.429 138.168C201.687 138.133 199.814 137.45 199.814 137.45L197.396 134.854Z" fill="#FFB27D"/>
<path d="M219.618 141.791H191.602C191.602 141.199 191.837 140.631 192.256 140.213C192.675 139.794 193.242 139.559 193.834 139.559H219.618V141.791Z" fill="#325F73"/>
<path d="M219.543 111.28H262.856L252.466 141.791H208.872L219.543 111.28Z" fill="#325F73"/>
<path d="M263.49 111.28L253.1 141.793H209.506L220.175 111.28H263.49Z" fill="#0B2D50"/>
<path d="M240.139 126.255C239.871 127.421 238.706 128.366 237.534 128.366C236.363 128.366 235.643 127.421 235.913 126.255C236.182 125.088 237.345 124.144 238.517 124.144C239.688 124.144 240.416 125.088 240.139 126.255Z" fill="white"/>
<path d="M371.736 141.791H181.919C181.121 141.791 180.474 142.438 180.474 143.236V147.209C180.474 148.007 181.121 148.654 181.919 148.654H371.736C372.534 148.654 373.181 148.007 373.181 147.209V143.236C373.181 142.438 372.534 141.791 371.736 141.791Z" fill="#312E38"/>
<path d="M376.389 261.732H376.471C376.699 261.706 376.921 261.635 377.122 261.524C377.323 261.412 377.5 261.262 377.643 261.082C377.786 260.901 377.892 260.695 377.955 260.473C378.018 260.252 378.036 260.02 378.009 259.791L361.093 145.294L354.901 145.48L374.804 260.599C374.875 260.953 375.078 261.268 375.373 261.478C375.667 261.689 376.03 261.779 376.389 261.732Z" fill="#312E38"/>
<path d="M175.565 261.732H175.484C175.255 261.706 175.034 261.635 174.832 261.524C174.631 261.412 174.454 261.262 174.311 261.082C174.168 260.901 174.062 260.695 173.999 260.473C173.936 260.252 173.918 260.02 173.945 259.791L190.861 145.294L197.053 145.48L177.15 260.599C177.08 260.954 176.877 261.269 176.582 261.479C176.288 261.69 175.924 261.78 175.565 261.732Z" fill="#312E38"/>
<path d="M214.722 261.732H214.641C214.412 261.706 214.191 261.635 213.99 261.524C213.788 261.412 213.611 261.262 213.468 261.082C213.326 260.901 213.22 260.694 213.157 260.473C213.095 260.252 213.077 260.02 213.104 259.791L230.018 145.294L236.212 145.48L216.309 260.599C216.238 260.954 216.035 261.269 215.74 261.479C215.445 261.689 215.081 261.78 214.722 261.732Z" fill="#312E38"/>
<path d="M314.514 261.637H348.081C349.696 259.667 349.1 252.398 348.857 250.024C348.805 249.546 348.771 249.267 348.771 249.267C348.771 249.267 337.309 240.099 335.734 247.119C335.686 247.338 335.628 247.554 335.565 247.766C333.582 254.332 324.683 257.317 319.546 258.147C316.205 258.69 314.972 260.426 314.514 261.637Z" fill="#FFB27D"/>
<path d="M406.105 152.571C404.893 152.571 348.609 163.138 339.3 174.663C334.65 180.429 333.956 246.909 333.956 246.909C333.956 246.909 339.711 254.042 352.138 249.9C352.138 249.9 361.252 204.411 360.577 190.613C360.391 186.798 399.032 190.055 406.105 188.23C413.179 186.405 430.459 171.013 426.65 163.519C422.84 156.025 406.105 152.571 406.105 152.571Z" fill="#E6E6E6"/>
<path d="M339.538 136.291C339.538 136.291 328.191 136.444 325.5 137.593C322.808 138.743 317.368 141.384 318.826 141.789C320.284 142.195 327.239 141.624 328.742 141.853C330.245 142.081 332.09 141.789 333.02 141.789H338.228L339.538 136.291Z" fill="#FFB27D"/>
<path d="M326.266 109.045C326.266 109.045 322.395 106.279 318.64 105.741C316.497 105.434 314.412 105.053 313.153 104.608C309.684 103.386 302.736 97.1476 303.27 96.4241C304.944 94.0786 313.054 99.043 314.468 98.5092C315.881 97.9754 311.75 95.0383 313.188 94.006C313.932 93.4666 315.694 96.1711 317.13 96.4427C319.071 96.8147 320.591 99.5527 321.175 99.6959C322.314 99.9749 327.297 103.682 327.297 103.682L326.266 109.045Z" fill="#FFB27D"/>
<path d="M400.498 76.7422C400.498 76.7422 391.856 79.4207 383.341 102.869C374.825 126.316 371.591 127.583 368.496 128.504C365.4 129.425 338.232 134.828 338.232 134.828V141.786H380.095C380.095 141.786 395.792 126.854 400.498 116.81C405.204 106.765 400.498 76.7422 400.498 76.7422Z" fill="#ED7D2B"/>
<path d="M299.68 261.637H333.245C334.859 259.667 334.264 252.398 334.021 250.024C333.97 249.546 333.937 249.267 333.937 249.267C333.937 249.267 322.473 240.099 320.9 247.119C320.851 247.338 320.794 247.554 320.73 247.766C318.746 254.332 309.849 257.317 304.712 258.147C301.371 258.69 300.136 260.426 299.68 261.637Z" fill="#FFB27D"/>
<path d="M389.518 152.571C388.305 152.571 332.022 163.138 322.712 174.663C318.062 180.429 317.368 246.909 317.368 246.909C317.368 246.909 323.123 254.042 335.55 249.9C335.55 249.9 344.664 204.411 343.989 190.613C343.803 186.798 382.444 190.055 389.518 188.23C396.592 186.405 413.872 171.013 410.062 163.519C406.253 156.025 389.518 152.571 389.518 152.571Z" fill="white"/>
<path d="M393.041 84.1734C397.089 83.8386 401.335 82.7598 405.003 81.5694C409.59 80.0813 413.288 77.9051 410.905 73.7144C408.708 69.851 405.156 61.2185 405.396 54.0703L396.862 60.9525L391.064 65.625C391.064 65.625 391.088 68.3779 391.72 73.2047C391.838 74.0845 391.971 75.035 392.131 76.0487C392.195 76.4503 392.138 76.8616 391.969 77.2312C391.799 77.6008 391.525 77.9122 391.179 78.1264C391.134 78.1525 391.092 78.1803 391.049 78.2082C388.168 80.0125 389.648 84.445 393.041 84.1734Z" fill="#FFB27D"/>
<path d="M391.065 64.4815C391.065 64.4815 390.767 65.4823 391.277 69.1745C396.446 68.3319 401.278 64.21 401.278 64.21C398.646 63.4864 397.689 60.6443 395.73 60.9084L391.065 64.4815Z" fill="#ED975D"/>
<path d="M386.282 65.3236C386.282 65.3236 406.162 68.6271 408.028 56.2094C409.894 43.7916 413.718 35.8622 401.103 33.2284C388.488 30.5946 385.306 34.9601 383.674 38.9518C382.043 42.9435 381.158 64.1444 386.282 65.3236Z" fill="#FFB27D"/>
<path d="M380.752 33.4651C379.898 36.4542 382.182 40.0944 386.018 41.2941C391.711 43.0723 390.454 50.0568 393.015 49.9601C395.577 49.8634 396.611 45.9461 398.899 49.0784C400.852 51.7495 397.275 54.9153 397.52 56.381C397.943 58.8958 401.882 64.0407 405.431 63.7822C408.98 63.5236 415.624 46.6548 414.294 41.4355C412.964 36.2162 407.652 30.7123 402.624 29.9534C397.597 29.1944 390.61 31.367 388.998 31.367C387.385 31.367 381.223 31.8506 380.752 33.4651Z" fill="#2B478B"/>
<path d="M426.916 93.9703C424.043 82.4045 416.1 70.2677 410.734 70.2788C401.584 70.2956 388.428 72.7099 383.118 85.8121C379.212 95.4621 373.989 150.972 379.885 154.919C393.365 163.944 424.612 182.368 430.162 163.579C435.246 146.366 431.903 114.042 426.916 93.9703Z" fill="#F99746"/>
<path d="M404.688 82.4608C404.082 80.8809 403.114 79.4651 401.862 78.3266C400.61 77.1881 399.109 76.3586 397.479 75.9046C395.848 75.4506 394.135 75.3847 392.474 75.7121C390.814 76.0395 389.254 76.7512 387.918 77.7902C384.812 80.2082 381.01 83.6475 376.415 88.5394C359.338 106.723 355.867 106.612 352.661 106.236C349.454 105.86 322.355 100.109 322.355 100.109C321.437 100.834 320.685 101.747 320.151 102.787C319.061 104.997 319.609 106.508 319.609 106.508C318.547 105.823 329.215 113.176 334.525 116.107C341.536 119.978 352.101 123.609 356.31 124.987C357.502 125.377 358.79 125.358 359.969 124.931C366.215 122.681 387.191 114.478 404.264 100.243C408.762 96.4856 407.108 88.7571 404.688 82.4608Z" fill="#F99746"/>
<path d="M411.65 70.3909L409.58 65.7222C409.58 65.7222 391.035 67.2344 387.917 77.7902C387.919 77.7902 402.292 70.616 411.65 70.3909Z" fill="white"/>
<path d="M456.675 261.22H456.804C457.851 261.201 458.664 260.346 458.56 259.36L451.575 189.595L445.48 190.14L455.509 260.279C455.556 260.55 455.701 260.796 455.915 260.969C456.13 261.142 456.4 261.231 456.675 261.22Z" fill="#8CB4F4"/>
<path d="M420.716 261.22H420.844C421.891 261.201 422.704 260.346 422.602 259.36L415.615 189.595L409.52 190.14L419.551 260.279C419.598 260.55 419.742 260.796 419.956 260.969C420.17 261.142 420.44 261.231 420.716 261.22Z" fill="#8CB4F4"/>
<path d="M353.217 261.22H353.089C352.043 261.201 351.229 260.346 351.333 259.36L358.317 189.595L364.413 190.14L354.383 260.277C354.337 260.549 354.193 260.795 353.978 260.969C353.763 261.142 353.493 261.231 353.217 261.22Z" fill="#73A2E5"/>
<path d="M454.695 179.711L461.324 121.443C462.193 113.044 459.384 104.823 447.266 104.187L425.949 102.885C413.314 102.364 407.609 112.879 406.01 120.974L393.361 185.027L454.695 179.711Z" fill="#8CB4F4"/>
<path d="M356.525 179.445H454.594V187.157C454.594 188.073 454.23 188.952 453.582 189.6C452.934 190.248 452.055 190.613 451.138 190.613H356.525C355.608 190.613 354.729 190.248 354.081 189.6C353.433 188.952 353.069 188.073 353.069 187.157V182.901C353.069 181.984 353.433 181.105 354.081 180.457C354.729 179.809 355.608 179.445 356.525 179.445Z" fill="#73A2E5"/>
<path d="M396.043 179.445H454.592V187.929C454.592 188.64 454.31 189.323 453.806 189.826C453.303 190.33 452.62 190.613 451.908 190.613H396.043C395.332 190.613 394.649 190.33 394.146 189.826C393.642 189.323 393.359 188.64 393.359 187.929V182.129C393.359 181.417 393.642 180.734 394.146 180.231C394.649 179.728 395.332 179.445 396.043 179.445Z" fill="#8CB4F4"/>
</svg>
