<svg width="468" height="297" viewBox="0 0 468 297" fill="none" xmlns="http://www.w3.org/2000/svg">
<rect width="468" height="297" fill="white"/>
<rect width="468" height="297" fill="black"/>
<rect width="468" height="297" fill="#000036"/>
<rect width="468" height="297" fill="#F94239"/>
<path d="M96.8933 146.587H111.189V181.694H96.8933V146.587Z" fill="white"/>
<path d="M118.537 146.587H132.833V163.61H118.537V146.587Z" fill="white"/>
<path d="M140.18 146.587H154.476V181.694H140.18V146.587Z" fill="white"/>
<path fill-rule="evenodd" clip-rule="evenodd" d="M125.034 114.955L161.092 136.026L150.846 136.042L125.034 122.751L100.687 136.042H90.2783L125.034 114.955Z" fill="white"/>
<path d="M195.643 176.205C191.675 180.099 186.799 182.046 181.015 182.046C175.23 182.046 170.335 180.099 166.331 176.205C162.363 172.275 160.379 167.436 160.379 161.688C160.379 155.941 162.363 151.12 166.331 147.227C170.335 143.296 175.23 141.331 181.015 141.331C186.799 141.331 191.675 143.296 195.643 147.227C199.648 151.12 201.65 155.941 201.65 161.688C201.65 167.436 199.648 172.275 195.643 176.205ZM174.173 168.474C175.99 170.254 178.271 171.144 181.015 171.144C183.759 171.144 186.02 170.254 187.8 168.474C189.617 166.657 190.526 164.395 190.526 161.688C190.526 158.981 189.617 156.738 187.8 154.958C186.02 153.141 183.759 152.233 181.015 152.233C178.271 152.233 175.99 153.141 174.173 154.958C172.393 156.738 171.503 158.981 171.503 161.688C171.503 164.395 172.393 166.657 174.173 168.474Z" fill="white"/>
<path d="M213.216 181.156L200.813 142.221H213.05L219.446 166.972L225.842 142.221H238.079L225.675 181.156H213.216Z" fill="white"/>
<path d="M261.155 181.156L259.82 176.15H248.585L247.25 181.156H235.291L247.695 142.221H260.71L273.113 181.156H261.155ZM250.976 167.25H257.428L254.202 155.292L250.976 167.25Z" fill="white"/>
<path d="M286.471 170.365H299.264V181.156H275.347V142.221H286.471V170.365Z" fill="white"/>
<path d="M302.614 142.221H313.738V181.156H302.614V142.221Z" fill="white"/>
<path d="M332.763 182.046C328.536 182.046 325.013 181.174 322.195 179.431C319.377 177.652 317.486 175.26 316.521 172.256L326.033 166.75C327.33 170.05 329.667 171.7 333.041 171.7C335.562 171.7 336.823 171.033 336.823 169.698C336.823 169.327 336.73 168.993 336.545 168.697C336.36 168.4 336.007 168.14 335.488 167.918C334.969 167.695 334.506 167.529 334.098 167.417C333.727 167.269 333.059 167.065 332.095 166.805C331.131 166.546 330.408 166.342 329.926 166.194C322.176 163.858 318.301 159.686 318.301 153.679C318.301 150.119 319.581 147.171 322.139 144.835C324.735 142.499 328.128 141.331 332.318 141.331C335.618 141.331 338.566 142.11 341.161 143.667C343.794 145.225 345.722 147.468 346.946 150.397L337.713 155.793C336.638 153.049 334.858 151.677 332.373 151.677C331.409 151.677 330.668 151.881 330.149 152.288C329.667 152.659 329.426 153.141 329.426 153.735C329.426 154.55 329.852 155.181 330.705 155.626C331.595 156.071 333.282 156.645 335.766 157.35C337.62 157.906 339.141 158.444 340.327 158.963C341.514 159.445 342.756 160.15 344.054 161.077C345.352 161.966 346.316 163.135 346.946 164.581C347.613 165.99 347.947 167.658 347.947 169.587C347.947 173.554 346.575 176.632 343.831 178.82C341.124 180.97 337.435 182.046 332.763 182.046Z" fill="white"/>
<path d="M377.722 142.221V153.012H368.544V181.156H357.42V153.012H348.243V142.221H377.722Z" fill="white"/>
<path d="M90.2785 138.075H161.092V144.853H90.2785V138.075Z" fill="white"/>
</svg>
