<svg width="102" height="122" viewBox="0 0 102 122" fill="none" xmlns="http://www.w3.org/2000/svg">
<path d="M99.7812 66.9963C95.907 63.7998 90.1844 63.9487 86.4744 67.3276L74.4335 78.298C72.5947 75.9438 69.8345 74.5749 66.8214 74.5749H53.8401C52.2355 74.5749 50.6828 74.3013 49.2269 73.7614C45.526 72.3858 38.2136 70.5389 30.8378 73.5808C27.3153 75.035 25.9395 77.0042 14.0964 86.665C12.0412 85.5544 9.42492 85.842 7.69047 87.5765L1.88951 93.3774C-0.229284 95.4962 -0.229284 98.9286 1.88951 101.047L21.258 120.416C23.3558 122.517 26.803 122.539 28.9259 120.416L34.7285 114.613C36.8413 112.5 36.8413 109.062 34.7285 106.945L34.7173 106.934L35.9423 105.709C38.5262 103.121 42.0411 101.764 45.5019 102.001C54.11 102.559 62.8149 101.874 71.3897 99.9549C74.4261 99.2773 77.1997 97.7508 79.4079 95.5391L100.158 74.7893C102.366 72.584 102.17 68.9576 99.7812 66.9963ZM32.0328 111.917L26.2302 117.718C25.6028 118.345 24.5806 118.347 23.9534 117.72L4.58471 98.3515C3.95446 97.7175 3.95803 96.7014 4.58471 96.0748L10.3857 90.2721C11.0114 89.6464 12.0339 89.6419 12.6644 90.2721C33.1523 110.815 30.7354 108.345 32.0309 109.641C32.6602 110.268 32.6602 111.29 32.0328 111.917ZM97.4615 72.0934L76.7117 92.8432C75.014 94.5428 72.8861 95.7138 70.5591 96.2351C62.3362 98.0706 53.9907 98.7352 45.7509 98.1955C41.1676 97.8902 36.6066 99.6511 33.2464 103.014L32.0207 104.238C11.508 83.5793 18.5828 90.7044 17.0521 89.1629C28.7345 79.5909 29.6021 78.2191 32.293 77.1052C38.4624 74.5568 44.7213 76.154 47.9007 77.3361C49.7829 78.034 51.7804 78.3878 53.8394 78.3878H66.8207C70.0935 78.3878 72.6557 81.0473 72.6328 84.2296C72.6271 85.1029 71.8956 85.8139 71.0039 85.8139H41.8247C40.7711 85.8139 39.9185 86.6665 39.9185 87.7201C39.9185 88.7738 40.7711 89.6264 41.8247 89.6264H71.0039C73.9844 89.6264 76.4251 87.2174 76.4456 84.2555C76.4513 83.4458 76.3562 82.6488 76.1663 81.8782L89.0433 70.1462C91.3591 68.035 94.9317 67.9402 97.3571 69.9396C98.0362 70.4967 98.0579 71.497 97.4615 72.0934ZM73.2552 51.6956C80.8674 47.6577 85.5961 39.7961 85.5961 31.1786C85.5961 18.3836 75.1801 7.97527 62.3777 7.97527C49.5753 7.97527 39.1593 18.3839 39.1593 31.1786C39.1593 39.7961 43.8878 47.6579 51.5001 51.6956C53.1922 52.5927 54.2442 54.2535 54.2442 56.033V56.0373C52.8321 56.4009 51.7808 57.6736 51.7808 59.1979V65.8829C51.7808 68.6305 54.0166 70.8663 56.7643 70.8663H67.9899C70.7375 70.8663 72.9733 68.6305 72.9733 65.8829V59.1979C72.9733 57.6745 71.9235 56.4024 70.5126 56.038V56.033C70.5128 54.2535 71.5627 52.591 73.2552 51.6956ZM53.287 48.3261C46.924 44.9527 42.9716 38.3812 42.9716 31.1786C42.9716 20.4872 51.6765 11.788 62.3772 11.788C73.0779 11.788 81.7828 20.4874 81.7828 31.1786C81.7828 38.3812 77.8307 44.9527 71.4674 48.3261C68.5601 49.868 66.7492 52.7717 66.7075 55.9234H58.0484C58.0071 52.7714 56.1945 49.868 53.287 48.3261ZM69.1608 65.8831C69.1608 66.5291 68.6359 67.0542 67.9897 67.0542H56.764C56.118 67.0542 55.5929 66.5293 55.5929 65.8831V59.7359H69.1604V65.8831H69.1608ZM60.471 4.51996V1.90625C60.471 0.85257 61.3235 0 62.3772 0C63.4309 0 64.2835 0.85257 64.2835 1.90625V4.51996C64.2835 5.57364 63.4309 6.42621 62.3772 6.42621C61.3235 6.42621 60.471 5.57387 60.471 4.51996ZM45.7418 6.87489C45.215 5.96275 45.5279 4.79732 46.4398 4.27048C47.3481 3.7453 48.5154 4.05269 49.0442 4.9684L50.3509 7.23207C50.8778 8.14421 50.5649 9.30965 49.653 9.83649C48.7456 10.3605 47.5769 10.0531 47.0486 9.13856L45.7418 6.87489ZM34.773 15.9374C35.2999 15.027 36.4672 14.7124 37.3775 15.2395L39.6411 16.5462C40.5533 17.0731 40.8661 18.2383 40.3391 19.1507C39.8063 20.0704 38.6368 20.3697 37.7346 19.8486L35.471 18.5419C34.5588 18.0148 34.2462 16.8496 34.773 15.9374ZM84.417 44.5991C84.9439 43.687 86.1112 43.3724 87.0215 43.9012L89.2851 45.2079C90.1973 45.7347 90.5101 46.8999 89.9831 47.8123C89.4503 48.7321 88.2808 49.0314 87.3786 48.5102L85.115 47.2035C84.2031 46.6767 83.8904 45.5112 84.417 44.5991ZM30.5023 31.8746C30.5023 30.821 31.3549 29.9684 32.4086 29.9684H35.0223C36.076 29.9684 36.9285 30.821 36.9285 31.8746C36.9285 32.9283 36.076 33.7809 35.0223 33.7809H32.4086C31.3551 33.7811 30.5023 32.9286 30.5023 31.8746ZM89.7321 29.9686H92.3458C93.3995 29.9686 94.2521 30.8212 94.2521 31.8749C94.2521 32.9286 93.3995 33.7811 92.3458 33.7811H89.7321C88.6785 33.7811 87.8259 32.9286 87.8259 31.8749C87.8259 30.8212 88.6782 29.9686 89.7321 29.9686ZM40.3393 44.5991C40.8661 45.5112 40.5533 46.6767 39.6414 47.2035L37.3777 48.5102C36.4744 49.0321 35.3051 48.7304 34.7733 47.8123C34.2464 46.9002 34.5593 45.7347 35.4712 45.2079L37.7349 43.9012C38.6434 43.3722 39.8105 43.687 40.3393 44.5991ZM84.417 19.1504C83.8902 18.2383 84.2031 17.0729 85.115 16.546L87.3786 15.2393C88.287 14.7124 89.4543 15.0272 89.9831 15.9372C90.5099 16.8493 90.197 18.0148 89.2851 18.5416L87.0215 19.8483C86.1181 20.3707 84.9491 20.0688 84.417 19.1504ZM74.4033 7.23255L75.71 4.96888C76.2368 4.05674 77.4042 3.74578 78.3144 4.27095C79.2266 4.79779 79.5394 5.96299 79.0123 6.87537L77.7056 9.13904C77.1728 10.0588 76.0033 10.3581 75.1012 9.83696C74.1893 9.30989 73.8767 8.14445 74.4033 7.23255Z" fill="url(#paint0_linear_108_818)"/>
<defs>
<linearGradient id="paint0_linear_108_818" x1="6.81217" y1="105.97" x2="93.4596" y2="19.3224" gradientUnits="userSpaceOnUse">
<stop stop-color="#0095DA"/>
<stop offset="0.5" stop-color="#00AEEE"/>
<stop offset="1" stop-color="#2BC4F3"/>
</linearGradient>
</defs>
</svg>
