<svg width="24" height="24" viewBox="0 0 24 24" fill="none" xmlns="http://www.w3.org/2000/svg">
<g filter="url(#filter0_b_112_2260)">
<rect width="24" height="24" rx="2.95385" fill="url(#paint0_linear_112_2260)"/>
<path d="M6.71539 8.2616V11.4001H8.92605L10.2462 13.7178V16.5001H13.3846V13.3616H10.9456L9.82953 11.4001H9.85385V10.2231H13.7769V11.4001H16.9154V8.2616H13.7769V9.43852H9.85385V8.2616H6.71539ZM7.50001 9.04621H9.06924V10.6154H7.50001V9.04621ZM14.5615 9.04621H16.1308V10.6154H14.5615V9.04621ZM11.1948 14.1462H12.6V15.7154H11.0308V14.2396L11.1948 14.1462Z" fill="white"/>
<rect x="0.184615" y="0.184615" width="23.6308" height="23.6308" rx="2.76923" stroke="url(#paint1_linear_112_2260)" stroke-width="0.369231"/>
</g>
<defs>
<filter id="filter0_b_112_2260" x="-10.3385" y="-10.3385" width="44.6769" height="44.6769" filterUnits="userSpaceOnUse" color-interpolation-filters="sRGB">
<feFlood flood-opacity="0" result="BackgroundImageFix"/>
<feGaussianBlur in="BackgroundImage" stdDeviation="5.16923"/>
<feComposite in2="SourceAlpha" operator="in" result="effect1_backgroundBlur_112_2260"/>
<feBlend mode="normal" in="SourceGraphic" in2="effect1_backgroundBlur_112_2260" result="shape"/>
</filter>
<linearGradient id="paint0_linear_112_2260" x1="7.46109e-07" y1="-0.139131" x2="3.98727" y2="27.0005" gradientUnits="userSpaceOnUse">
<stop stop-color="white" stop-opacity="0.09"/>
<stop offset="1" stop-color="white" stop-opacity="0.03"/>
</linearGradient>
<linearGradient id="paint1_linear_112_2260" x1="7.46109e-07" y1="-0.139131" x2="3.98727" y2="27.0005" gradientUnits="userSpaceOnUse">
<stop stop-color="white" stop-opacity="0.15"/>
<stop offset="1" stop-color="white" stop-opacity="0.07"/>
</linearGradient>
</defs>
</svg>
