<svg width="122" height="122" viewBox="0 0 122 122" fill="none" xmlns="http://www.w3.org/2000/svg">
<path d="M83.1001 31.3873C80.2506 28.4118 76.3641 26.6489 72.2483 26.465C68.1326 26.281 64.1043 27.6902 61.0007 30.3997C57.8971 27.6902 53.8688 26.281 49.7531 26.465C45.6373 26.6489 41.7508 28.4118 38.9013 31.3873C35.8465 34.5837 34.1418 38.8348 34.1418 43.2562C34.1418 47.6775 35.8465 51.9286 38.9013 55.125L59.9586 76.8403C60.094 76.9797 60.256 77.0906 60.435 77.1663C60.614 77.242 60.8063 77.281 61.0007 77.281C61.195 77.281 61.3874 77.242 61.5664 77.1663C61.7454 77.0906 61.9074 76.9797 62.0428 76.8403L83.1001 55.125C86.1548 51.9286 87.8595 47.6775 87.8595 43.2562C87.8595 38.8348 86.1548 34.5837 83.1001 31.3873ZM61.0007 73.7424L40.9869 53.1026C38.4527 50.4508 37.0385 46.9241 37.0385 43.2562C37.0385 39.5882 38.4527 36.0615 40.9869 33.4097C42.2119 32.1277 43.684 31.1073 45.3144 30.4102C46.9448 29.713 48.6996 29.3536 50.4727 29.3536C52.2459 29.3536 54.0007 29.713 55.6311 30.4102C57.2615 31.1073 58.7336 32.1277 59.9586 33.4097C60.238 33.6803 60.6117 33.8316 61.0007 33.8316C61.3896 33.8316 61.7633 33.6803 62.0428 33.4097C63.2678 32.1276 64.74 31.1071 66.3704 30.4099C68.0009 29.7127 69.7557 29.3532 71.529 29.3532C73.3023 29.3532 75.0571 29.7127 76.6876 30.4099C78.318 31.1071 79.7902 32.1276 81.0152 33.4097C83.5494 36.0615 84.9637 39.5882 84.9637 43.2562C84.9637 46.9241 83.5494 50.4508 81.0152 53.1026L61.0007 73.7424Z" fill="#0BCEB2"/>
<path d="M1.45238 109.234C2.25451 109.234 2.90476 108.584 2.90476 107.782C2.90476 106.98 2.25451 106.33 1.45238 106.33C0.650253 106.33 0 106.98 0 107.782C0 108.584 0.650253 109.234 1.45238 109.234Z" fill="#2D4356"/>
<path d="M7.98813 106.33H5.80956C5.42436 106.33 5.05494 106.483 4.78257 106.755C4.5102 107.027 4.35718 107.397 4.35718 107.782C4.35718 108.167 4.5102 108.537 4.78257 108.809C5.05494 109.081 5.42436 109.234 5.80956 109.234H7.98813C8.37333 109.234 8.74274 109.081 9.01512 108.809C9.28749 108.537 9.44051 108.167 9.44051 107.782C9.44051 107.397 9.28749 107.027 9.01512 106.755C8.74274 106.483 8.37333 106.33 7.98813 106.33ZM116.191 106.33H114.012C113.627 106.33 113.257 106.483 112.985 106.755C112.713 107.027 112.56 107.397 112.56 107.782C112.56 108.167 112.713 108.537 112.985 108.809C113.257 109.081 113.627 109.234 114.012 109.234H116.191C116.576 109.234 116.945 109.081 117.218 108.809C117.49 108.537 117.643 108.167 117.643 107.782C117.643 107.397 117.49 107.027 117.218 106.755C116.945 106.483 116.576 106.33 116.191 106.33Z" fill="#2D4356"/>
<path d="M120.548 109.234C121.35 109.234 122 108.584 122 107.782C122 106.98 121.35 106.33 120.548 106.33C119.745 106.33 119.095 106.98 119.095 107.782C119.095 108.584 119.745 109.234 120.548 109.234Z" fill="#2D4356"/>
<path d="M85.8023 112.139H79.7691C79.4033 112.168 79.0617 112.333 78.8125 112.602C78.5634 112.871 78.4249 113.225 78.4249 113.592C78.4249 113.958 78.5634 114.312 78.8125 114.581C79.0617 114.85 79.4033 115.016 79.7691 115.044H85.8023C86.1681 115.016 86.5097 114.85 86.7588 114.581C87.008 114.312 87.1464 113.958 87.1464 113.592C87.1464 113.225 87.008 112.871 86.7588 112.602C86.5097 112.333 86.1681 112.168 85.8023 112.139ZM42.2309 112.139H36.1977C35.8319 112.168 35.4903 112.333 35.2411 112.602C34.9919 112.871 34.8535 113.225 34.8535 113.592C34.8535 113.958 34.9919 114.312 35.2411 114.581C35.4903 114.85 35.8319 115.016 36.1977 115.044H42.2309C42.5966 115.016 42.9382 114.85 43.1874 114.581C43.4366 114.312 43.575 113.958 43.575 113.592C43.575 113.225 43.4366 112.871 43.1874 112.602C42.9382 112.333 42.5966 112.168 42.2309 112.139ZM75.5238 112.139H46.4762C46.091 112.139 45.7216 112.292 45.4492 112.565C45.1768 112.837 45.0238 113.206 45.0238 113.592C45.0238 113.977 45.1768 114.346 45.4492 114.619C45.7216 114.891 46.091 115.044 46.4762 115.044H58.0516V116.496H52.2857C51.9005 116.496 51.5311 116.649 51.2587 116.922C50.9863 117.194 50.8333 117.563 50.8333 117.949C50.8333 118.334 50.9863 118.703 51.2587 118.976C51.5311 119.248 51.9005 119.401 52.2857 119.401H70.4405C70.8256 119.401 71.1951 119.248 71.4674 118.976C71.7398 118.703 71.8928 118.334 71.8928 117.949C71.8928 117.563 71.7398 117.194 71.4674 116.922C71.1951 116.649 70.8256 116.496 70.4405 116.496H63.9483V115.044H75.5238C75.909 115.044 76.2784 114.891 76.5508 114.619C76.8232 114.346 76.9762 113.977 76.9762 113.592C76.9762 113.206 76.8232 112.837 76.5508 112.565C76.2784 112.292 75.909 112.139 75.5238 112.139Z" fill="#0BCEB2"/>
<path d="M109.452 106.33H73.3459C73.2918 105.9 73.1578 105.485 72.9508 105.105C72.9065 105.016 72.8535 104.909 72.7911 104.773C72.0861 103.282 71.9931 101.574 72.5318 100.015L72.5739 99.9181C73.3684 98.0206 75.1541 97.526 79.4778 96.4934C81.3499 96.0461 83.6803 95.4883 86.4057 94.6198C98.6572 90.2801 102.195 81.0233 103.788 74.4368C105.081 69.0971 106.907 63.3508 106.906 63.3508C107.24 62.4394 108.255 59.6675 106.353 58.6487C105.011 57.9298 103.281 58.9537 102.726 59.7067C102.675 59.7721 102.601 59.8418 102.512 59.934C101.863 60.6021 100.51 61.9935 98.6805 65.8532C96.4961 70.4565 94.0358 75.253 90.126 78.8687C89.1024 79.8312 87.8866 80.566 86.5586 81.0247C85.2306 81.4834 83.8205 81.6557 82.4211 81.5302C82.2439 81.4536 82.0773 81.3548 81.9251 81.2361C82.2243 80.6537 83.8604 79.3081 87.3911 77.7533C93.4272 75.2044 94.1302 70.718 94.205 69.9773C94.3872 68.8313 94.8179 65.9469 92.8434 65.1481C91.2857 64.5192 89.6147 65.8895 88.569 67.3833C87.6096 68.5415 86.3502 69.4137 84.9286 69.9046C83.4595 70.5277 81.9483 71.0085 80.3485 71.5182C78.0389 72.1807 75.7934 73.0493 73.6392 74.1136C69.8814 76.166 67.0128 79.5326 65.5829 83.5686C64.2006 87.0639 63.6651 90.8366 64.0201 94.5784C64.5938 100.145 66.1718 103.875 67.797 106.33H54.2049C55.8302 103.875 57.4074 100.145 57.9811 94.5784C58.3362 90.8363 57.8007 87.0634 56.4184 83.5679C54.9883 79.5322 52.1197 76.1659 48.362 74.1136C46.2078 73.0493 43.9624 72.1807 41.6527 71.5182C40.0529 71.0092 38.5425 70.5277 37.0727 69.9046C35.6513 69.4136 34.3922 68.5414 33.433 67.3833C32.3873 65.8895 30.717 64.5236 29.1586 65.1481C27.1834 65.9469 27.614 68.8313 27.7963 69.9773C27.8718 70.718 28.5733 75.2044 34.5898 77.7439C38.1394 79.3074 39.777 80.653 40.0762 81.2354C40.1219 81.3276 39.501 81.5375 39.4132 81.5462C39.221 81.5636 39.0281 81.5725 38.8351 81.5731C38.2213 81.5796 37.6081 81.5291 37.0037 81.422C35.1315 81.0894 33.3905 80.2374 31.9792 78.9631L31.876 78.8687C27.9662 75.253 25.5059 70.4565 23.3215 65.8532C21.4915 61.9935 20.1393 60.6021 19.4894 59.934C19.4001 59.8418 19.3275 59.7714 19.2752 59.706C18.7204 58.9522 16.9913 57.929 15.6486 58.6487C13.7474 59.6675 14.7626 62.4394 15.0756 63.2927C15.093 63.35 16.9201 69.0971 18.2128 74.4368C19.8075 81.0233 23.344 90.2801 35.6406 94.6343C38.321 95.4883 40.6513 96.0461 42.5242 96.4934C46.8472 97.526 48.6329 98.0206 49.423 99.9057L49.4818 100.042C50.0098 101.594 49.9127 103.291 49.2109 104.773C49.1477 104.909 49.0947 105.016 49.0512 105.105C48.844 105.485 48.7098 105.9 48.6554 106.33H12.5477C12.3411 106.303 12.1311 106.32 11.9318 106.381C11.7324 106.441 11.5483 106.544 11.3917 106.681C11.2351 106.819 11.1096 106.988 11.0237 107.178C10.9377 107.368 10.8933 107.574 10.8933 107.782C10.8933 107.99 10.9377 108.196 11.0237 108.386C11.1096 108.576 11.2351 108.745 11.3917 108.883C11.5483 109.02 11.7324 109.123 11.9318 109.183C12.1311 109.244 12.3411 109.261 12.5477 109.234H109.451C109.658 109.261 109.868 109.244 110.067 109.183C110.267 109.123 110.451 109.02 110.607 108.883C110.764 108.745 110.889 108.576 110.975 108.386C111.061 108.196 111.106 107.99 111.106 107.782C111.106 107.574 111.061 107.368 110.975 107.178C110.889 106.988 110.764 106.819 110.607 106.681C110.451 106.544 110.267 106.441 110.067 106.381C109.868 106.32 109.658 106.303 109.451 106.33H109.452ZM68.2909 84.6202C69.4747 81.2386 71.8633 78.4119 75.0001 76.6807C77.001 75.6978 79.0861 74.8963 81.2301 74.2857C82.8234 73.7789 84.4689 73.2546 86.0622 72.5792C87.9895 71.8824 89.6828 70.6589 90.9494 69.0477C91.1022 68.8287 91.2714 68.6216 91.4556 68.4283C91.4411 68.7166 91.3176 69.6577 91.314 69.6926C91.3031 69.8306 90.9727 73.0883 86.2401 75.086C78.9521 78.2958 78.9731 80.5804 78.9797 81.3313C78.9876 82.2056 79.4248 83.4263 81.4589 84.2796C81.558 84.3207 81.6612 84.3511 81.7668 84.3704C83.6303 84.5989 85.5214 84.4157 87.3064 83.8336C89.0914 83.2515 90.727 82.2848 92.0976 81.0016C96.3879 77.0344 98.9986 71.9576 101.304 67.0986C102.027 65.4157 102.986 63.8442 104.152 62.4314C104.028 62.8221 102.243 68.4755 100.964 73.7527C99.5294 79.6835 96.3581 88.0129 85.4791 91.8675C82.9011 92.6881 80.724 93.2081 78.8025 93.6685C74.279 94.7483 71.2907 95.4622 69.8747 98.8419L69.8188 98.9719C69.3039 100.347 69.1479 101.831 69.3656 103.284C67.9882 100.464 67.1547 97.4095 66.9089 94.2807C66.6008 90.9966 67.0744 87.6862 68.2909 84.6202ZM43.1988 93.6685C41.278 93.2081 39.1009 92.6881 36.5665 91.8821C25.6431 88.0129 22.4719 79.6835 21.0362 73.7534C19.7951 68.6265 18.0755 63.146 17.8482 62.4292C19.0151 63.8424 19.9746 65.4147 20.6978 67.0986C23.0027 71.9576 25.6141 77.0344 29.9044 81.0016C31.2748 82.2848 32.9102 83.2516 34.6951 83.8337C36.4801 84.4158 38.371 84.599 40.2345 84.3704C40.3403 84.3512 40.4438 84.3207 40.5431 84.2796C42.5765 83.4263 43.0143 82.2056 43.0216 81.3313C43.0281 80.5804 43.0492 78.2958 35.7408 75.0766C31.0293 73.0883 30.6989 69.8306 30.6887 69.7122C30.6858 69.6635 30.5602 68.7173 30.5464 68.4283C30.7306 68.6216 30.8998 68.8287 31.0525 69.0477C32.3191 70.6591 34.0124 71.8829 35.9398 72.5799C37.5323 73.2553 39.1786 73.7789 40.7711 74.2865C42.9154 74.8967 45.0007 75.698 47.0019 76.6807C50.1386 78.4119 52.5273 81.2386 53.7111 84.6202C54.9274 87.6862 55.4007 90.9966 55.0923 94.2807C54.8468 97.4096 54.0131 100.464 52.6349 103.284C52.8528 101.829 52.6961 100.342 52.1796 98.9646L52.107 98.7961C50.7112 95.4629 47.7222 94.7483 43.1988 93.6678V93.6685ZM31.9632 27.0601C32.3941 27.0601 32.8153 26.9324 33.1735 26.693C33.5318 26.4536 33.811 26.1133 33.9759 25.7153C34.1408 25.3172 34.1839 24.8791 34.0999 24.4565C34.0158 24.0339 33.8083 23.6458 33.5037 23.3411C33.199 23.0364 32.8108 22.8289 32.3882 22.7448C31.9656 22.6608 31.5276 22.7039 31.1295 22.8688C30.7314 23.0337 30.3911 23.3129 30.1518 23.6712C29.9124 24.0295 29.7846 24.4507 29.7846 24.8816C29.7852 25.4592 30.0149 26.013 30.4233 26.4214C30.8318 26.8298 31.3856 27.0596 31.9632 27.0601ZM31.9632 23.7923C32.1786 23.7923 32.3892 23.8562 32.5684 23.9758C32.7475 24.0955 32.8871 24.2657 32.9695 24.4647C33.052 24.6637 33.0736 24.8828 33.0315 25.0941C32.9895 25.3054 32.8858 25.4995 32.7334 25.6518C32.5811 25.8041 32.387 25.9079 32.1757 25.9499C31.9644 25.9919 31.7454 25.9704 31.5463 25.8879C31.3473 25.8055 31.1772 25.6659 31.0575 25.4867C30.9378 25.3076 30.8739 25.097 30.8739 24.8816C30.8741 24.5927 30.9889 24.3158 31.1931 24.1115C31.3974 23.9073 31.6743 23.7925 31.9632 23.7923ZM116.412 42.3101C116.125 42.3101 115.844 42.3953 115.605 42.5549C115.366 42.7145 115.18 42.9413 115.07 43.2067C114.96 43.4721 114.931 43.7641 114.987 44.0459C115.043 44.3276 115.182 44.5864 115.385 44.7895C115.588 44.9926 115.847 45.1309 116.129 45.187C116.41 45.243 116.702 45.2143 116.968 45.1043C117.233 44.9944 117.46 44.8083 117.619 44.5694C117.779 44.3306 117.864 44.0498 117.864 43.7625C117.864 43.3774 117.711 43.0082 117.438 42.7359C117.166 42.4637 116.797 42.3105 116.412 42.3101ZM116.412 44.4887C116.268 44.4887 116.128 44.4461 116.008 44.3663C115.889 44.2865 115.796 44.1731 115.741 44.0404C115.686 43.9077 115.672 43.7617 115.7 43.6208C115.728 43.48 115.797 43.3506 115.898 43.249C116 43.1475 116.129 43.0783 116.27 43.0503C116.411 43.0223 116.557 43.0366 116.69 43.0916C116.822 43.1466 116.936 43.2396 117.016 43.3591C117.095 43.4785 117.138 43.6189 117.138 43.7625C117.138 43.955 117.061 44.1396 116.925 44.2758C116.789 44.4119 116.604 44.4885 116.412 44.4887ZM96.5832 43.7625C96.296 43.7625 96.0152 43.8477 95.7763 44.0073C95.5375 44.1669 95.3513 44.3937 95.2414 44.6591C95.1315 44.9245 95.1027 45.2165 95.1588 45.4982C95.2148 45.78 95.3531 46.0388 95.5563 46.2419C95.7594 46.445 96.0182 46.5833 96.2999 46.6394C96.5816 46.6954 96.8736 46.6666 97.139 46.5567C97.4044 46.4468 97.6313 46.2606 97.7908 46.0218C97.9504 45.783 98.0356 45.5021 98.0356 45.2149C98.0352 44.8298 97.8821 44.4606 97.6098 44.1883C97.3375 43.916 96.9683 43.7629 96.5832 43.7625ZM96.5832 45.9411C96.4396 45.9411 96.2992 45.8985 96.1798 45.8187C96.0604 45.7389 95.9673 45.6255 95.9123 45.4928C95.8574 45.3601 95.843 45.2141 95.871 45.0732C95.899 44.9324 95.9682 44.803 96.0697 44.7014C96.1713 44.5998 96.3007 44.5307 96.4416 44.5027C96.5824 44.4746 96.7284 44.489 96.8611 44.544C96.9938 44.5989 97.1072 44.692 97.187 44.8114C97.2668 44.9309 97.3094 45.0713 97.3094 45.2149C97.3092 45.4074 97.2327 45.592 97.0965 45.7282C96.9604 45.8643 96.7758 45.9409 96.5832 45.9411ZM113.507 2.59985C113.22 2.59985 112.939 2.68503 112.7 2.84462C112.461 3.00421 112.275 3.23104 112.165 3.49643C112.055 3.76182 112.027 4.05385 112.083 4.33558C112.139 4.61731 112.277 4.8761 112.48 5.07922C112.683 5.28234 112.942 5.42067 113.224 5.47671C113.506 5.53275 113.798 5.50399 114.063 5.39406C114.328 5.28413 114.555 5.09798 114.715 4.85913C114.874 4.62029 114.959 4.33949 114.959 4.05223C114.959 3.66716 114.806 3.29796 114.534 3.02567C114.261 2.75338 113.892 2.60024 113.507 2.59985ZM113.507 4.77842C113.363 4.77842 113.223 4.73583 113.104 4.65604C112.984 4.57624 112.891 4.46283 112.836 4.33014C112.781 4.19744 112.767 4.05143 112.795 3.91056C112.823 3.76969 112.892 3.6403 112.994 3.53874C113.095 3.43718 113.225 3.36802 113.365 3.34C113.506 3.31198 113.652 3.32636 113.785 3.38132C113.918 3.43629 114.031 3.52936 114.111 3.64878C114.191 3.76821 114.233 3.90861 114.233 4.05223C114.233 4.24477 114.157 4.42937 114.02 4.56552C113.884 4.70166 113.7 4.77823 113.507 4.77842ZM12.5666 20.6399C12.5666 20.3526 12.4814 20.0718 12.3219 19.833C12.1623 19.5941 11.9354 19.408 11.67 19.2981C11.4047 19.1881 11.1126 19.1594 10.8309 19.2154C10.5492 19.2714 10.2904 19.4098 10.0873 19.6129C9.88414 19.816 9.74581 20.0748 9.68977 20.3565C9.63373 20.6383 9.66249 20.9303 9.77242 21.1957C9.88235 21.4611 10.0685 21.6879 10.3073 21.8475C10.5462 22.0071 10.827 22.0923 11.1142 22.0923C11.4993 22.0919 11.8685 21.9387 12.1408 21.6664C12.4131 21.3942 12.5662 21.025 12.5666 20.6399ZM10.3881 20.6399C10.3881 20.4963 10.4306 20.3559 10.5104 20.2364C10.5902 20.117 10.7037 20.0239 10.8363 19.969C10.969 19.914 11.1151 19.8996 11.2559 19.9276C11.3968 19.9557 11.5262 20.0248 11.6277 20.1264C11.7293 20.2279 11.7985 20.3573 11.8265 20.4982C11.8545 20.6391 11.8401 20.7851 11.7852 20.9178C11.7302 21.0505 11.6371 21.1639 11.5177 21.2437C11.3983 21.3235 11.2579 21.3661 11.1142 21.3661C10.9217 21.3659 10.7371 21.2893 10.601 21.1532C10.4648 21.017 10.3882 20.8324 10.3881 20.6399Z" fill="#2D4356"/>
<path d="M7.90686 50.4215L8.98671 49.0011L8.30481 48.6147L7.6113 50.2051H7.58879L6.88438 48.6264L6.19087 49.0236L7.2591 50.4099V50.4331L5.58813 50.2167V50.9894L7.26999 50.7737V50.7962L6.19087 52.1825L6.83791 52.5914L7.57717 50.9894H7.59968L8.28158 52.5797L8.9976 52.1709L7.90686 50.8078V50.7846L9.62212 50.9894V50.2167L7.90686 50.444V50.4215ZM43.3784 6.11227L42.7567 6.91035L43.13 7.14636L43.5556 6.22337H43.5686L43.9608 7.13983L44.3732 6.90454L43.7451 6.1188V6.10573L44.7327 6.22337V5.77895L43.7451 5.90966V5.89659L44.3667 5.0789L43.9746 4.85596L43.5752 5.77241H43.5621L43.1569 4.86249L42.7567 5.09197L43.3726 5.89005V5.90312L42.4104 5.77895V6.22337L43.3784 6.0992V6.11227ZM104.152 25.2612V24.503L102.469 24.726V24.7035L103.529 23.3106L102.86 22.9316L102.18 24.4921H102.157L101.466 22.9425L100.786 23.3331L101.835 24.6926V24.7151L100.196 24.503V25.2612L101.845 25.0491V25.0716L100.786 26.4311L101.421 26.8327L102.146 25.2612H102.168L102.837 26.821L103.54 26.4202L102.469 25.0825V25.06L104.152 25.2612ZM70.2162 12.2362L71.1297 11.0351L70.5531 10.7076L69.9664 12.0532H69.9468L69.3513 10.717L68.7645 11.054L69.6686 12.2268V12.2464L68.2547 12.0634V12.717L69.6781 12.5347V12.5536L68.7645 13.7264L69.3121 14.0728L69.9373 12.717H69.9562L70.5335 14.0626L71.1392 13.7169L70.2162 12.563V12.5441L71.6678 12.717V12.0634L70.2162 12.2551V12.2362Z" fill="#0BCEB2"/>
</svg>
