<svg width="24" height="24" viewBox="0 0 24 24" fill="none" xmlns="http://www.w3.org/2000/svg">
<g filter="url(#filter0_b_112_2239)">
<rect width="24" height="24" rx="2.95385" fill="url(#paint0_linear_112_2239)"/>
<path d="M7.65602 12.8262C7.61064 12.7916 7.56623 12.7558 7.52282 12.7188C7.55383 12.7686 7.59927 12.8071 7.65602 12.8262ZM7.9912 7.86113H15.6124V12.3198C15.8795 12.1716 16.023 12.0707 16.1213 12.006V7.60591C16.1213 7.53837 16.0944 7.47361 16.0466 7.42587C15.9988 7.37813 15.934 7.35132 15.8665 7.35132H7.73636C7.59538 7.35132 7.48114 7.46556 7.48114 7.60591V12.0173C7.57793 12.0783 7.7169 12.1807 7.9912 12.3337V7.86113Z" fill="white"/>
<path d="M16.5596 11.9309C16.494 11.8785 16.4031 11.8788 16.2588 11.9309C16.2168 11.9462 16.1742 11.9717 16.1214 12.0062C16.0231 12.0709 15.8797 12.1718 15.6124 12.3199C15.53 12.3651 15.4401 12.4138 15.3311 12.4684C15.297 12.4855 15.2641 12.4995 15.2303 12.5158C14.616 12.805 14.0635 12.8979 14.0635 12.8979H12.2338C12.1992 12.8979 12.0882 12.9193 12.035 12.9995C11.9825 13.0796 11.9913 13.2116 11.9913 13.2116V13.4346C12.0573 13.4814 12.1271 13.5233 12.2041 13.5498C12.7557 13.7379 13.1289 13.5739 13.2917 13.3455C13.4822 13.0776 13.5791 12.9275 13.7882 13.0059C13.9974 13.0842 13.7882 13.5934 13.5271 13.8549C13.2654 14.1165 12.9516 14.3255 12.5077 14.3255C12.3212 14.3255 12.1404 14.2975 11.9913 14.2658V16.1653C11.9913 16.7014 12.561 16.9878 12.9526 16.9878C13.3442 16.9878 14.1286 16.7659 14.5077 15.825C14.8864 14.8843 14.482 13.643 14.482 13.643C14.482 13.643 15.0956 13.3679 15.7362 12.9633C16.3762 12.5585 16.5466 12.1792 16.5596 12.126C16.5722 12.0724 16.6244 11.9834 16.5596 11.9309Z" fill="white"/>
<path d="M13.5271 13.8547C13.7882 13.5932 13.9974 13.084 13.7882 13.0057C13.5791 12.9273 13.4821 13.0774 13.2917 13.3453C13.1289 13.5737 12.7557 13.7377 12.204 13.5496C12.1271 13.5232 12.0573 13.4812 11.9913 13.4344C11.7188 13.2407 11.5334 12.9273 11.397 12.9273H9.56723C9.56723 12.9273 9.05968 12.8415 8.47705 12.5801C8.41855 12.5537 8.35967 12.5276 8.29992 12.4976C8.19575 12.4454 8.09282 12.3907 7.99122 12.3337C7.71692 12.1806 7.57795 12.0785 7.48116 12.0173C7.44086 11.9918 7.40671 11.9728 7.37181 11.9602C7.2282 11.908 7.13668 11.908 7.07127 11.9602C7.00624 12.0127 7.05822 12.1018 7.07127 12.1552C7.08132 12.196 7.18589 12.4293 7.52271 12.7188C7.64019 12.8186 7.76448 12.9101 7.89468 12.9926C8.53468 13.3977 9.14893 13.672 9.14893 13.672C9.14893 13.672 8.74382 14.9131 9.1232 15.854C9.50207 16.7948 10.2861 17.0178 10.678 17.0178C11.07 17.0178 11.6397 16.7294 11.6397 16.1937V14.1687C11.6397 14.1687 11.7844 14.2214 11.9911 14.2655C12.1403 14.2972 12.321 14.3252 12.5076 14.3252C12.9516 14.3253 13.2653 14.1163 13.5271 13.8547ZM13.1984 10.2239C12.8969 10.2239 12.6077 10.3437 12.3944 10.5569C12.1812 10.7701 12.0614 11.0593 12.0613 11.3609C12.0613 11.9884 12.5704 12.4978 13.1984 12.4978C13.8259 12.4978 14.3348 11.9884 14.3348 11.3609C14.3348 10.7332 13.8259 10.2239 13.1984 10.2239Z" fill="white"/>
<path d="M10.5028 10.2239C9.87508 10.2239 9.36627 10.7332 9.36627 11.3609C9.36627 11.9884 9.87495 12.4978 10.5028 12.4978C11.1308 12.4978 11.6399 11.9884 11.6399 11.3609C11.6399 10.7332 11.1308 10.2239 10.5028 10.2239Z" fill="white"/>
<rect x="0.184615" y="0.184615" width="23.6308" height="23.6308" rx="2.76923" stroke="url(#paint1_linear_112_2239)" stroke-width="0.369231"/>
</g>
<defs>
<filter id="filter0_b_112_2239" x="-10.3385" y="-10.3385" width="44.6769" height="44.6769" filterUnits="userSpaceOnUse" color-interpolation-filters="sRGB">
<feFlood flood-opacity="0" result="BackgroundImageFix"/>
<feGaussianBlur in="BackgroundImage" stdDeviation="5.16923"/>
<feComposite in2="SourceAlpha" operator="in" result="effect1_backgroundBlur_112_2239"/>
<feBlend mode="normal" in="SourceGraphic" in2="effect1_backgroundBlur_112_2239" result="shape"/>
</filter>
<linearGradient id="paint0_linear_112_2239" x1="7.46109e-07" y1="-0.139131" x2="3.98727" y2="27.0005" gradientUnits="userSpaceOnUse">
<stop stop-color="white" stop-opacity="0.09"/>
<stop offset="1" stop-color="white" stop-opacity="0.03"/>
</linearGradient>
<linearGradient id="paint1_linear_112_2239" x1="7.46109e-07" y1="-0.139131" x2="3.98727" y2="27.0005" gradientUnits="userSpaceOnUse">
<stop stop-color="white" stop-opacity="0.15"/>
<stop offset="1" stop-color="white" stop-opacity="0.07"/>
</linearGradient>
</defs>
</svg>
