<svg width="500" height="379" viewBox="0 0 500 379" fill="none" xmlns="http://www.w3.org/2000/svg">
<g clip-path="url(#clip0_22_604)">
<g opacity="0.3">
<path opacity="0.3" d="M377.841 321.128V307.761C377.841 306.313 376.727 305.088 375.279 304.977L368.709 304.642C367.818 301.523 366.593 298.516 365.034 295.731L369.712 290.607C370.602 289.605 370.491 288.157 369.6 287.266L359.689 277.352C358.798 276.461 357.351 276.461 356.349 277.24L351.226 281.919C348.442 280.359 345.435 279.023 342.317 278.243L341.983 272.116C341.872 270.334 340.424 268.998 338.754 268.998H326.393C324.611 268.998 323.164 270.334 323.164 272.116L322.83 278.243C319.712 279.134 316.705 280.359 313.921 281.919L309.021 277.575C307.908 276.572 306.237 276.572 305.124 277.686L295.769 287.043C294.656 288.157 294.656 289.827 295.658 290.941L300.001 295.843C298.442 298.627 297.106 301.635 296.326 304.754L289.979 305.088C288.42 305.199 287.195 306.425 287.195 308.095V321.017C287.195 322.576 288.42 323.913 289.979 324.024L296.326 324.358C297.217 327.477 298.442 330.485 300.001 333.27L295.435 338.394C294.544 339.396 294.544 340.955 295.547 341.847L305.346 351.649C306.237 352.54 307.796 352.651 308.798 351.76L313.921 347.193C316.705 348.753 319.712 350.089 322.83 350.869L323.164 357.553C323.275 359.001 324.389 360.115 325.836 360.115H339.311C340.758 360.115 341.872 359.001 341.983 357.553L342.317 350.869C345.435 349.978 348.442 348.753 351.226 347.193L356.237 351.76C357.239 352.651 358.798 352.651 359.801 351.649L369.377 342.069C370.38 341.067 370.38 339.507 369.489 338.505L364.923 333.492C366.482 330.708 367.818 327.7 368.598 324.581L375.168 324.247C376.727 323.801 377.841 322.576 377.841 321.128ZM334.3 335.386C321.382 336.388 310.58 325.695 311.582 312.662C312.362 302.415 320.602 294.172 330.847 293.392C343.876 292.389 354.567 303.083 353.565 316.116C352.674 326.363 344.433 334.606 334.3 335.386Z" fill="url(#paint0_linear_22_604)"/>
</g>
<g opacity="0.3">
<path opacity="0.3" d="M145.88 298.741L142.205 301.972C140.09 300.746 137.974 299.855 135.635 299.298L135.413 294.286C135.413 293.283 134.522 292.503 133.52 292.503H123.497C122.495 292.503 121.604 293.283 121.604 294.286L121.381 299.298C119.154 299.855 116.927 300.858 114.811 301.972L111.136 298.63C110.357 297.962 109.132 297.962 108.464 298.741L101.448 305.759C100.669 306.539 100.669 307.652 101.337 308.432L104.678 312.108C103.453 314.224 102.562 316.341 102.005 318.68L96.9939 318.903C95.9917 318.903 95.2122 319.794 95.2122 320.796V330.933C95.2122 331.935 95.9917 332.715 96.9939 332.827L102.005 333.049C102.562 335.277 103.564 337.505 104.678 339.621L101.56 343.074C100.78 343.966 100.78 345.302 101.671 346.082L108.352 352.765C109.132 353.545 110.468 353.657 111.359 352.877L114.811 349.758C116.927 350.983 119.043 351.874 121.381 352.431L121.604 357.221C121.604 358.335 122.606 359.226 123.72 359.226H133.408C134.522 359.226 135.413 358.335 135.524 357.221L135.747 352.431C137.974 351.874 140.201 350.872 142.317 349.758L145.658 352.765C146.66 353.657 148.107 353.545 148.998 352.654L155.457 346.193C156.348 345.302 156.348 343.854 155.569 342.852L152.562 339.51C153.787 337.394 154.678 335.277 155.234 332.938L160.357 332.715C161.248 332.715 162.027 331.935 162.027 330.933V320.574C162.027 319.683 161.248 318.903 160.357 318.791L155.234 318.569C154.678 316.341 153.675 314.113 152.562 311.997L155.791 308.321C156.459 307.541 156.459 306.316 155.68 305.536L148.664 298.518C147.885 298.073 146.66 298.073 145.88 298.741ZM138.531 314.113C145.88 320.351 145.88 331.601 138.531 337.839C132.74 342.74 124.165 342.74 118.486 337.839C111.248 331.601 111.248 320.462 118.486 314.224C124.165 309.212 132.74 309.212 138.531 314.113Z" fill="url(#paint1_linear_22_604)"/>
</g>
<path d="M129.844 47.1108C129.621 53.4601 134.632 57.8043 138.084 62.3713C140.868 66.1585 142.205 70.3913 141.982 75.1811C141.648 81.1962 136.637 87.8796 130.178 87.5454C126.392 87.3226 122.939 87.6568 120.49 84.5379C118.04 81.3076 118.262 76.9633 118.931 73.1761C120.601 64.2649 125.723 55.3537 129.844 47.1108Z" fill="url(#paint2_linear_22_604)"/>
<path d="M124.053 31.7422C124.053 31.7422 132.962 34.0814 130.846 46.4457C128.841 58.1416 114.81 41.6559 114.81 41.6559L124.053 31.7422Z" fill="url(#paint3_linear_22_604)"/>
<path d="M90.2003 47.3336C90.6458 56.0221 91.0912 62.1485 85.1892 69.0547C81.8484 72.9533 78.285 74.4014 73.3852 77.0748C68.9309 79.4139 59.5767 87.434 64.2538 101.469C68.5968 114.39 85.1892 116.618 97.2159 110.715C101.113 108.821 104.677 107.818 107.572 104.365C109.911 101.581 112.249 98.573 113.697 95.2313C117.038 87.7682 119.265 78.4114 117.706 70.28C116.036 61.4802 110.69 54.574 103.007 50.2298C100.779 49.0045 98.5522 48.1134 96.1023 47.5564C94.8774 47.445 93.207 46.7767 90.2003 47.3336Z" fill="url(#paint4_linear_22_604)"/>
<path d="M124.61 32.5206C124.61 32.5206 121.826 24.2778 106.459 25.7258C101.448 26.1714 95.5455 30.5156 92.7616 34.9712C87.1936 44.1052 89.8662 57.5834 99.9999 65.2693C102.784 69.8363 106.013 69.5021 106.236 68.7224C106.459 68.054 103.229 38.6471 103.229 38.6471L124.61 32.5206Z" fill="url(#paint5_linear_22_604)"/>
<path d="M123.831 77.6332C123.831 77.6332 135.413 75.4053 143.987 76.1851C147.662 76.5192 193.987 159.171 193.987 159.171L157.35 192.142C157.35 192.142 142.428 181.114 129.956 167.413C109.689 145.135 87.417 115.394 87.1943 109.491C86.8602 99.7998 103.898 82.8685 107.796 82.2001C111.582 81.5318 123.831 77.6332 123.831 77.6332Z" fill="url(#paint6_linear_22_604)"/>
<path opacity="0.3" d="M143.986 76.1862C142.65 76.0748 141.202 75.9634 139.754 75.9634C140.868 82.8696 141.202 89.8871 140.757 96.9047C139.309 117.289 130.623 137.785 114.81 149.815C119.71 155.83 124.944 161.845 129.955 167.415C142.427 181.115 157.349 192.143 157.349 192.143L193.986 159.172C193.986 159.172 147.55 76.5203 143.986 76.1862Z" fill="url(#paint7_linear_22_604)"/>
<path d="M100.668 62.7056C100.668 62.7056 106.236 72.8421 103.675 85.3178C108.129 90.8873 120.378 87.3228 125.724 81.8647C123.274 77.966 122.271 67.384 122.271 67.384L104.12 59.1411L100.668 62.7056Z" fill="url(#paint8_linear_22_604)"/>
<path opacity="0.3" d="M110.246 70.0593C111.025 72.9555 112.807 75.406 114.477 77.968C116.259 80.6414 118.709 81.9781 122.05 82.0894C123.274 82.0894 124.499 82.0894 125.724 81.9781C125.724 81.9781 125.724 81.9781 125.836 81.8667C123.386 77.968 122.384 67.386 122.384 67.386L109.8 61.7051C109.355 64.4898 109.466 67.386 110.246 70.0593Z" fill="url(#paint9_linear_22_604)"/>
<path d="M103.34 58.9194C103.34 58.9194 102.449 57.9169 101.113 57.4713C99.4424 56.9144 97.1039 57.36 96.5471 59.2536C95.5448 62.7067 98.8856 68.0534 102.783 68.2762C106.792 68.499 106.013 65.2686 106.013 65.2686L103.34 58.9194Z" fill="url(#paint10_linear_22_604)"/>
<path opacity="0.3" d="M102.895 60.1434C102.895 60.1434 102.227 59.4751 101.447 59.1409C100.333 58.6954 98.8858 58.8067 98.4403 60.1434C97.7722 62.4826 99.888 66.3813 102.561 66.4927C105.233 66.604 104.676 64.4876 104.676 64.4876L102.895 60.1434Z" fill="url(#paint11_linear_22_604)"/>
<path d="M126.169 39.76C129.287 43.8814 131.848 56.5799 130.512 65.6025C129.064 75.6276 117.372 77.6326 109.465 71.7289C105.011 68.3872 94.543 53.5724 99.8883 42.322C105.233 31.2944 123.051 35.6386 126.169 39.76Z" fill="url(#paint12_linear_22_604)"/>
<path d="M86.3032 109.269C82.0716 122.97 74.0537 166.189 85.8577 167.303C93.6528 167.971 98.3299 161.622 100.78 157.389C106.459 147.587 109.8 123.304 111.248 110.717C112.695 98.5751 94.2096 83.6489 86.3032 109.269Z" fill="url(#paint13_linear_22_604)"/>
<path opacity="0.3" d="M98.1071 138.896C96.3254 144.577 99.1093 148.81 103.452 151.149C105.902 144.131 107.795 134.44 109.243 125.641C103.786 126.42 99.5548 134.329 98.1071 138.896Z" fill="url(#paint14_linear_22_604)"/>
<path d="M103.897 48.3384C103.897 48.3384 100.779 50.0093 102.449 54.9104C104.008 59.5888 104.454 62.8191 104.231 63.2647C103.452 64.2672 99.9996 59.366 98.3292 54.5763C96.6588 49.8979 93.5408 41.9892 100.222 35.083C106.904 28.1769 122.828 26.0604 125.723 34.7489C131.625 52.6826 103.897 48.3384 103.897 48.3384Z" fill="url(#paint15_linear_22_604)"/>
<path d="M410.246 285.71H164.143C154.567 285.71 146.883 277.913 146.883 268.445V73.9578C146.883 64.3783 154.678 56.6924 164.143 56.6924L410.246 56.6924C419.823 56.6924 427.506 64.4897 427.506 73.9578V268.333C427.618 277.913 419.823 285.71 410.246 285.71Z" fill="#F51842"/>
<path opacity="0.5" d="M301.671 250.174H168.375C162.25 250.174 157.239 245.162 157.239 239.035V152.597C157.239 146.47 162.25 141.458 168.375 141.458H301.782C307.907 141.458 312.918 146.47 312.918 152.597V239.035C312.807 245.273 307.796 250.174 301.671 250.174Z" fill="url(#paint16_linear_22_604)"/>
<path d="M304.12 248.503H170.713C164.588 248.503 159.577 243.491 159.577 237.364V150.926C159.577 144.799 164.588 139.787 170.713 139.787H304.12C310.245 139.787 315.256 144.799 315.256 150.926V237.476C315.256 243.602 310.245 248.503 304.12 248.503Z" fill="white"/>
<path d="M302.339 195.595C302.339 216.87 285.079 234.024 263.921 234.024C242.651 234.024 225.502 216.759 225.502 195.595C225.502 174.319 242.763 157.165 263.921 157.165C285.079 157.165 302.339 174.43 302.339 195.595Z" fill="#EDE5FC"/>
<path d="M266.37 155.381C245.101 155.381 227.952 172.647 227.952 193.811C227.952 215.086 245.212 232.24 266.37 232.24C275.39 232.24 283.742 229.122 290.312 223.886L266.37 193.811V155.381Z" fill="#F51842"/>
<path d="M296.994 170.642C289.978 161.396 278.843 155.381 266.37 155.381V193.811L296.994 170.642Z" fill="url(#paint17_linear_22_604)"/>
<path d="M296.994 170.642C289.978 161.396 278.843 155.381 266.37 155.381V193.811L296.994 170.642Z" fill="url(#paint18_linear_22_604)"/>
<path d="M304.789 193.922C304.789 185.233 301.894 177.102 296.994 170.641L266.37 193.922L290.312 223.997C299.11 216.868 304.789 206.063 304.789 193.922Z" fill="url(#paint19_linear_22_604)"/>
<path d="M229.399 156.716H165.924C165.368 156.716 164.922 156.27 164.922 155.713V155.156C164.922 154.599 165.368 154.154 165.924 154.154H229.399C229.956 154.154 230.401 154.599 230.401 155.156V155.713C230.401 156.27 229.956 156.716 229.399 156.716Z" fill="#EDE5FC"/>
<path d="M229.399 165.514H165.924C165.368 165.514 164.922 165.069 164.922 164.512V163.955C164.922 163.398 165.368 162.952 165.924 162.952H229.399C229.956 162.952 230.401 163.398 230.401 163.955V164.512C230.401 165.069 229.956 165.514 229.399 165.514Z" fill="#EDE5FC"/>
<path d="M205.568 174.314H165.924C165.368 174.314 164.922 173.869 164.922 173.312V172.866C164.922 172.309 165.368 171.864 165.924 171.864H205.568C206.125 171.864 206.57 172.309 206.57 172.866V173.423C206.57 173.869 206.125 174.314 205.568 174.314Z" fill="#EDE5FC"/>
<path d="M205.568 183.227H165.924C165.368 183.227 164.922 182.782 164.922 182.225V181.668C164.922 181.111 165.368 180.666 165.924 180.666H205.568C206.125 180.666 206.57 181.111 206.57 181.668V182.225C206.57 182.782 206.125 183.227 205.568 183.227Z" fill="#EDE5FC"/>
<path d="M230.289 155.157H166.815C166.258 155.157 165.813 154.712 165.813 154.155V153.598C165.813 153.041 166.258 152.595 166.815 152.595H230.289C230.846 152.595 231.291 153.041 231.291 153.598V154.155C231.291 154.712 230.846 155.157 230.289 155.157Z" fill="url(#paint20_linear_22_604)"/>
<path d="M230.289 163.956H166.815C166.258 163.956 165.813 163.51 165.813 162.954V162.397C165.813 161.84 166.258 161.394 166.815 161.394H230.289C230.846 161.394 231.291 161.84 231.291 162.397V162.954C231.291 163.51 230.846 163.956 230.289 163.956Z" fill="url(#paint21_linear_22_604)"/>
<path d="M206.459 172.758H166.815C166.258 172.758 165.813 172.313 165.813 171.756V171.199C165.813 170.642 166.258 170.196 166.815 170.196H206.459C207.015 170.196 207.461 170.642 207.461 171.199V171.756C207.349 172.313 206.904 172.758 206.459 172.758Z" fill="url(#paint22_linear_22_604)"/>
<path d="M206.459 181.556H166.815C166.258 181.556 165.813 181.111 165.813 180.554V179.997C165.813 179.44 166.258 178.994 166.815 178.994H206.459C207.015 178.994 207.461 179.44 207.461 179.997V180.554C207.349 181.111 206.904 181.556 206.459 181.556Z" fill="url(#paint23_linear_22_604)"/>
<path d="M428.063 73.3972H146.103V68.9416C146.103 61.9241 151.783 56.2432 158.798 56.2432L415.368 56.2432C422.384 56.2432 428.063 61.9241 428.063 68.9416V73.3972Z" fill="white"/>
<path d="M414.922 309.433H377.283C375.724 309.433 374.499 308.208 374.499 306.649C374.499 305.089 375.724 303.864 377.283 303.864H414.922C416.481 303.864 417.706 305.089 417.706 306.649C417.706 308.097 416.37 309.433 414.922 309.433Z" fill="white"/>
<path d="M197.773 55.2444C197.773 55.2444 211.136 45.7762 226.169 54.576C241.203 63.3758 227.951 68.7225 226.615 69.9478C225.278 71.1731 220.267 63.3758 212.361 62.7075C204.566 62.0391 214.922 66.7175 213.92 68.6112C212.806 70.3934 199.889 66.9403 197.773 55.2444Z" fill="url(#paint24_linear_22_604)"/>
<g opacity="0.4">
<path opacity="0.4" d="M446.994 141.122H400.223C399.555 141.122 398.998 140.565 398.998 139.897C398.998 139.228 399.555 138.671 400.223 138.671H446.994C447.662 138.671 448.219 139.228 448.219 139.897C448.219 140.565 447.662 141.122 446.994 141.122Z" fill="url(#paint25_linear_22_604)"/>
<path opacity="0.4" d="M446.994 148.585H400.223C399.555 148.585 398.998 148.028 398.998 147.36C398.998 146.691 399.555 146.134 400.223 146.134H446.994C447.662 146.134 448.219 146.691 448.219 147.36C448.219 148.028 447.662 148.585 446.994 148.585Z" fill="url(#paint26_linear_22_604)"/>
<path opacity="0.4" d="M446.994 156.047H400.223C399.555 156.047 398.998 155.49 398.998 154.822C398.998 154.154 399.555 153.597 400.223 153.597H446.994C447.662 153.597 448.219 154.154 448.219 154.822C448.219 155.49 447.662 156.047 446.994 156.047Z" fill="url(#paint27_linear_22_604)"/>
<path opacity="0.4" d="M433.631 163.514H400.223C399.555 163.514 398.998 162.957 398.998 162.288C398.998 161.62 399.555 161.063 400.223 161.063H433.631C434.299 161.063 434.856 161.62 434.856 162.288C434.856 162.957 434.299 163.514 433.631 163.514Z" fill="url(#paint28_linear_22_604)"/>
<path opacity="0.4" d="M424.499 171.085H400.223C399.555 171.085 398.998 170.528 398.998 169.86C398.998 169.192 399.555 168.635 400.223 168.635H424.499C425.167 168.635 425.724 169.192 425.724 169.86C425.724 170.528 425.167 171.085 424.499 171.085Z" fill="url(#paint29_linear_22_604)"/>
</g>
<path d="M169.711 65.1554C169.711 67.7174 167.595 69.8338 165.034 69.8338C162.473 69.8338 160.357 67.7174 160.357 65.1554C160.357 62.5935 162.473 60.4771 165.034 60.4771C167.707 60.4771 169.711 62.5935 169.711 65.1554Z" fill="url(#paint30_linear_22_604)"/>
<path d="M181.293 65.1554C181.293 67.7174 179.177 69.8338 176.616 69.8338C174.055 69.8338 171.939 67.7174 171.939 65.1554C171.939 62.5935 174.055 60.4771 176.616 60.4771C179.288 60.4771 181.293 62.5935 181.293 65.1554Z" fill="url(#paint31_linear_22_604)"/>
<path d="M192.873 65.1554C192.873 67.7174 190.757 69.8338 188.196 69.8338C185.635 69.8338 183.519 67.7174 183.519 65.1554C183.519 62.5935 185.635 60.4771 188.196 60.4771C190.757 60.4771 192.873 62.5935 192.873 65.1554Z" fill="url(#paint32_linear_22_604)"/>
<path opacity="0.5" d="M199.444 132.213H162.696C159.912 132.213 157.796 129.986 157.796 127.312V90.4422C157.796 87.6574 160.023 85.541 162.696 85.541H199.444C202.228 85.541 204.344 87.7688 204.344 90.4422V127.201C204.344 129.986 202.228 132.213 199.444 132.213Z" fill="url(#paint33_linear_22_604)"/>
<path d="M202.117 130.318H165.368C162.584 130.318 160.469 128.09 160.469 125.417V88.658C160.469 85.8732 162.696 83.7568 165.368 83.7568H202.117C204.901 83.7568 207.016 85.9846 207.016 88.658V125.417C207.016 128.201 204.789 130.318 202.117 130.318Z" fill="white"/>
<path d="M163.03 122.298H203.341L192.428 98.4607C191.983 97.3468 190.424 97.3468 189.867 98.3493L181.292 112.607L175.056 106.147C174.388 105.478 173.275 105.59 172.718 106.369L163.03 122.298Z" fill="#F51842"/>
<path d="M182.629 96.5655C182.629 98.5705 180.958 100.241 178.954 100.241C176.95 100.241 175.279 98.5705 175.279 96.5655C175.279 94.5605 176.95 92.8896 178.954 92.8896C180.958 92.8896 182.629 94.5605 182.629 96.5655Z" fill="url(#paint34_linear_22_604)"/>
<path opacity="0.5" d="M253.229 132.214H216.481C213.697 132.214 211.581 129.986 211.581 127.313V90.4427C211.581 87.6579 213.808 85.5415 216.481 85.5415H253.229C256.013 85.5415 258.129 87.7693 258.129 90.4427V127.201C258.129 129.986 255.902 132.214 253.229 132.214Z" fill="url(#paint35_linear_22_604)"/>
<path d="M255.79 130.318H219.042C216.258 130.318 214.142 128.09 214.142 125.417V88.658C214.142 85.8732 216.369 83.7568 219.042 83.7568H255.79C258.574 83.7568 260.69 85.9846 260.69 88.658V125.417C260.801 128.201 258.574 130.318 255.79 130.318Z" fill="white"/>
<path d="M246.77 122.076C246.77 123.412 242.65 124.415 237.416 124.415C232.294 124.415 228.062 123.412 228.062 122.076C228.062 120.739 232.182 119.736 237.416 119.736C242.539 119.736 246.77 120.739 246.77 122.076Z" fill="url(#paint36_linear_22_604)"/>
<path d="M245.434 113.054L237.416 121.185L229.398 113.054C224.944 108.598 224.944 101.358 229.398 96.9022C233.853 92.4466 240.98 92.4466 245.434 96.9022C249.888 101.358 249.888 108.598 245.434 113.054Z" fill="url(#paint37_linear_22_604)"/>
<path d="M244.767 104.701C244.767 108.6 241.426 111.83 237.306 111.83C233.185 111.83 229.845 108.711 229.845 104.701C229.845 100.803 233.185 97.5723 237.306 97.5723C241.426 97.5723 244.767 100.803 244.767 104.701Z" fill="white"/>
<path d="M139.199 132.772C139.199 132.772 141.092 130.098 144.321 127.314C151.226 121.299 162.695 113.39 164.032 113.947C166.036 114.727 165.145 115.952 164.589 116.843C163.92 117.734 154.009 126.2 154.009 126.2C154.009 126.2 159.689 134.777 159.577 137.561C159.577 140.235 152.673 146.807 142.205 145.582C131.849 144.245 139.199 132.772 139.199 132.772Z" fill="url(#paint38_linear_22_604)"/>
<path d="M87.083 172.314C82.5173 170.531 77.5062 162.289 82.9627 152.709C88.5306 142.907 120.268 136.669 128.397 134.775C132.517 133.773 139.31 132.325 139.31 132.325C137.64 137.783 140.424 142.127 145.101 146.137C145.101 146.137 129.622 158.167 115.479 165.63C102.673 172.314 97.4393 176.547 87.083 172.314Z" fill="url(#paint39_linear_22_604)"/>
<path d="M325.39 48.6723H288.642C285.858 48.6723 283.742 46.4445 283.742 43.7712V7.01249C283.742 4.22774 285.969 2.11133 288.642 2.11133L325.39 2.11133C328.174 2.11133 330.29 4.33913 330.29 7.01249V43.7712C330.29 46.4445 328.063 48.6723 325.39 48.6723Z" fill="#EDE5FC"/>
<path d="M327.951 46.8882H291.203C288.419 46.8882 286.303 44.6604 286.303 41.987V5.22831C286.303 2.44356 288.53 0.327148 291.203 0.327148L327.951 0.327148C330.735 0.327148 332.851 2.55495 332.851 5.22831V41.987C332.962 44.6604 330.735 46.8882 327.951 46.8882Z" fill="white"/>
<path d="M308.576 46.998V104.03C308.576 106.814 306.348 109.042 303.564 109.042H291.426" stroke="white" stroke-width="1.29522" stroke-miterlimit="10"/>
<path d="M295.435 109.153C295.435 111.492 293.542 113.386 291.204 113.386C288.865 113.386 286.972 111.492 286.972 109.153C286.972 106.814 288.865 104.92 291.204 104.92C293.542 104.92 295.435 106.814 295.435 109.153Z" fill="white"/>
<path d="M299.666 28.284H296.325C293.653 28.284 291.537 26.1676 291.537 23.4942V22.8259C291.537 20.1525 293.653 18.0361 296.325 18.0361H299.666V28.284Z" fill="url(#paint40_linear_22_604)"/>
<path d="M314.143 37.0839L301.337 28.2841V17.9248L314.143 9.125V37.0839Z" fill="url(#paint41_linear_22_604)"/>
<path d="M322.049 32.9624L320.267 31.0688C322.383 28.9524 323.608 26.1676 323.608 23.1601C323.608 20.264 322.494 17.4792 320.378 15.3628L322.271 13.5806C324.833 16.1425 326.28 19.5956 326.28 23.2715C326.169 26.9474 324.721 30.4005 322.049 32.9624Z" fill="url(#paint42_linear_22_604)"/>
<path d="M318.151 28.9541L316.37 27.0604C317.372 26.0579 318.04 24.6099 318.04 23.1618C318.04 21.7137 317.483 20.4884 316.481 19.3745L318.374 17.5923C319.822 19.1517 320.601 21.0454 320.601 23.1618C320.49 25.3896 319.71 27.3946 318.151 28.9541Z" fill="url(#paint43_linear_22_604)"/>
<path d="M451.336 318.458H336.414C330.067 318.458 325.056 313.334 325.056 307.096V100.356C325.056 94.0072 330.178 88.9946 336.414 88.9946H451.336C457.684 88.9946 462.695 94.1186 462.695 100.356V307.096C462.695 313.334 457.572 318.458 451.336 318.458Z" fill="white"/>
<path d="M449.22 296.849H338.53C334.298 296.849 330.957 293.508 330.957 289.275V103.588C330.957 99.3549 334.298 96.0132 338.53 96.0132H449.109C453.34 96.0132 456.681 99.3549 456.681 103.588V289.275C456.681 293.396 453.34 296.849 449.22 296.849Z" fill="url(#paint44_linear_22_604)"/>
<path d="M449.22 296.849H338.53C334.298 296.849 330.957 293.508 330.957 289.275V103.588C330.957 99.3549 334.298 96.0132 338.53 96.0132H449.109C453.34 96.0132 456.681 99.3549 456.681 103.588V289.275C456.681 293.396 453.34 296.849 449.22 296.849Z" fill="#001AFF" style="mix-blend-mode:overlay"/>
<path opacity="0.4" d="M374.498 291.949H342.204C339.198 291.949 336.748 289.499 336.748 286.491V255.97C336.748 252.963 339.198 250.512 342.204 250.512H374.498C377.505 250.512 379.955 252.963 379.955 255.97V286.491C379.955 289.499 377.505 291.949 374.498 291.949Z" fill="url(#paint45_linear_22_604)"/>
<path d="M376.058 290.948H343.764C340.757 290.948 338.307 288.498 338.307 285.49V254.969C338.307 251.962 340.757 249.511 343.764 249.511H376.058C379.064 249.511 381.514 251.962 381.514 254.969V285.49C381.403 288.498 379.064 290.948 376.058 290.948Z" fill="white"/>
<path opacity="0.4" d="M424.944 291.392H392.65C389.643 291.392 387.193 288.941 387.193 285.934V255.413C387.193 252.405 389.643 249.955 392.65 249.955H424.944C427.951 249.955 430.4 252.405 430.4 255.413V285.934C430.4 288.941 427.951 291.392 424.944 291.392Z" fill="url(#paint46_linear_22_604)"/>
<path d="M426.503 290.948H394.209C391.202 290.948 388.753 288.498 388.753 285.49V254.969C388.753 251.962 391.202 249.511 394.209 249.511H426.503C429.51 249.511 431.96 251.962 431.96 254.969V285.49C431.96 288.498 429.51 290.948 426.503 290.948Z" fill="white"/>
<path opacity="0.4" d="M437.193 238.26H341.536C338.975 238.26 336.859 236.144 336.859 233.582V191.811C336.859 189.249 338.975 187.132 341.536 187.132H437.193C439.754 187.132 441.87 189.249 441.87 191.811V233.582C441.87 236.144 439.866 238.26 437.193 238.26Z" fill="url(#paint47_linear_22_604)"/>
<path d="M438.64 237.146H342.983C340.422 237.146 338.306 235.029 338.306 232.467V190.696C338.306 188.134 340.422 186.018 342.983 186.018H438.64C441.201 186.018 443.317 188.134 443.317 190.696V232.467C443.317 235.141 441.201 237.146 438.64 237.146Z" fill="white"/>
<path d="M437.639 195.487H390.869C390.201 195.487 389.644 194.93 389.644 194.261C389.644 193.593 390.201 193.036 390.869 193.036H437.639C438.308 193.036 438.864 193.593 438.864 194.261C438.864 194.93 438.308 195.487 437.639 195.487Z" fill="url(#paint48_linear_22_604)"/>
<path d="M437.639 202.949H390.869C390.201 202.949 389.644 202.392 389.644 201.723C389.644 201.055 390.201 200.498 390.869 200.498H437.639C438.308 200.498 438.864 201.055 438.864 201.723C438.864 202.392 438.308 202.949 437.639 202.949Z" fill="url(#paint49_linear_22_604)"/>
<path d="M424.276 210.411H390.869C390.201 210.411 389.644 209.854 389.644 209.186C389.644 208.517 390.201 207.96 390.869 207.96H424.276C424.944 207.96 425.501 208.517 425.501 209.186C425.501 209.854 424.944 210.411 424.276 210.411Z" fill="url(#paint50_linear_22_604)"/>
<path d="M380.623 229.684H349.554C347.55 229.684 345.991 228.013 345.991 226.12V194.374C345.991 192.369 347.661 190.809 349.554 190.809H380.623C382.628 190.809 384.187 192.48 384.187 194.374V226.12C384.187 228.125 382.628 229.684 380.623 229.684Z" fill="url(#paint51_linear_22_604)"/>
<path d="M348.107 222.999H382.072L372.829 202.948C372.383 202.057 371.159 201.946 370.602 202.837L363.363 214.867L358.13 209.409C357.573 208.852 356.571 208.963 356.125 209.632L348.107 222.999Z" fill="url(#paint52_linear_22_604)"/>
<path d="M364.699 201.391C364.699 203.062 363.363 204.51 361.693 204.51C360.022 204.51 358.686 203.173 358.686 201.391C358.686 199.72 360.022 198.383 361.693 198.383C363.363 198.383 364.699 199.72 364.699 201.391Z" fill="url(#paint53_linear_22_604)"/>
<path opacity="0.4" d="M445.656 119.738H340.311C338.307 119.738 336.748 118.178 336.748 116.173V106.928C336.748 104.923 338.307 103.363 340.311 103.363H445.656C447.661 103.363 449.22 104.923 449.22 106.928V116.173C449.22 118.178 447.661 119.738 445.656 119.738Z" fill="url(#paint54_linear_22_604)"/>
<path d="M447.104 118.623H341.871C339.866 118.623 338.307 117.064 338.307 115.059V105.814C338.307 103.808 339.866 102.249 341.871 102.249H447.216C449.22 102.249 450.779 103.808 450.779 105.814V115.059C450.779 116.952 449.109 118.623 447.104 118.623Z" fill="white"/>
<path d="M447.439 140.122H400.668C400 140.122 399.443 139.565 399.443 138.897C399.443 138.228 400 137.671 400.668 137.671H447.439C448.107 137.671 448.664 138.228 448.664 138.897C448.664 139.565 448.107 140.122 447.439 140.122Z" fill="white"/>
<path d="M447.439 147.585H400.668C400 147.585 399.443 147.028 399.443 146.36C399.443 145.691 400 145.134 400.668 145.134H447.439C448.107 145.134 448.664 145.691 448.664 146.36C448.664 147.028 448.107 147.585 447.439 147.585Z" fill="white"/>
<path d="M447.439 155.161H400.668C400 155.161 399.443 154.604 399.443 153.935C399.443 153.267 400 152.71 400.668 152.71H447.439C448.107 152.71 448.664 153.267 448.664 153.935C448.664 154.604 448.107 155.161 447.439 155.161Z" fill="white"/>
<path d="M434.076 162.622H400.668C400 162.622 399.443 162.065 399.443 161.397C399.443 160.729 400 160.172 400.668 160.172H434.076C434.744 160.172 435.301 160.729 435.301 161.397C435.301 162.065 434.744 162.622 434.076 162.622Z" fill="white"/>
<path d="M424.944 170.085H400.668C400 170.085 399.443 169.528 399.443 168.86C399.443 168.192 400 167.635 400.668 167.635H424.944C425.612 167.635 426.169 168.192 426.169 168.86C426.169 169.528 425.612 170.085 424.944 170.085Z" fill="white"/>
<path opacity="0.4" d="M383.407 178.664H341.982C339.086 178.664 336.859 176.325 336.859 173.54V135.333C336.859 132.437 339.198 130.209 341.982 130.209H383.407C386.302 130.209 388.529 132.549 388.529 135.333V173.54C388.529 176.325 386.191 178.664 383.407 178.664Z" fill="url(#paint55_linear_22_604)"/>
<path d="M384.743 177.663H343.318C340.423 177.663 338.195 175.324 338.195 172.539V134.332C338.195 131.436 340.534 129.208 343.318 129.208H384.743C387.639 129.208 389.866 131.548 389.866 134.332V172.539C389.977 175.324 387.639 177.663 384.743 177.663Z" fill="white"/>
<path d="M383.184 153.383C383.184 163.965 374.61 172.431 364.142 172.431C353.563 172.431 345.1 163.854 345.1 153.383C345.1 142.801 353.674 134.335 364.142 134.335C374.61 134.335 383.184 142.801 383.184 153.383Z" fill="url(#paint56_linear_22_604)"/>
<path d="M370.489 145.474C370.489 149.038 367.594 151.934 364.03 151.934C360.467 151.934 357.572 149.038 357.572 145.474C357.572 141.909 360.467 139.013 364.03 139.013C367.594 139.125 370.489 141.909 370.489 145.474Z" fill="url(#paint57_linear_22_604)"/>
<path d="M373.608 166.86H354.565C353.786 166.86 353.118 166.191 353.118 165.412V163.072C353.118 157.614 357.572 153.159 363.028 153.159H365.144C370.601 153.159 375.055 157.614 375.055 163.072V165.412C375.055 166.191 374.387 166.86 373.608 166.86Z" fill="url(#paint58_linear_22_604)"/>
<path opacity="0.5" d="M103.565 282.811H46.3262C42.3173 282.811 38.9766 279.581 38.9766 275.459V226.225C38.9766 222.215 42.206 218.873 46.3262 218.873H103.565C107.573 218.873 110.914 222.103 110.914 226.225V275.459C110.914 279.469 107.573 282.811 103.565 282.811Z" fill="#F51842"/>
<path d="M142.095 228.118C142.095 230.457 140.202 232.35 137.863 232.35C135.525 232.35 133.631 230.457 133.631 228.118C133.631 225.778 135.525 223.885 137.863 223.885C140.202 223.885 142.095 225.778 142.095 228.118Z" fill="white"/>
<path d="M107.797 279.246H48.9994C44.9905 279.246 41.6498 276.016 41.6498 271.895V221.212C41.6498 217.202 44.8792 213.86 48.9994 213.86H108.242C112.028 213.86 115.035 216.868 115.035 220.655V272.006C115.035 276.016 111.806 279.246 107.797 279.246Z" fill="white"/>
<path d="M70.0462 234.58H64.9237L51.8948 246.944L64.9237 259.308H70.0462L57.0173 246.944L70.0462 234.58Z" fill="#F51842"/>
<path d="M86.6389 259.308H91.7614L104.79 246.944L91.7614 234.58H86.6389L99.6679 246.944L86.6389 259.308Z" fill="#F51842"/>
<path d="M75.6138 264.988H70.9368L81.0704 228.897H85.7475L75.6138 264.988Z" fill="#F51842"/>
<path opacity="0.3" d="M477.283 83.091H416.147C411.804 83.091 408.352 79.6379 408.352 75.2937V19.3759C408.352 15.0317 411.804 11.5786 416.147 11.5786L477.283 11.5786C481.625 11.5786 485.078 15.0317 485.078 19.3759V75.2937C484.966 79.6379 481.514 83.091 477.283 83.091Z" fill="#F51842"/>
<path d="M479.064 80.6389H419.376C414.699 80.6389 410.802 76.8516 410.802 72.0619V17.5922C410.802 12.9138 414.588 9.01514 419.376 9.01514L479.064 9.01514C483.741 9.01514 487.639 12.8024 487.639 17.5922V72.0619C487.639 76.7402 483.853 80.6389 479.064 80.6389Z" fill="white"/>
<path d="M470.601 60.3662H427.951C426.614 60.3662 425.501 59.2523 425.501 57.9156V25.9467C425.501 24.61 426.614 23.4961 427.951 23.4961H470.601C471.937 23.4961 473.051 24.61 473.051 25.9467V57.9156C473.051 59.2523 471.937 60.3662 470.601 60.3662Z" fill="url(#paint59_linear_22_604)"/>
<path d="M443.764 42.5439V35.3036C443.764 34.3011 444.878 33.6327 445.769 34.1897L456.348 41.43C457.127 41.987 457.127 42.9895 456.348 43.5464L445.769 50.7868C444.878 51.3437 443.764 50.7868 443.764 49.6729V42.5439Z" fill="white"/>
<path d="M410.691 42.876H390.089C387.305 42.876 385.078 45.1038 385.078 47.8885V82.4194" stroke="white" stroke-width="1.29522" stroke-miterlimit="10"/>
<path d="M389.421 82.3114C389.421 84.6506 387.528 86.5442 385.189 86.5442C382.851 86.5442 380.958 84.6506 380.958 82.3114C380.958 79.9722 382.851 78.0786 385.189 78.0786C387.528 78.0786 389.421 79.9722 389.421 82.3114Z" fill="white"/>
<path d="M154.787 277.017C154.787 277.017 132.85 331.264 145.879 340.843C158.24 349.866 166.48 340.509 169.71 335.608C177.171 324.023 181.959 297.513 186.191 282.586C190.422 267.66 167.928 246.162 154.787 277.017Z" fill="url(#paint60_linear_22_604)"/>
<path d="M251.224 262.647C251.224 262.647 291.313 319.455 278.952 331.263C264.476 345.075 231.625 292.054 222.605 276.682C213.696 261.421 228.396 232.014 251.224 262.647Z" fill="url(#paint61_linear_22_604)"/>
<path d="M187.081 250.731C187.081 250.731 169.264 257.192 165.478 262.984C161.023 269.668 168.707 301.414 168.373 314.335C168.039 327.256 167.259 378.496 167.259 378.496H248.551C244.208 352.987 245.21 252.737 234.52 250.509C234.52 250.509 222.271 247.167 212.694 246.944C203.005 246.833 187.081 250.731 187.081 250.731Z" fill="url(#paint62_linear_22_604)"/>
<path d="M210.69 232.461C210.69 232.461 207.906 241.038 214.699 250.506C205.902 262.982 188.307 258.303 185.857 254.627C187.193 246.273 184.41 235.357 180.957 231.013C188.752 232.572 210.69 232.461 210.69 232.461Z" fill="url(#paint63_linear_22_604)"/>
<path opacity="0.3" d="M196.88 245.605C201.446 249.615 207.571 249.726 213.139 248.055C208.35 239.59 210.689 232.461 210.689 232.461C210.689 232.461 201.446 232.461 192.871 232.126C192.871 236.916 193.094 242.263 196.88 245.605Z" fill="url(#paint64_linear_22_604)"/>
<path d="M175.389 224.442C175.389 224.442 173.941 223.663 172.271 223.663C170.155 223.663 167.594 224.665 167.817 227.116C168.039 231.46 174.053 236.807 178.73 235.47C183.407 234.022 181.18 230.792 181.18 230.792L175.389 224.442Z" fill="url(#paint65_linear_22_604)"/>
<path opacity="0.3" d="M175.167 226.112C175.167 226.112 174.164 225.555 173.051 225.555C171.603 225.555 169.933 226.223 170.044 227.894C170.155 230.901 174.276 234.466 177.394 233.575C180.512 232.572 179.064 230.344 179.064 230.344L175.167 226.112Z" fill="url(#paint66_linear_22_604)"/>
<path d="M203.786 196.148C209.354 201.718 213.363 211.074 215.478 222.325C216.703 229.008 214.031 236.36 211.024 239.256C207.572 242.598 202.227 243.377 196.77 242.486C189.643 241.372 182.405 236.36 178.619 231.459C171.158 221.879 169.153 215.307 169.265 206.619C169.376 191.693 192.316 184.675 203.786 196.148Z" fill="url(#paint67_linear_22_604)"/>
<path d="M154.454 345.187C147.216 344.964 139.977 341.177 144.877 325.471C148.663 313.441 174.61 302.19 182.739 297.735L192.873 293.391C192.427 299.74 196.547 303.75 202.672 306.869C202.672 306.869 193.652 316.003 182.516 327.81C171.492 339.506 163.585 345.41 154.454 345.187Z" fill="url(#paint68_linear_22_604)"/>
<path d="M278.952 331.265C282.404 324.915 283.629 310.769 268.261 309.321C256.346 308.207 236.858 325.25 228.172 328.591L221.268 331.153C226.39 334.94 226.836 340.733 225.277 347.305C225.277 347.305 230.511 346.971 247.994 344.074C263.807 341.735 275.165 338.282 278.952 331.265Z" fill="url(#paint69_linear_22_604)"/>
<path d="M213.251 193.587C214.476 196.483 212.583 199.379 208.463 202.944C204.899 205.951 191.536 212.857 184.409 210.741C183.184 219.207 179.844 223.105 177.839 223.105C177.394 226.001 180.289 230.346 178.619 231.571C177.728 232.239 173.608 225.11 171.937 224.665C167.817 223.662 168.485 219.986 166.369 214.305C164.588 209.404 164.142 202.275 167.037 197.708C168.04 196.149 170.712 192.027 177.505 191.025C180.623 182.448 194.209 181.78 200 184.676C204.231 186.904 206.236 190.691 207.015 190.914C208.351 191.47 212.583 192.027 213.251 193.587Z" fill="url(#paint70_linear_22_604)"/>
<path d="M215.59 349.087L200 349.644C199.555 349.644 198.998 349.533 198.664 349.199C197.884 348.53 197.55 347.417 197.773 346.303L205.345 317.23C205.568 316.227 206.459 315.448 207.35 315.448L222.94 314.891C224.499 314.891 225.613 316.561 225.167 318.232L217.595 347.305C217.372 348.308 216.593 349.087 215.59 349.087Z" fill="url(#paint71_linear_22_604)"/>
<path d="M217.929 348.978L202.45 349.535C200.891 349.646 199.666 347.864 200.223 346.081L207.795 317.12C208.129 316.006 208.909 315.338 209.911 315.226L225.39 314.67C226.949 314.558 228.174 316.34 227.617 318.011L220.045 346.973C219.71 348.198 218.931 348.978 217.929 348.978Z" fill="white"/>
<path d="M227.617 331.488C225.612 329.038 223.385 328.37 220.601 328.258C219.265 328.258 217.929 328.258 216.704 328.258C215.59 328.258 214.142 327.701 214.142 329.149C214.142 331.043 217.149 331.488 218.485 331.823C219.265 332.045 220.824 332.38 221.047 333.159C221.269 333.939 220.49 334.05 220.044 334.05C218.263 334.273 216.481 333.716 214.699 333.493C212.138 333.271 209.243 333.382 206.793 333.939C206.236 334.05 204.454 334.607 204.343 336.835C204.343 340.177 206.57 342.627 209.131 344.521C215.145 349.199 224.833 349.645 226.837 347.974C229.733 345.635 232.517 337.615 227.617 331.488Z" fill="url(#paint72_linear_22_604)"/>
<path d="M192.872 292.949C192.872 292.949 208.24 285.708 210.912 287.156C213.585 288.604 225.166 305.313 222.828 306.761C220.489 308.209 212.917 297.961 212.917 297.961C212.917 297.961 209.353 310.103 199.888 306.315C190.422 302.417 192.872 292.949 192.872 292.949Z" fill="url(#paint73_linear_22_604)"/>
<path d="M446.994 235.36C446.994 235.36 451.894 240.595 445.435 258.194C445.435 258.194 465.814 267.106 477.506 257.638C475.836 248.838 471.381 235.471 473.609 229.122C468.598 227.339 446.994 235.36 446.994 235.36Z" fill="url(#paint74_linear_22_604)"/>
<path opacity="0.3" d="M471.493 228.568C470.824 234.137 459.243 245.388 447.662 250.512C450.334 239.039 446.882 235.251 446.882 235.251C446.882 235.251 462.918 228.902 471.493 228.568Z" fill="url(#paint75_linear_22_604)"/>
<path d="M452.896 188.243C447.328 191.919 444.878 197.042 447.885 201.609C450.891 206.176 463.363 209.184 468.82 205.508C474.388 201.832 479.844 192.921 476.949 188.465C473.942 183.898 458.352 184.567 452.896 188.243Z" fill="url(#paint76_linear_22_604)"/>
<path d="M457.127 193.587C449.666 196.483 443.652 207.845 441.982 218.204C441.537 221.1 440.2 232.907 443.43 235.692C447.661 239.257 457.35 237.809 461.358 236.583C466.704 234.912 470.267 231.237 473.162 226.224C481.514 211.966 482.962 205.617 476.949 197.597C470.935 189.465 462.138 191.582 457.127 193.587Z" fill="url(#paint77_linear_22_604)"/>
<path d="M493.43 277.244C493.43 277.244 508.464 336.503 493.096 343.855C478.842 350.761 472.049 340.402 469.488 334.944C463.586 321.911 462.695 294.064 460.579 278.246C458.464 262.317 484.744 243.715 493.43 277.244Z" fill="#F51842"/>
<path d="M470.157 252.182C477.729 254.187 489.31 257.752 491.649 279.362C494.544 305.872 481.181 330.489 480.847 335.056C479.622 353.102 487.417 378.499 487.417 378.499H415.925C413.586 361.79 410.691 329.598 420.936 295.179C431.181 260.759 438.976 257.64 444.878 254.744C452.339 250.957 463.809 250.623 470.157 252.182Z" fill="#F51842"/>
<path opacity="0.3" d="M443.096 351.987C424.165 337.506 423.719 315.117 421.381 293.396C421.158 293.952 421.047 294.621 420.824 295.178C410.579 329.597 413.474 361.789 415.813 378.497H487.305C487.305 378.497 484.744 370.255 482.851 359.673C468.82 361.566 454.788 360.898 443.096 351.987Z" fill="#F51842"/>
<path d="M446.549 291.945C434.3 303.307 407.573 333.271 392.763 324.805C386.638 321.352 392.429 308.653 396.104 303.752C404.678 292.279 421.939 267.885 435.636 259.642C449.11 251.51 471.827 268.33 446.549 291.945Z" fill="#F51842"/>
<path d="M373.275 250.064C373.275 250.064 373.274 246.276 372.05 241.487C369.488 231.239 365.257 217.649 363.475 217.315C361.025 216.758 360.802 218.54 360.691 219.766C360.691 220.991 362.807 234.58 362.807 234.58C362.807 234.58 352.562 238.368 350.78 240.93C348.998 243.492 351.114 254.296 361.805 260.089C372.495 265.77 373.275 250.064 373.275 250.064Z" fill="url(#paint78_linear_22_604)"/>
<path d="M393.877 325.251C401.004 327.702 407.463 327.925 408.799 310.994C409.912 297.961 384.411 263.096 378.287 255.633L373.498 249.618C371.382 255.856 364.478 260.979 357.463 261.648C357.463 261.648 373.832 318.457 393.877 325.251Z" fill="#F51842"/>
<path d="M452.005 195.037C450.891 197.599 452.784 202.5 454.789 205.062C457.684 208.738 460.245 210.743 464.032 213.194C464.032 214.642 462.807 220.322 465.368 222.996C467.15 224.889 472.383 217.761 473.274 216.981C474.277 219.654 471.604 222.996 471.047 225.558C470.379 228.343 471.27 242.712 474.833 239.816C475.947 238.925 481.626 232.353 482.851 230.793C489.31 223.107 494.321 217.092 493.096 206.956C492.094 199.381 486.749 192.364 479.51 189.356C460.134 181.336 453.341 191.918 452.005 195.037Z" fill="url(#paint79_linear_22_604)"/>
<path d="M468.82 218.316C468.931 218.205 468.931 218.094 469.043 217.982C469.377 217.648 470.267 216.868 471.492 216.423C473.385 215.754 476.058 216.311 476.726 218.539C477.951 222.549 474.165 228.787 469.488 229.01C464.811 229.233 465.813 225.557 465.813 225.557L468.82 218.316Z" fill="url(#paint80_linear_22_604)"/>
<path opacity="0.3" d="M469.71 219.543C469.71 219.543 470.49 218.763 471.492 218.429C472.828 217.983 474.499 217.983 474.944 219.543C475.724 222.216 473.274 226.783 470.044 227.006C466.926 227.117 467.483 224.667 467.483 224.667L469.71 219.543Z" fill="url(#paint81_linear_22_604)"/>
<path d="M115.256 246.275H133.631C136.081 246.275 137.974 244.382 137.974 241.931V228.119" stroke="white" stroke-width="1.29522" stroke-miterlimit="10"/>
<path d="M56.4601 26.9485C56.4601 20.822 51.449 15.9208 45.2129 15.9208C43.988 15.9208 42.763 16.1436 41.5381 16.4778C40.8699 16.5892 40.3131 16.812 39.7563 17.2575C39.645 17.3689 39.5336 17.3689 39.3109 17.4803C38.8655 11.2425 33.2975 6.34131 26.616 6.34131C19.6004 6.34131 13.9212 11.688 13.9212 18.26C13.9212 18.7056 13.9212 19.0398 14.0325 19.4853C12.5849 18.5942 10.9145 18.0373 9.13274 18.0373C4.12161 18.0373 0.00134277 22.1587 0.00134277 27.1712C0.00134277 30.4015 1.67172 33.1863 4.12161 34.7457C4.23297 34.7457 4.23297 34.8571 4.23297 34.8571H52.6739C55.0125 33.0749 56.4601 30.1788 56.4601 26.9485Z" fill="#EDE5FC"/>
<path d="M32.4065 39.8664V24.606H24.0546V39.8664H20.8252L28.1749 46.2156L35.6359 39.8664H32.4065Z" fill="#EDE5FC"/>
<path d="M57.6844 26.0563C57.6844 19.9299 52.6732 15.0287 46.4372 15.0287C45.2122 15.0287 43.9873 15.2515 42.7623 15.5856C42.0942 15.697 41.5374 15.9198 40.9806 16.3654C40.8692 16.4768 40.7579 16.4768 40.5352 16.5882C40.0897 10.4617 34.5218 5.56055 27.8403 5.56055C20.8247 5.56055 15.1454 10.9073 15.1454 17.5907C15.1454 18.0362 15.1454 18.3704 15.2568 18.816C13.8091 17.9248 12.1387 17.3679 10.357 17.3679C5.34585 17.3679 1.22559 21.4893 1.22559 26.5019C1.22559 29.7322 2.89596 32.5169 5.34585 34.0764C5.45721 34.1878 5.45721 34.1878 5.45721 34.1878H53.8982C56.2367 32.1827 57.6844 29.2866 57.6844 26.0563Z" fill="white"/>
<path d="M33.6306 38.9792V23.7188H25.2787V38.9792H21.938L29.399 45.3284L36.86 38.9792H33.6306Z" fill="#F51842"/>
</g>
<defs>
<linearGradient id="paint0_linear_22_604" x1="332.555" y1="329.024" x2="332.555" y2="269.858" gradientUnits="userSpaceOnUse">
<stop stop-color="#B493F9"/>
<stop offset="1" stop-color="#651AEC"/>
</linearGradient>
<linearGradient id="paint1_linear_22_604" x1="120.873" y1="318.341" x2="151.717" y2="349.176" gradientUnits="userSpaceOnUse">
<stop stop-color="#B493F9"/>
<stop offset="1" stop-color="#651AEC"/>
</linearGradient>
<linearGradient id="paint2_linear_22_604" x1="141.676" y1="17.8294" x2="130.386" y2="74.6183" gradientUnits="userSpaceOnUse">
<stop stop-color="#651AEC"/>
<stop offset="1" stop-color="#1E0233"/>
</linearGradient>
<linearGradient id="paint3_linear_22_604" x1="128.532" y1="15.2197" x2="117.243" y2="72.0089" gradientUnits="userSpaceOnUse">
<stop stop-color="#651AEC"/>
<stop offset="1" stop-color="#1E0233"/>
</linearGradient>
<linearGradient id="paint4_linear_22_604" x1="105.571" y1="10.5613" x2="94.2548" y2="67.4832" gradientUnits="userSpaceOnUse">
<stop stop-color="#651AEC"/>
<stop offset="1" stop-color="#1E0233"/>
</linearGradient>
<linearGradient id="paint5_linear_22_604" x1="112.408" y1="12.0139" x2="101.119" y2="68.803" gradientUnits="userSpaceOnUse">
<stop stop-color="#651AEC"/>
<stop offset="1" stop-color="#1E0233"/>
</linearGradient>
<linearGradient id="paint6_linear_22_604" x1="130.603" y1="116.084" x2="168.228" y2="171.968" gradientUnits="userSpaceOnUse">
<stop stop-color="#F9B546"/>
<stop offset="1" stop-color="#F4642C"/>
</linearGradient>
<linearGradient id="paint7_linear_22_604" x1="131.396" y1="115.55" x2="169.021" y2="171.434" gradientUnits="userSpaceOnUse">
<stop stop-color="#F9B546"/>
<stop offset="1" stop-color="#F4642C"/>
</linearGradient>
<linearGradient id="paint8_linear_22_604" x1="117.109" y1="96.9481" x2="113.129" y2="74.6428" gradientUnits="userSpaceOnUse">
<stop stop-color="#FCCAC0"/>
<stop offset="1" stop-color="#F76F54"/>
</linearGradient>
<linearGradient id="paint9_linear_22_604" x1="121.526" y1="96.1166" x2="117.551" y2="73.8359" gradientUnits="userSpaceOnUse">
<stop stop-color="#FCCAC0"/>
<stop offset="1" stop-color="#F76F54"/>
</linearGradient>
<linearGradient id="paint10_linear_22_604" x1="99.8394" y1="57.1983" x2="103.135" y2="71.616" gradientUnits="userSpaceOnUse">
<stop stop-color="#FCCAC0"/>
<stop offset="1" stop-color="#F76F54"/>
</linearGradient>
<linearGradient id="paint11_linear_22_604" x1="100.496" y1="58.8098" x2="102.759" y2="68.7128" gradientUnits="userSpaceOnUse">
<stop stop-color="#FCCAC0"/>
<stop offset="1" stop-color="#F76F54"/>
</linearGradient>
<linearGradient id="paint12_linear_22_604" x1="110.742" y1="35.6271" x2="122.209" y2="85.8004" gradientUnits="userSpaceOnUse">
<stop stop-color="#FCCAC0"/>
<stop offset="1" stop-color="#F76F54"/>
</linearGradient>
<linearGradient id="paint13_linear_22_604" x1="93.2498" y1="122.234" x2="106.259" y2="180.216" gradientUnits="userSpaceOnUse">
<stop stop-color="#F9B546"/>
<stop offset="1" stop-color="#F4642C"/>
</linearGradient>
<linearGradient id="paint14_linear_22_604" x1="100.344" y1="120.639" x2="113.353" y2="178.621" gradientUnits="userSpaceOnUse">
<stop stop-color="#F9B546"/>
<stop offset="1" stop-color="#F4642C"/>
</linearGradient>
<linearGradient id="paint15_linear_22_604" x1="117.117" y1="12.9508" x2="105.828" y2="69.7388" gradientUnits="userSpaceOnUse">
<stop stop-color="#651AEC"/>
<stop offset="1" stop-color="#1E0233"/>
</linearGradient>
<linearGradient id="paint16_linear_22_604" x1="231.931" y1="150.407" x2="239.506" y2="262.182" gradientUnits="userSpaceOnUse">
<stop stop-color="#B493F9"/>
<stop offset="1" stop-color="#651AEC"/>
</linearGradient>
<linearGradient id="paint17_linear_22_604" x1="280.359" y1="90.3618" x2="283.088" y2="278.645" gradientUnits="userSpaceOnUse">
<stop stop-color="#B493F9"/>
<stop offset="1" stop-color="#651AEC"/>
</linearGradient>
<linearGradient id="paint18_linear_22_604" x1="280.635" y1="109.41" x2="282.257" y2="221.301" gradientUnits="userSpaceOnUse">
<stop stop-color="#23D0DC"/>
<stop offset="1" stop-color="#2790F1"/>
</linearGradient>
<linearGradient id="paint19_linear_22_604" x1="287.335" y1="166.986" x2="284.103" y2="218.077" gradientUnits="userSpaceOnUse">
<stop stop-color="#F9B546"/>
<stop offset="1" stop-color="#F4642C"/>
</linearGradient>
<linearGradient id="paint20_linear_22_604" x1="165.825" y1="153.917" x2="231.237" y2="153.917" gradientUnits="userSpaceOnUse">
<stop stop-color="#23D0DC"/>
<stop offset="1" stop-color="#2790F1"/>
</linearGradient>
<linearGradient id="paint21_linear_22_604" x1="165.825" y1="162.727" x2="231.237" y2="162.727" gradientUnits="userSpaceOnUse">
<stop stop-color="#23D0DC"/>
<stop offset="1" stop-color="#2790F1"/>
</linearGradient>
<linearGradient id="paint22_linear_22_604" x1="165.825" y1="171.542" x2="207.39" y2="171.542" gradientUnits="userSpaceOnUse">
<stop stop-color="#23D0DC"/>
<stop offset="1" stop-color="#2790F1"/>
</linearGradient>
<linearGradient id="paint23_linear_22_604" x1="165.825" y1="180.352" x2="207.39" y2="180.352" gradientUnits="userSpaceOnUse">
<stop stop-color="#23D0DC"/>
<stop offset="1" stop-color="#2790F1"/>
</linearGradient>
<linearGradient id="paint24_linear_22_604" x1="215.092" y1="51.5571" x2="215.918" y2="68.4037" gradientUnits="userSpaceOnUse">
<stop stop-color="#FCCAC0"/>
<stop offset="1" stop-color="#F76F54"/>
</linearGradient>
<linearGradient id="paint25_linear_22_604" x1="399.006" y1="139.908" x2="448.215" y2="139.908" gradientUnits="userSpaceOnUse">
<stop stop-color="#23D0DC"/>
<stop offset="1" stop-color="#2790F1"/>
</linearGradient>
<linearGradient id="paint26_linear_22_604" x1="399.006" y1="147.379" x2="448.215" y2="147.379" gradientUnits="userSpaceOnUse">
<stop stop-color="#23D0DC"/>
<stop offset="1" stop-color="#2790F1"/>
</linearGradient>
<linearGradient id="paint27_linear_22_604" x1="399.006" y1="154.85" x2="448.215" y2="154.85" gradientUnits="userSpaceOnUse">
<stop stop-color="#23D0DC"/>
<stop offset="1" stop-color="#2790F1"/>
</linearGradient>
<linearGradient id="paint28_linear_22_604" x1="399.006" y1="162.326" x2="434.891" y2="162.326" gradientUnits="userSpaceOnUse">
<stop stop-color="#23D0DC"/>
<stop offset="1" stop-color="#2790F1"/>
</linearGradient>
<linearGradient id="paint29_linear_22_604" x1="399.006" y1="169.794" x2="425.757" y2="169.794" gradientUnits="userSpaceOnUse">
<stop stop-color="#23D0DC"/>
<stop offset="1" stop-color="#2790F1"/>
</linearGradient>
<linearGradient id="paint30_linear_22_604" x1="165.108" y1="43.3262" x2="165.108" y2="78.0659" gradientUnits="userSpaceOnUse">
<stop stop-color="#EDE5FC"/>
<stop offset="1" stop-color="#DCD0F7"/>
</linearGradient>
<linearGradient id="paint31_linear_22_604" x1="176.678" y1="43.3262" x2="176.678" y2="78.0659" gradientUnits="userSpaceOnUse">
<stop stop-color="#EDE5FC"/>
<stop offset="1" stop-color="#DCD0F7"/>
</linearGradient>
<linearGradient id="paint32_linear_22_604" x1="188.247" y1="43.3262" x2="188.247" y2="78.0659" gradientUnits="userSpaceOnUse">
<stop stop-color="#EDE5FC"/>
<stop offset="1" stop-color="#DCD0F7"/>
</linearGradient>
<linearGradient id="paint33_linear_22_604" x1="157.751" y1="108.862" x2="204.385" y2="108.862" gradientUnits="userSpaceOnUse">
<stop stop-color="#B493F9"/>
<stop offset="1" stop-color="#651AEC"/>
</linearGradient>
<linearGradient id="paint34_linear_22_604" x1="178.716" y1="88.5851" x2="179.423" y2="112.717" gradientUnits="userSpaceOnUse">
<stop stop-color="#FC8190"/>
<stop offset="1" stop-color="#F9394A"/>
</linearGradient>
<linearGradient id="paint35_linear_22_604" x1="211.503" y1="108.862" x2="258.139" y2="108.862" gradientUnits="userSpaceOnUse">
<stop stop-color="#B493F9"/>
<stop offset="1" stop-color="#651AEC"/>
</linearGradient>
<linearGradient id="paint36_linear_22_604" x1="237.671" y1="130.066" x2="237.262" y2="115.626" gradientUnits="userSpaceOnUse">
<stop stop-color="#FC8190"/>
<stop offset="1" stop-color="#F9394A"/>
</linearGradient>
<linearGradient id="paint37_linear_22_604" x1="237.323" y1="107.502" x2="236.771" y2="118.815" gradientUnits="userSpaceOnUse">
<stop stop-color="#FC8190"/>
<stop offset="1" stop-color="#F9394A"/>
</linearGradient>
<linearGradient id="paint38_linear_22_604" x1="163.083" y1="123.223" x2="138.553" y2="145.255" gradientUnits="userSpaceOnUse">
<stop stop-color="#FCCAC0"/>
<stop offset="1" stop-color="#F76F54"/>
</linearGradient>
<linearGradient id="paint39_linear_22_604" x1="115.608" y1="138.968" x2="109.31" y2="170.319" gradientUnits="userSpaceOnUse">
<stop stop-color="#F9B546"/>
<stop offset="1" stop-color="#F4642C"/>
</linearGradient>
<linearGradient id="paint40_linear_22_604" x1="295.575" y1="14.4964" x2="295.738" y2="40.7205" gradientUnits="userSpaceOnUse">
<stop stop-color="#F9B546"/>
<stop offset="1" stop-color="#F4642C"/>
</linearGradient>
<linearGradient id="paint41_linear_22_604" x1="307.725" y1="14.4236" x2="307.888" y2="40.6418" gradientUnits="userSpaceOnUse">
<stop stop-color="#F9B546"/>
<stop offset="1" stop-color="#F4642C"/>
</linearGradient>
<linearGradient id="paint42_linear_22_604" x1="323.113" y1="14.3277" x2="323.276" y2="40.5462" gradientUnits="userSpaceOnUse">
<stop stop-color="#F9B546"/>
<stop offset="1" stop-color="#F4642C"/>
</linearGradient>
<linearGradient id="paint43_linear_22_604" x1="318.348" y1="14.3597" x2="318.511" y2="40.5765" gradientUnits="userSpaceOnUse">
<stop stop-color="#F9B546"/>
<stop offset="1" stop-color="#F4642C"/>
</linearGradient>
<linearGradient id="paint44_linear_22_604" x1="387.978" y1="122.011" x2="400.704" y2="282.556" gradientUnits="userSpaceOnUse">
<stop stop-color="#23D0DC"/>
<stop offset="1" stop-color="#2790F1"/>
</linearGradient>
<linearGradient id="paint45_linear_22_604" x1="336.737" y1="271.277" x2="379.941" y2="271.277" gradientUnits="userSpaceOnUse">
<stop stop-color="#23D0DC"/>
<stop offset="1" stop-color="#2790F1"/>
</linearGradient>
<linearGradient id="paint46_linear_22_604" x1="387.194" y1="270.721" x2="430.397" y2="270.721" gradientUnits="userSpaceOnUse">
<stop stop-color="#23D0DC"/>
<stop offset="1" stop-color="#2790F1"/>
</linearGradient>
<linearGradient id="paint47_linear_22_604" x1="336.837" y1="212.613" x2="441.921" y2="212.613" gradientUnits="userSpaceOnUse">
<stop stop-color="#23D0DC"/>
<stop offset="1" stop-color="#2790F1"/>
</linearGradient>
<linearGradient id="paint48_linear_22_604" x1="389.617" y1="194.262" x2="438.828" y2="194.262" gradientUnits="userSpaceOnUse">
<stop stop-color="#EDE5FC"/>
<stop offset="1" stop-color="#DCD0F7"/>
</linearGradient>
<linearGradient id="paint49_linear_22_604" x1="389.617" y1="201.732" x2="438.828" y2="201.732" gradientUnits="userSpaceOnUse">
<stop stop-color="#EDE5FC"/>
<stop offset="1" stop-color="#DCD0F7"/>
</linearGradient>
<linearGradient id="paint50_linear_22_604" x1="389.617" y1="209.204" x2="425.502" y2="209.204" gradientUnits="userSpaceOnUse">
<stop stop-color="#EDE5FC"/>
<stop offset="1" stop-color="#DCD0F7"/>
</linearGradient>
<linearGradient id="paint51_linear_22_604" x1="365.263" y1="190.911" x2="364.859" y2="235.542" gradientUnits="userSpaceOnUse">
<stop stop-color="#EDE5FC"/>
<stop offset="1" stop-color="#DCD0F7"/>
</linearGradient>
<linearGradient id="paint52_linear_22_604" x1="364.703" y1="208.341" x2="365.26" y2="227.115" gradientUnits="userSpaceOnUse">
<stop stop-color="#23D0DC"/>
<stop offset="1" stop-color="#2790F1"/>
</linearGradient>
<linearGradient id="paint53_linear_22_604" x1="361.414" y1="194.656" x2="362.009" y2="214.986" gradientUnits="userSpaceOnUse">
<stop stop-color="#FC8190"/>
<stop offset="1" stop-color="#F9394A"/>
</linearGradient>
<linearGradient id="paint54_linear_22_604" x1="336.737" y1="111.584" x2="449.215" y2="111.584" gradientUnits="userSpaceOnUse">
<stop stop-color="#23D0DC"/>
<stop offset="1" stop-color="#2790F1"/>
</linearGradient>
<linearGradient id="paint55_linear_22_604" x1="336.864" y1="154.401" x2="388.547" y2="154.401" gradientUnits="userSpaceOnUse">
<stop stop-color="#23D0DC"/>
<stop offset="1" stop-color="#2790F1"/>
</linearGradient>
<linearGradient id="paint56_linear_22_604" x1="362.731" y1="142.874" x2="366.367" y2="170.944" gradientUnits="userSpaceOnUse">
<stop stop-color="#EDE5FC"/>
<stop offset="1" stop-color="#DCD0F7"/>
</linearGradient>
<linearGradient id="paint57_linear_22_604" x1="364.033" y1="141.378" x2="364.526" y2="175.405" gradientUnits="userSpaceOnUse">
<stop stop-color="#B493F9"/>
<stop offset="1" stop-color="#651AEC"/>
</linearGradient>
<linearGradient id="paint58_linear_22_604" x1="363.762" y1="141.37" x2="364.255" y2="175.383" gradientUnits="userSpaceOnUse">
<stop stop-color="#B493F9"/>
<stop offset="1" stop-color="#651AEC"/>
</linearGradient>
<linearGradient id="paint59_linear_22_604" x1="448.359" y1="31.5117" x2="451.591" y2="68.2651" gradientUnits="userSpaceOnUse">
<stop stop-color="#FC8190"/>
<stop offset="1" stop-color="#F9394A"/>
</linearGradient>
<linearGradient id="paint60_linear_22_604" x1="149.303" y1="290.517" x2="204.867" y2="340.177" gradientUnits="userSpaceOnUse">
<stop stop-color="#FC8190"/>
<stop offset="1" stop-color="#F9394A"/>
</linearGradient>
<linearGradient id="paint61_linear_22_604" x1="260.926" y1="275.149" x2="219.924" y2="331.136" gradientUnits="userSpaceOnUse">
<stop stop-color="#FC8190"/>
<stop offset="1" stop-color="#F9394A"/>
</linearGradient>
<linearGradient id="paint62_linear_22_604" x1="207.058" y1="257.778" x2="205.965" y2="352.039" gradientUnits="userSpaceOnUse">
<stop stop-color="#FC8190"/>
<stop offset="1" stop-color="#F9394A"/>
</linearGradient>
<linearGradient id="paint63_linear_22_604" x1="201.284" y1="267.514" x2="196.915" y2="234.295" gradientUnits="userSpaceOnUse">
<stop stop-color="#FCCAC0"/>
<stop offset="1" stop-color="#F76F54"/>
</linearGradient>
<linearGradient id="paint64_linear_22_604" x1="206.193" y1="266.428" x2="201.872" y2="233.582" gradientUnits="userSpaceOnUse">
<stop stop-color="#FCCAC0"/>
<stop offset="1" stop-color="#F76F54"/>
</linearGradient>
<linearGradient id="paint65_linear_22_604" x1="170.643" y1="223.621" x2="180.48" y2="239.107" gradientUnits="userSpaceOnUse">
<stop stop-color="#FCCAC0"/>
<stop offset="1" stop-color="#F76F54"/>
</linearGradient>
<linearGradient id="paint66_linear_22_604" x1="171.936" y1="225.552" x2="178.598" y2="236.04" gradientUnits="userSpaceOnUse">
<stop stop-color="#FCCAC0"/>
<stop offset="1" stop-color="#F76F54"/>
</linearGradient>
<linearGradient id="paint67_linear_22_604" x1="189.557" y1="207.163" x2="203.753" y2="256.556" gradientUnits="userSpaceOnUse">
<stop stop-color="#FCCAC0"/>
<stop offset="1" stop-color="#F76F54"/>
</linearGradient>
<linearGradient id="paint68_linear_22_604" x1="126.315" y1="324.264" x2="191.395" y2="317.575" gradientUnits="userSpaceOnUse">
<stop stop-color="#FC8190"/>
<stop offset="1" stop-color="#F9394A"/>
</linearGradient>
<linearGradient id="paint69_linear_22_604" x1="284.723" y1="298.158" x2="238.154" y2="343.249" gradientUnits="userSpaceOnUse">
<stop stop-color="#FC8190"/>
<stop offset="1" stop-color="#F9394A"/>
</linearGradient>
<linearGradient id="paint70_linear_22_604" x1="187.499" y1="186.902" x2="191.099" y2="216.298" gradientUnits="userSpaceOnUse">
<stop stop-color="#651AEC"/>
<stop offset="1" stop-color="#1E0233"/>
</linearGradient>
<linearGradient id="paint71_linear_22_604" x1="197.12" y1="332.804" x2="225.866" y2="331.723" gradientUnits="userSpaceOnUse">
<stop stop-color="#23D0DC"/>
<stop offset="1" stop-color="#2790F1"/>
</linearGradient>
<linearGradient id="paint72_linear_22_604" x1="204.347" y1="338.616" x2="230.272" y2="338.616" gradientUnits="userSpaceOnUse">
<stop stop-color="#FCCAC0"/>
<stop offset="1" stop-color="#F76F54"/>
</linearGradient>
<linearGradient id="paint73_linear_22_604" x1="224.4" y1="293.58" x2="188.945" y2="306.204" gradientUnits="userSpaceOnUse">
<stop stop-color="#FCCAC0"/>
<stop offset="1" stop-color="#F76F54"/>
</linearGradient>
<linearGradient id="paint74_linear_22_604" x1="461.058" y1="264.15" x2="462.901" y2="230.796" gradientUnits="userSpaceOnUse">
<stop stop-color="#FCCAC0"/>
<stop offset="1" stop-color="#F76F54"/>
</linearGradient>
<linearGradient id="paint75_linear_22_604" x1="457.298" y1="266.923" x2="459.327" y2="230.197" gradientUnits="userSpaceOnUse">
<stop stop-color="#FCCAC0"/>
<stop offset="1" stop-color="#F76F54"/>
</linearGradient>
<linearGradient id="paint76_linear_22_604" x1="463.757" y1="177.03" x2="458.335" y2="237.324" gradientUnits="userSpaceOnUse">
<stop stop-color="#651AEC"/>
<stop offset="1" stop-color="#1E0233"/>
</linearGradient>
<linearGradient id="paint77_linear_22_604" x1="447.466" y1="251.927" x2="470.214" y2="187.813" gradientUnits="userSpaceOnUse">
<stop stop-color="#FCCAC0"/>
<stop offset="1" stop-color="#F76F54"/>
</linearGradient>
<linearGradient id="paint78_linear_22_604" x1="373.321" y1="239.189" x2="350.317" y2="239.189" gradientUnits="userSpaceOnUse">
<stop stop-color="#FCCAC0"/>
<stop offset="1" stop-color="#F76F54"/>
</linearGradient>
<linearGradient id="paint79_linear_22_604" x1="474.738" y1="178.017" x2="469.353" y2="237.913" gradientUnits="userSpaceOnUse">
<stop stop-color="#651AEC"/>
<stop offset="1" stop-color="#1E0233"/>
</linearGradient>
<linearGradient id="paint80_linear_22_604" x1="472.985" y1="216.097" x2="469.138" y2="232.93" gradientUnits="userSpaceOnUse">
<stop stop-color="#FCCAC0"/>
<stop offset="1" stop-color="#F76F54"/>
</linearGradient>
<linearGradient id="paint81_linear_22_604" x1="472.414" y1="218.037" x2="469.77" y2="229.604" gradientUnits="userSpaceOnUse">
<stop stop-color="#FCCAC0"/>
<stop offset="1" stop-color="#F76F54"/>
</linearGradient>
<clipPath id="clip0_22_604">
<rect width="500" height="378.28" fill="white" transform="translate(0 0.212891)"/>
</clipPath>
</defs>
</svg>
