<svg width="37" height="35" viewBox="0 0 37 35" fill="none" xmlns="http://www.w3.org/2000/svg">
<g filter="url(#filter0_b_4_2100)">
<rect width="37" height="34.2927" rx="2.70732" fill="url(#paint0_linear_4_2100)"/>
<g clip-path="url(#clip0_4_2100)">
<path d="M26.5331 9.46582C25.5401 8.46367 24.3576 7.66916 23.0546 7.1286C21.7515 6.58803 20.3538 6.31221 18.9431 6.31721C13.0317 6.31721 8.214 11.1335 8.20858 17.0463C8.20858 18.9401 8.70402 20.7824 9.6394 22.4136L8.12195 27.9757L13.8127 26.484C15.387 27.3408 17.1508 27.7898 18.9431 27.7903H18.9485C24.8613 27.7903 29.6776 22.974 29.683 17.0558C29.6844 15.6453 29.4066 14.2485 28.8658 12.9459C28.3249 11.6433 27.5317 10.4605 26.5317 9.46582H26.5331ZM18.9431 25.9737C17.3444 25.9742 15.7751 25.544 14.4002 24.7283L14.0753 24.5334L10.6993 25.4187L11.6009 22.1252L11.3897 21.7855C10.496 20.3646 10.0234 18.7195 10.0265 17.0409C10.0265 12.1325 14.0293 8.1284 18.9485 8.1284C20.1204 8.1263 21.2812 8.35619 22.3638 8.80481C23.4465 9.25344 24.4296 9.91193 25.2566 10.7423C26.0864 11.5695 26.7443 12.5527 27.1922 13.6354C27.6401 14.7181 27.8693 15.8787 27.8664 17.0504C27.861 21.9763 23.8582 25.9737 18.9431 25.9737ZM23.8366 19.2947C23.5699 19.1607 22.2528 18.5123 22.0051 18.4203C21.7587 18.3323 21.5787 18.2863 21.4027 18.5543C21.2227 18.821 20.7083 19.4287 20.5539 19.6034C20.3996 19.7834 20.2399 19.8037 19.9719 19.671C19.7052 19.5357 18.8402 19.2541 17.8169 18.3377C17.0182 17.627 16.4835 16.7471 16.3238 16.4805C16.1694 16.2125 16.3089 16.069 16.4429 15.9349C16.5607 15.8158 16.7096 15.6209 16.8436 15.4666C16.9789 15.3123 17.0236 15.1986 17.1116 15.0199C17.1996 14.8385 17.1576 14.6842 17.0913 14.5502C17.0236 14.4161 16.4889 13.0936 16.2629 12.5603C16.0463 12.0337 15.8256 12.1068 15.6605 12.1C15.5062 12.0906 15.3261 12.0906 15.1461 12.0906C15.0101 12.0939 14.8763 12.1254 14.7531 12.1829C14.6299 12.2405 14.5199 12.3228 14.43 12.4249C14.1836 12.6929 13.4946 13.3413 13.4946 14.6639C13.4946 15.9864 14.4557 17.2575 14.5911 17.4375C14.7237 17.6175 16.4781 20.3235 19.1705 21.4877C19.8067 21.7652 20.3076 21.929 20.6988 22.0535C21.3418 22.2592 21.9225 22.2281 22.3854 22.1618C22.8998 22.0833 23.9706 21.512 24.1966 20.8853C24.4186 20.2572 24.4186 19.7211 24.351 19.6088C24.2846 19.4951 24.1046 19.4287 23.8366 19.2947Z" fill="white"/>
</g>
<rect x="0.45122" y="0.45122" width="36.0976" height="33.3902" rx="2.2561" stroke="url(#paint1_linear_4_2100)" stroke-width="0.902439"/>
</g>
<defs>
<filter id="filter0_b_4_2100" x="-28" y="-28" width="93" height="90.2927" filterUnits="userSpaceOnUse" color-interpolation-filters="sRGB">
<feFlood flood-opacity="0" result="BackgroundImageFix"/>
<feGaussianBlur in="BackgroundImage" stdDeviation="14"/>
<feComposite in2="SourceAlpha" operator="in" result="effect1_backgroundBlur_4_2100"/>
<feBlend mode="normal" in="SourceGraphic" in2="effect1_backgroundBlur_4_2100" result="shape"/>
</filter>
<linearGradient id="paint0_linear_4_2100" x1="1.15025e-06" y1="-0.198798" x2="5.29616" y2="38.6959" gradientUnits="userSpaceOnUse">
<stop stop-color="white" stop-opacity="0.09"/>
<stop offset="1" stop-color="white" stop-opacity="0.03"/>
</linearGradient>
<linearGradient id="paint1_linear_4_2100" x1="1.15025e-06" y1="-0.198798" x2="5.29616" y2="38.6959" gradientUnits="userSpaceOnUse">
<stop stop-color="white" stop-opacity="0.15"/>
<stop offset="1" stop-color="white" stop-opacity="0.07"/>
</linearGradient>
<clipPath id="clip0_4_2100">
<rect width="21.6585" height="21.6585" fill="white" transform="translate(8.12195 6.31714)"/>
</clipPath>
</defs>
</svg>
